<?xml version="1.0" encoding="UTF-8"?>
<svg version="1.1" xmlns="http://www.w3.org/2000/svg" width="400" height="400">
<path d="M0 0 C1.15628906 0.97259766 1.15628906 0.97259766 2.3359375 1.96484375 C7.05230183 5.94935844 11.03027284 10.28201078 15 15 C16.25296875 16.42119141 16.25296875 16.42119141 17.53125 17.87109375 C47.84644125 52.43365404 63.5197607 96.95329795 63.3125 142.6875 C63.30976578 143.94199448 63.30976578 143.94199448 63.30697632 145.22183228 C63.26121608 157.70006932 62.80576476 169.79381865 60 182 C59.83371094 182.76119141 59.66742188 183.52238281 59.49609375 184.30664062 C52.11954139 217.391844 36.2877217 246.67779976 14 272 C13.35160156 272.77085937 12.70320313 273.54171875 12.03515625 274.3359375 C8.05064156 279.05230183 3.71798922 283.03027284 -1 287 C-2.42119141 288.25296875 -2.42119141 288.25296875 -3.87109375 289.53125 C-41.43606887 322.4798914 -91.62875117 338.49175964 -141.29956055 335.60351562 C-175.83265231 333.08869621 -209.63215197 322.14370818 -238 302 C-239.01964844 301.28328125 -240.03929687 300.5665625 -241.08984375 299.828125 C-250.48078572 293.01153391 -258.81686934 285.20961329 -267 277 C-267.69480469 276.34 -268.38960938 275.68 -269.10546875 275 C-300.22588667 245.10571487 -320.16315328 198.23873813 -321.26396179 155.26242065 C-321.32673517 151.27869134 -321.33055539 147.2966069 -321.3125 143.3125 C-321.31067719 142.47617035 -321.30885437 141.6398407 -321.30697632 140.77816772 C-321.26121608 128.29993068 -320.80576476 116.20618135 -318 104 C-317.83371094 103.23880859 -317.66742188 102.47761719 -317.49609375 101.69335938 C-310.11954139 68.608156 -294.2877217 39.32220024 -272 14 C-271.35160156 13.22914062 -270.70320313 12.45828125 -270.03515625 11.6640625 C-266.05064156 6.94769817 -261.71798922 2.96972716 -257 -1 C-256.05253906 -1.8353125 -255.10507813 -2.670625 -254.12890625 -3.53125 C-187.17448952 -62.25768494 -83.58120806 -64.89803739 0 0 Z " fill="#FEFEFE" transform="translate(329,57)"/>
<path d="M0 0 C0.85624466 -0.00979385 1.71248932 -0.01958771 2.59468079 -0.02967834 C21.00451445 -0.1969033 38.89278784 -0.21658805 56.875 4.23828125 C57.76832031 4.45258789 58.66164062 4.66689453 59.58203125 4.88769531 C111.24075045 17.58066387 155.5616079 51.00678687 183.5 95.98828125 C200.40259296 123.97966581 211.87642037 156.74054109 212.078125 189.69140625 C212.08513931 190.46556381 212.09215363 191.23972137 212.09938049 192.03733826 C212.11677517 194.52104591 212.12323249 197.00451492 212.125 199.48828125 C212.12567474 200.33798492 212.12634949 201.1876886 212.12704468 202.06314087 C212.11072632 214.99871801 211.66810679 227.55933584 208.875 240.23828125 C208.70871094 241.00978516 208.54242188 241.78128906 208.37109375 242.57617188 C196.42963146 296.13584164 163.83244791 340.93966162 118.125 370.7109375 C90.05406912 388.45044609 56.35415882 400.24924188 22.94921875 400.44140625 C21.71742889 400.4519957 21.71742889 400.4519957 20.46075439 400.46279907 C-13.39964621 400.68793791 -13.39964621 400.68793791 -28.125 397.23828125 C-29.46473877 396.94026611 -29.46473877 396.94026611 -30.83154297 396.63623047 C-83.70112622 384.68349657 -129.28250979 352.41179301 -158.35205078 306.73901367 C-176.06578847 278.2194629 -188.1209555 244.6287745 -188.328125 210.78515625 C-188.33513931 210.01099869 -188.34215363 209.23684113 -188.34938049 208.43922424 C-188.36677517 205.95551659 -188.37323249 203.47204758 -188.375 200.98828125 C-188.37567474 200.13857758 -188.37634949 199.2888739 -188.37704468 198.41342163 C-188.3607336 185.48361897 -187.93826606 172.90886157 -185.125 160.23828125 C-184.85961426 159.04114502 -184.85961426 159.04114502 -184.58886719 157.81982422 C-183.30408134 152.22911967 -181.79361845 146.72586159 -180.125 141.23828125 C-179.91536621 140.54347656 -179.70573242 139.84867188 -179.48974609 139.1328125 C-171.55652179 113.48266465 -158.02119729 89.26718599 -140.125 69.23828125 C-139.67979004 68.73425781 -139.23458008 68.23023437 -138.77587891 67.7109375 C-121.66598665 48.40806278 -102.15470569 32.93681294 -79.125 21.23828125 C-78.43229004 20.88040527 -77.73958008 20.5225293 -77.02587891 20.15380859 C-53.51411084 8.10659394 -26.51719672 0.25079894 0 0 Z M-135.25 69.48828125 C-145.89631982 81.55174847 -154.78901884 94.94484215 -162.125 109.23828125 C-162.50108398 109.96063965 -162.87716797 110.68299805 -163.26464844 111.42724609 C-186.35777894 156.22946785 -190.42220557 209.04219407 -176.125 257.23828125 C-175.92068359 257.93373047 -175.71636719 258.62917969 -175.50585938 259.34570312 C-169.61910954 278.80000973 -160.32287874 297.97286269 -148.125 314.23828125 C-147.69364746 314.82077637 -147.26229492 315.40327148 -146.81787109 316.00341797 C-123.60514997 347.13168547 -93.50023025 370.43371752 -57.125 384.23828125 C-55.8978125 384.70878906 -54.670625 385.17929687 -53.40625 385.6640625 C-42.26533603 389.64472092 -30.72616245 392.02097959 -19.125 394.23828125 C-18.42858398 394.37395508 -17.73216797 394.50962891 -17.01464844 394.64941406 C31.01911738 403.57248411 82.88941086 389.29750349 122.96533203 362.55029297 C165.9931963 332.98857696 195.5147589 287.02462044 205.09765625 235.7890625 C210.50498052 204.88538502 208.79992548 173.3243344 199.875 143.23828125 C199.67068359 142.54283203 199.46636719 141.84738281 199.25585938 141.13085938 C193.3552518 121.63075625 184.00190489 102.59825546 171.875 86.23828125 C171.48666992 85.69880859 171.09833984 85.15933594 170.69824219 84.60351562 C153.39495116 60.58315318 130.94105024 40.95616713 104.73046875 27.21289062 C102.96683419 26.28651837 101.21732338 25.33340273 99.46875 24.37890625 C20.48565378 -17.32712119 -75.73101854 6.69479272 -135.25 69.48828125 Z " fill="#FEFEFE" transform="translate(188.125,-0.23828125)"/>
<path d="M0 0 C11.82152516 4.80582273 24.18973359 3.40183146 35.84375 -1.08984375 C45.37373899 -4.75061007 53.08718146 -6.84274907 62.84375 -2.52734375 C69.40144076 1.21990811 73.68503223 6.16292166 75.99609375 13.38671875 C77.76989052 20.98032807 75.92871681 27.56166738 72.46875 34.41015625 C68.62365446 39.77382117 63.96113994 43.13626218 57.46875 44.41015625 C48.4600828 45.72981154 41.40618555 43.31316225 33.23046875 39.91796875 C22.66184817 35.57583282 12.40153516 34.55034849 1.59375 38.72265625 C-1.19430774 39.90648776 -3.94906405 41.14161642 -6.69921875 42.41015625 C-13.6734725 45.40117642 -21.02231363 45.40435489 -28.28125 43.34765625 C-35.83986759 38.8415573 -40.28504155 34.69460715 -42.90625 26.10546875 C-44.65347324 18.57056851 -43.49202303 12.08537906 -39.53125 5.41015625 C-27.94432912 -7.78178403 -14.93634991 -6.18107094 0 0 Z " fill="#3F3F3F" transform="translate(183.53125,157.58984375)"/>
<path d="M0 0 C4.75178615 2.833308 8.32785808 6.03462241 10.83984375 11.05859375 C11.40072467 17.0557051 11.29726218 21.93207677 7.83984375 27.05859375 C3.54611313 32.16465179 -0.07728916 33.78333776 -6.66015625 34.37109375 C-12.44676005 33.8544327 -15.71626776 31.78910916 -19.47265625 27.49609375 C-23.23129265 22.90878161 -23.50678731 19.71352601 -23.4375 13.81640625 C-22.90571368 8.52850289 -19.90610727 5.59867033 -16.09765625 2.24609375 C-11.2314616 -1.37766823 -5.65385671 -2.46397734 0 0 Z " fill="#F6F6F6" transform="translate(171.16015625,160.94140625)"/>
<path d="M0 0 C4.52049994 2.45774754 7.55699234 5.73898468 9.875 10.375 C10.43174965 16.32793853 10.41641118 21.34848091 6.875 26.375 C2.30765439 31.0637002 -0.92406863 33.13789397 -7.5 33.625 C-13.3351525 33.22257569 -16.62656528 31.16683838 -20.4375 26.875 C-24.13373605 22.45115842 -24.47582703 18.49238866 -24.40234375 12.875 C-23.83713113 7.78012566 -20.74280313 4.79309028 -17.0625 1.5625 C-11.63340257 -2.4804449 -6.13452938 -2.79474779 0 0 Z " fill="#F6F6F6" transform="translate(242.125,161.625)"/>
<path d="M0 0 C14 0 14 0 17 2 C17.29296875 4.8203125 17.29296875 4.8203125 17.1875 8.125 C17.16042969 9.22070312 17.13335937 10.31640625 17.10546875 11.4453125 C17.07066406 12.28835937 17.03585938 13.13140625 17 14 C15.02 14.99 15.02 14.99 13 16 C13 16.66 13 17.32 13 18 C14.32 18.66 15.64 19.32 17 20 C17.10807131 21.93627769 17.1856225 23.87427756 17.25 25.8125 C17.29640625 26.89144531 17.3428125 27.97039062 17.390625 29.08203125 C17.26171875 30.04496094 17.1328125 31.00789063 17 32 C13 35 13 35 0 35 C0 23.45 0 11.9 0 0 Z " fill="#1F1F1F" transform="translate(76,212)"/>
<path d="M0 0 C0.87785156 0.00515625 1.75570312 0.0103125 2.66015625 0.015625 C3.53542969 0.01046875 4.41070312 0.0053125 5.3125 0 C7.72265625 0.265625 7.72265625 0.265625 10.72265625 2.265625 C11.11083984 4.18920898 11.11083984 4.18920898 11.12109375 6.51171875 C11.12496094 7.34896484 11.12882812 8.18621094 11.1328125 9.04882812 C11.12121094 9.92474609 11.10960938 10.80066406 11.09765625 11.703125 C11.10925781 12.57517578 11.12085937 13.44722656 11.1328125 14.34570312 C11.12894531 15.18423828 11.12507813 16.02277344 11.12109375 16.88671875 C11.11601807 18.03805298 11.11601807 18.03805298 11.11083984 19.21264648 C10.62321535 21.791536 9.78118199 22.68131138 7.72265625 24.265625 C5.3125 24.6640625 5.3125 24.6640625 2.66015625 24.640625 C1.78230469 24.64835937 0.90445313 24.65609375 0 24.6640625 C-0.75152344 24.53257812 -1.50304687 24.40109375 -2.27734375 24.265625 C-4.35212201 21.15345761 -4.53256963 20.42501992 -4.54296875 16.88671875 C-4.54554687 16.04818359 -4.548125 15.20964844 -4.55078125 14.34570312 C-4.54304688 13.47365234 -4.5353125 12.60160156 -4.52734375 11.703125 C-4.53507812 10.82720703 -4.5428125 9.95128906 -4.55078125 9.04882812 C-4.54820313 8.21158203 -4.545625 7.37433594 -4.54296875 6.51171875 C-4.54071289 5.74529053 -4.53845703 4.9788623 -4.53613281 4.18920898 C-4.12936396 1.16568844 -2.95505947 0.34467246 0 0 Z " fill="#F6F6F6" transform="translate(111.27734375,222.734375)"/>
<path d="M0 0 C1.31291016 -0.02513672 1.31291016 -0.02513672 2.65234375 -0.05078125 C5.0625 0.3125 5.0625 0.3125 6.85546875 1.3046875 C8.82119714 4.57453991 8.49342498 8.04963043 8.4375 11.75 C8.44910156 12.51376953 8.46070313 13.27753906 8.47265625 14.06445312 C8.45514463 17.41792809 8.32150059 19.77354408 6.85546875 22.82421875 C4.47326594 24.80160278 3.06504643 24.78680931 0 24.6875 C-0.87785156 24.67460937 -1.75570313 24.66171875 -2.66015625 24.6484375 C-4.9375 24.3125 -4.9375 24.3125 -6.9375 22.3125 C-7.19628906 20.28125 -7.19628906 20.28125 -7.203125 17.8125 C-7.20570313 16.925625 -7.20828125 16.03875 -7.2109375 15.125 C-7.19933594 13.7328125 -7.19933594 13.7328125 -7.1875 12.3125 C-7.19523437 11.384375 -7.20296875 10.45625 -7.2109375 9.5 C-7.20835937 8.613125 -7.20578125 7.72625 -7.203125 6.8125 C-7.20086914 5.9978125 -7.19861328 5.183125 -7.19628906 4.34375 C-6.632258 -0.08336173 -3.78075202 0.0166553 0 0 Z " fill="#EFEFEF" transform="translate(279.9375,222.6875)"/>
<path d="M0 0 C1.98 0 3.96 0 6 0 C13 25.69035533 13 25.69035533 13 32 C13.66 32 14.32 32 15 32 C15 21.44 15 10.88 15 0 C15.66 0 16.32 0 17 0 C17 11.55 17 23.1 17 35 C15.02 35 13.04 35 11 35 C8.10276985 24.07288322 5.82256217 13.15628964 4 2 C3.34 2 2.68 2 2 2 C2.0721875 2.95777344 2.144375 3.91554687 2.21875 4.90234375 C2.93339665 14.9507088 3.11218151 24.92859353 3 35 C2.01 35 1.02 35 0 35 C0 23.45 0 11.9 0 0 Z " fill="#2C2C2C" transform="translate(192,212)"/>
<path d="M0 0 C0.87785156 -0.00515625 1.75570312 -0.0103125 2.66015625 -0.015625 C4.9375 0.25 4.9375 0.25 6.9375 2.25 C7.21379475 5.93024605 7.0234315 9.55494557 6.9375 13.25 C2.9775 13.25 -0.9825 13.25 -5.0625 13.25 C-4.7325 15.89 -4.4025 18.53 -4.0625 21.25 C-1.7525 21.25 0.5575 21.25 2.9375 21.25 C3.2675 19.6 3.5975 17.95 3.9375 16.25 C4.9275 16.25 5.9175 16.25 6.9375 16.25 C7.0625 19.125 7.0625 19.125 6.9375 22.25 C4.32576365 24.86173635 3.06551112 24.5481789 -0.5625 24.5625 C-1.5421875 24.57925781 -2.521875 24.59601563 -3.53125 24.61328125 C-4.3665625 24.49339844 -5.201875 24.37351563 -6.0625 24.25 C-8.8514256 20.0666116 -8.39316174 16.60206709 -8.375 11.6875 C-8.39111328 10.81158203 -8.40722656 9.93566406 -8.42382812 9.03320312 C-8.42447266 8.19595703 -8.42511719 7.35871094 -8.42578125 6.49609375 C-8.42876221 5.72966553 -8.43174316 4.9632373 -8.43481445 4.17358398 C-8.31195068 3.53880127 -8.18908691 2.90401855 -8.0625 2.25 C-4.81167327 0.08278218 -3.77017847 -0.02221018 0 0 Z " fill="#5A5A5A" transform="translate(222.0625,222.75)"/>
<path d="M0 0 C0.66 0 1.32 0 2 0 C2.33719047 2.56204544 2.66987153 5.12454318 3 7.6875 C3.09539062 8.40873047 3.19078125 9.12996094 3.2890625 9.87304688 C3.76683735 13.60992871 4.11919794 17.22291531 4 21 C4.66 21 5.32 21 6 21 C6.06058594 19.98679688 6.12117187 18.97359375 6.18359375 17.9296875 C6.26806704 16.57811486 6.35271157 15.22655291 6.4375 13.875 C6.47681641 13.20984375 6.51613281 12.5446875 6.55664062 11.859375 C6.812152 7.84981183 7.26782413 3.95005804 8 0 C10.31 0 12.62 0 15 0 C15.99862699 7.36487404 16.10331031 14.57313685 16 22 C16.66 21.67 17.32 21.34 18 21 C18.46907051 18.87001829 18.46907051 18.87001829 18.6328125 16.30859375 C18.71660156 15.36435547 18.80039062 14.42011719 18.88671875 13.44726562 C19.00466797 11.95743164 19.00466797 11.95743164 19.125 10.4375 C19.21136719 9.44041016 19.29773438 8.44332031 19.38671875 7.41601562 C19.59956793 4.94460012 19.80359321 2.47276775 20 0 C20.99 0 21.98 0 23 0 C22.86076462 3.25031784 22.71245815 6.50016061 22.5625 9.75 C22.52318359 10.67039063 22.48386719 11.59078125 22.44335938 12.5390625 C22.40146484 13.42851562 22.35957031 14.31796875 22.31640625 15.234375 C22.27974854 16.05131836 22.24309082 16.86826172 22.20532227 17.70996094 C22.00865725 19.9034423 21.59699406 21.88396413 21 24 C18.69 24 16.38 24 14 24 C13.9498877 23.36908447 13.89977539 22.73816895 13.84814453 22.08813477 C13.61686281 19.24536249 13.37113067 16.40402345 13.125 13.5625 C13.04636719 12.56927734 12.96773438 11.57605469 12.88671875 10.55273438 C12.80292969 9.60849609 12.71914063 8.66425781 12.6328125 7.69140625 C12.55949707 6.81685791 12.48618164 5.94230957 12.41064453 5.04125977 C12.20737549 4.03083618 12.20737549 4.03083618 12 3 C11.34 2.67 10.68 2.34 10 2 C9.93941406 3.25296875 9.87882813 4.5059375 9.81640625 5.796875 C9.73197744 7.44792724 9.64733061 9.09896835 9.5625 10.75 C9.50352539 11.9875 9.50352539 11.9875 9.44335938 13.25 C9.40146484 14.04921875 9.35957031 14.8484375 9.31640625 15.671875 C9.26141968 16.77160645 9.26141968 16.77160645 9.20532227 17.89355469 C8.99885215 20.01177605 8.56867914 21.9519456 8 24 C6.02 24 4.04 24 2 24 C1.66252452 21.12543208 1.32989537 18.25043941 1 15.375 C0.90460938 14.56675781 0.80921875 13.75851563 0.7109375 12.92578125 C0.21746383 8.59026261 -0.11320717 4.37262689 0 0 Z " fill="#323232" transform="translate(246,223)"/>
<path d="M0 0 C3.74225404 1.1566967 5.28964665 1.79776291 7.4375 5.0625 C7.88769252 8.66404012 7.84969248 11.08354287 6.4375 14.4375 C3.8380307 16.54956881 1.75736461 17.03461356 -1.5546875 17.28515625 C-3.5625 17.0625 -3.5625 17.0625 -6.5625 15.0625 C-9.06666232 11.30625652 -9.35403944 9.49512088 -8.5625 5.0625 C-5.90798953 1.20139386 -4.7398766 0.08315573 0 0 Z " fill="#404040" transform="translate(165.5625,168.9375)"/>
<path d="M0 0 C3.74225404 1.1566967 5.28964665 1.79776291 7.4375 5.0625 C7.88769252 8.66404012 7.84969248 11.08354287 6.4375 14.4375 C3.8380307 16.54956881 1.75736461 17.03461356 -1.5546875 17.28515625 C-3.5625 17.0625 -3.5625 17.0625 -6.5625 15.0625 C-9.06666232 11.30625652 -9.35403944 9.49512088 -8.5625 5.0625 C-5.90798953 1.20139386 -4.7398766 0.08315573 0 0 Z " fill="#404040" transform="translate(235.5625,168.9375)"/>
<path d="M0 0 C0.99 0 1.98 0 3 0 C3.33 5.61 3.66 11.22 4 17 C4.763125 15.68 5.52625 14.36 6.3125 13 C7.61328125 10.75 7.61328125 10.75 9 9 C9.99 9 10.98 9 12 9 C10.87548273 11.9719385 9.77706209 14.33440687 8 17 C8.14462455 22.92960635 11.26333055 27.89020391 14 33 C11.54291673 32.62317841 10.33157047 32.4083229 8.734375 30.44140625 C6 25.22222222 6 25.22222222 6 23 C5.34 23.33 4.68 23.66 4 24 C3.53348793 26.12576782 3.53348793 26.12576782 3.375 28.5625 C3.30023438 29.38878906 3.22546875 30.21507812 3.1484375 31.06640625 C3.09945312 31.70449219 3.05046875 32.34257812 3 33 C2.01 33 1.02 33 0 33 C0 22.11 0 11.22 0 0 Z " fill="#454545" transform="translate(146,214)"/>
<path d="M0 0 C0.87785156 0.00515625 1.75570312 0.0103125 2.66015625 0.015625 C3.53542969 0.01046875 4.41070312 0.0053125 5.3125 0 C7.72265625 0.265625 7.72265625 0.265625 10.72265625 2.265625 C11.11083984 4.18920898 11.11083984 4.18920898 11.12109375 6.51171875 C11.12496094 7.34896484 11.12882812 8.18621094 11.1328125 9.04882812 C11.12121094 9.92474609 11.10960938 10.80066406 11.09765625 11.703125 C11.10925781 12.57517578 11.12085937 13.44722656 11.1328125 14.34570312 C11.12894531 15.18423828 11.12507813 16.02277344 11.12109375 16.88671875 C11.11601807 18.03805298 11.11601807 18.03805298 11.11083984 19.21264648 C10.62321535 21.791536 9.78118199 22.68131138 7.72265625 24.265625 C5.3125 24.6640625 5.3125 24.6640625 2.66015625 24.640625 C1.78230469 24.64835937 0.90445313 24.65609375 0 24.6640625 C-0.75152344 24.53257812 -1.50304687 24.40109375 -2.27734375 24.265625 C-4.35212201 21.15345761 -4.53256963 20.42501992 -4.54296875 16.88671875 C-4.54554687 16.04818359 -4.548125 15.20964844 -4.55078125 14.34570312 C-4.54304688 13.47365234 -4.5353125 12.60160156 -4.52734375 11.703125 C-4.53507812 10.82720703 -4.5428125 9.95128906 -4.55078125 9.04882812 C-4.54820313 8.21158203 -4.545625 7.37433594 -4.54296875 6.51171875 C-4.54071289 5.74529053 -4.53845703 4.9788623 -4.53613281 4.18920898 C-4.12936396 1.16568844 -2.95505947 0.34467246 0 0 Z M-1.27734375 3.265625 C-1.37571585 4.59606125 -1.40812967 5.93155844 -1.41015625 7.265625 C-1.41144531 8.07 -1.41273437 8.874375 -1.4140625 9.703125 C-1.41019531 10.54875 -1.40632813 11.394375 -1.40234375 12.265625 C-1.40621094 13.11125 -1.41007812 13.956875 -1.4140625 14.828125 C-1.41277344 15.6325 -1.41148438 16.436875 -1.41015625 17.265625 C-1.40902832 18.008125 -1.40790039 18.750625 -1.40673828 19.515625 C-1.46676591 21.29388311 -1.46676591 21.29388311 -0.27734375 22.265625 C3.22265625 22.43229167 3.22265625 22.43229167 6.72265625 22.265625 C8.24475215 20.7435291 7.85225146 19.38352418 7.85546875 17.265625 C7.85675781 16.46125 7.85804687 15.656875 7.859375 14.828125 C7.85550781 13.9825 7.85164063 13.136875 7.84765625 12.265625 C7.85152344 11.42 7.85539062 10.574375 7.859375 9.703125 C7.85744141 8.4965625 7.85744141 8.4965625 7.85546875 7.265625 C7.85434082 6.523125 7.85321289 5.780625 7.85205078 5.015625 C7.91207841 3.23736689 7.91207841 3.23736689 6.72265625 2.265625 C2.40640375 1.72296387 2.40640375 1.72296387 -1.27734375 3.265625 Z " fill="#424242" transform="translate(111.27734375,222.734375)"/>
<path d="M0 0 C1.31291016 -0.02513672 1.31291016 -0.02513672 2.65234375 -0.05078125 C5.0625 0.3125 5.0625 0.3125 6.85546875 1.3046875 C8.82119714 4.57453991 8.49342498 8.04963043 8.4375 11.75 C8.44910156 12.51376953 8.46070313 13.27753906 8.47265625 14.06445312 C8.45514463 17.41792809 8.32150059 19.77354408 6.85546875 22.82421875 C4.47326594 24.80160278 3.06504643 24.78680931 0 24.6875 C-0.87785156 24.67460937 -1.75570313 24.66171875 -2.66015625 24.6484375 C-4.9375 24.3125 -4.9375 24.3125 -6.9375 22.3125 C-7.19628906 20.28125 -7.19628906 20.28125 -7.203125 17.8125 C-7.20570313 16.925625 -7.20828125 16.03875 -7.2109375 15.125 C-7.19933594 13.7328125 -7.19933594 13.7328125 -7.1875 12.3125 C-7.19523437 11.384375 -7.20296875 10.45625 -7.2109375 9.5 C-7.20835937 8.613125 -7.20578125 7.72625 -7.203125 6.8125 C-7.20086914 5.9978125 -7.19861328 5.183125 -7.19628906 4.34375 C-6.632258 -0.08336173 -3.78075202 0.0166553 0 0 Z M-4.9375 4.3125 C-5.13602102 7.02172801 -5.21589477 9.60553179 -5.1875 12.3125 C-5.19523437 13.04984375 -5.20296875 13.7871875 -5.2109375 14.546875 C-5.34758865 18.89671903 -5.34758865 18.89671903 -2.9375 22.3125 C0.0625 22.64583333 0.0625 22.64583333 3.0625 22.3125 C5.49248005 20.32513496 5.49248005 20.32513496 5.29296875 16.43359375 C5.28897576 14.87233524 5.27421261 13.31107586 5.25 11.75 C5.24935547 10.95658203 5.24871094 10.16316406 5.24804688 9.34570312 C5.58349458 5.52010201 5.58349458 5.52010201 4.0625 2.3125 C-0.96259316 1.76834266 -0.96259316 1.76834266 -4.9375 4.3125 Z " fill="#393939" transform="translate(279.9375,222.6875)"/>
<path d="M0 0 C0.66 0 1.32 0 2 0 C2 5.94 2 11.88 2 18 C2.66 18 3.32 18 4 18 C4.268125 17.0925 4.53625 16.185 4.8125 15.25 C5.89576294 12.28528037 6.98359457 10.3830246 9 8 C9.99 8.33 10.98 8.66 12 9 C11.319375 10.03125 10.63875 11.0625 9.9375 12.125 C8.51400617 14.67203718 8.00368991 15.83395419 7.9375 18.8125 C9.48403665 23.45210994 11.69465986 27.69556417 14 32 C11.32992218 31.63641494 10.27480111 31.35223126 8.5859375 29.1875 C8.18632812 28.465625 7.78671875 27.74375 7.375 27 C5.76772106 23.90833391 5.76772106 23.90833391 3 22 C2.67 25.3 2.34 28.6 2 32 C1.34 32 0.68 32 0 32 C0 21.44 0 10.88 0 0 Z " fill="#262626" transform="translate(310,215)"/>
<path d="M0 0 C1.258125 -0.04125 2.51625 -0.0825 3.8125 -0.125 C4.52019531 -0.14820313 5.22789063 -0.17140625 5.95703125 -0.1953125 C8 0 8 0 11 2 C11.328125 4.56640625 11.328125 4.56640625 11.25 7.5625 C11.23453125 8.55378906 11.2190625 9.54507813 11.203125 10.56640625 C11 13 11 13 10 14 C6.66381769 14.14257189 3.34024394 14.04228157 0 14 C0 9.38 0 4.76 0 0 Z " fill="#F1F1F1" transform="translate(79,230)"/>
<path d="M0 0 C1.3303125 0.00773438 1.3303125 0.00773438 2.6875 0.015625 C3.574375 0.01046875 4.46125 0.0053125 5.375 0 C7.6875 0.265625 7.6875 0.265625 9.6875 2.265625 C9.8125 5.390625 9.8125 5.390625 9.6875 8.265625 C8.6975 8.265625 7.7075 8.265625 6.6875 8.265625 C6.3575 6.615625 6.0275 4.965625 5.6875 3.265625 C3.3775 3.265625 1.0675 3.265625 -1.3125 3.265625 C-1.3125 5.245625 -1.3125 7.225625 -1.3125 9.265625 C-0.37277344 9.55566406 -0.37277344 9.55566406 0.5859375 9.8515625 C1.40320313 10.11195313 2.22046875 10.37234375 3.0625 10.640625 C3.87460938 10.89585937 4.68671875 11.15109375 5.5234375 11.4140625 C7.6875 12.265625 7.6875 12.265625 9.6875 14.265625 C9.953125 16.140625 9.953125 16.140625 9.9375 18.265625 C9.94265625 18.966875 9.9478125 19.668125 9.953125 20.390625 C9.6875 22.265625 9.6875 22.265625 7.6875 24.265625 C5.375 24.53125 5.375 24.53125 2.6875 24.515625 C1.3571875 24.52335937 1.3571875 24.52335937 0 24.53125 C-2.3125 24.265625 -2.3125 24.265625 -4.3125 22.265625 C-4.4375 19.140625 -4.4375 19.140625 -4.3125 16.265625 C-3.6525 16.265625 -2.9925 16.265625 -2.3125 16.265625 C-1.9825 17.915625 -1.6525 19.565625 -1.3125 21.265625 C0.9975 21.265625 3.3075 21.265625 5.6875 21.265625 C6.0175 18.955625 6.3475 16.645625 6.6875 14.265625 C4.70182292 14.0703125 2.71614583 13.875 0.73046875 13.6796875 C-1.3125 13.265625 -1.3125 13.265625 -4.3125 11.265625 C-4.67578125 9.171875 -4.67578125 9.171875 -4.625 6.765625 C-4.62113281 5.9715625 -4.61726562 5.1775 -4.61328125 4.359375 C-4.16445976 1.23511111 -3.10036553 0.35612307 0 0 Z " fill="#202020" transform="translate(167.3125,222.734375)"/>
<path d="M0 0 C6.8359375 -0.1953125 6.8359375 -0.1953125 9 0 C11.52017426 2.52017426 11.29730377 3.51499849 11.3125 7 C11.32925781 7.886875 11.34601563 8.77375 11.36328125 9.6875 C11.24339844 10.450625 11.12351562 11.21375 11 12 C7.91111478 14.05925681 7.29064073 14.2390374 3.8125 14.125 C1.9253125 14.063125 1.9253125 14.063125 0 14 C0 9.38 0 4.76 0 0 Z " fill="#F1F1F1" transform="translate(79,214)"/>
<path d="M0 0 C1.32 0 2.64 0 4 0 C4 10.89 4 21.78 4 33 C2.68 33 1.36 33 0 33 C0 22.11 0 11.22 0 0 Z " fill="#626262" transform="translate(98,214)"/>
<path d="M0 0 C0.99 0 1.98 0 3 0 C3 2.31 3 4.62 3 7 C4.98 7 6.96 7 9 7 C9 7.99 9 8.98 9 10 C7.02 10 5.04 10 3 10 C3 16.27 3 22.54 3 29 C4.98 29 6.96 29 9 29 C9 29.66 9 30.32 9 31 C5.625 31.125 5.625 31.125 2 31 C0 29 0 29 -0.22705078 26.93701172 C-0.21657715 26.10959473 -0.20610352 25.28217773 -0.1953125 24.4296875 C-0.18886719 23.53378906 -0.18242187 22.63789063 -0.17578125 21.71484375 C-0.15902344 20.77769531 -0.14226562 19.84054688 -0.125 18.875 C-0.11597656 17.93011719 -0.10695312 16.98523438 -0.09765625 16.01171875 C-0.07404522 13.67422708 -0.04111516 11.33723877 0 9 C-0.66 9 -1.32 9 -2 9 C-2 8.34 -2 7.68 -2 7 C-1.34 7 -0.68 7 0 7 C0 4.69 0 2.38 0 0 Z " fill="#5A5A5A" transform="translate(235,216)"/>
<path d="M0 0 C1.3303125 0.00773438 1.3303125 0.00773438 2.6875 0.015625 C3.574375 0.01046875 4.46125 0.0053125 5.375 0 C7.6875 0.265625 7.6875 0.265625 9.6875 2.265625 C9.8125 5.390625 9.8125 5.390625 9.6875 8.265625 C9.0275 8.265625 8.3675 8.265625 7.6875 8.265625 C7.0275 6.615625 6.3675 4.965625 5.6875 3.265625 C3.3775 3.265625 1.0675 3.265625 -1.3125 3.265625 C-1.33934312 6.07818781 -1.35926188 8.89049741 -1.375 11.703125 C-1.38337891 12.50556641 -1.39175781 13.30800781 -1.40039062 14.13476562 C-1.4090143 16.17857721 -1.3647815 18.22246402 -1.3125 20.265625 C-0.18715895 21.62180999 -0.18715895 21.62180999 2.75 21.328125 C4.2040625 21.2971875 4.2040625 21.2971875 5.6875 21.265625 C6.3475 19.615625 7.0075 17.965625 7.6875 16.265625 C8.3475 16.265625 9.0075 16.265625 9.6875 16.265625 C9.8125 19.140625 9.8125 19.140625 9.6875 22.265625 C7.6875 24.265625 7.6875 24.265625 5.375 24.53125 C4.488125 24.52609375 3.60125 24.5209375 2.6875 24.515625 C1.3571875 24.52335937 1.3571875 24.52335937 0 24.53125 C-2.3125 24.265625 -2.3125 24.265625 -4.3125 22.265625 C-4.57128906 20.234375 -4.57128906 20.234375 -4.578125 17.765625 C-4.58070312 16.87875 -4.58328125 15.991875 -4.5859375 15.078125 C-4.57433594 13.6859375 -4.57433594 13.6859375 -4.5625 12.265625 C-4.57023437 11.3375 -4.57796875 10.409375 -4.5859375 9.453125 C-4.58335938 8.56625 -4.58078125 7.679375 -4.578125 6.765625 C-4.57586914 5.9509375 -4.57361328 5.13625 -4.57128906 4.296875 C-4.17566683 1.19161374 -3.05148463 0.35050837 0 0 Z " fill="#202020" transform="translate(131.3125,222.734375)"/>
<path d="M0 0 C0.99 0 1.98 0 3 0 C2.86076462 3.25031784 2.71245815 6.50016061 2.5625 9.75 C2.52318359 10.67039063 2.48386719 11.59078125 2.44335938 12.5390625 C2.40146484 13.42851562 2.35957031 14.31796875 2.31640625 15.234375 C2.26141968 16.45979004 2.26141968 16.45979004 2.20532227 17.70996094 C2.00865725 19.9034423 1.59699406 21.88396413 1 24 C-1.31 24 -3.62 24 -6 24 C-6 19.05 -6 14.1 -6 9 C-5.34 9 -4.68 9 -4 9 C-4 13.29 -4 17.58 -4 22 C-3.34 21.67 -2.68 21.34 -2 21 C-1.53092949 18.87001829 -1.53092949 18.87001829 -1.3671875 16.30859375 C-1.28339844 15.36435547 -1.19960938 14.42011719 -1.11328125 13.44726562 C-1.03464844 12.45404297 -0.95601563 11.46082031 -0.875 10.4375 C-0.78863281 9.44041016 -0.70226562 8.44332031 -0.61328125 7.41601562 C-0.40043207 4.94460012 -0.19640679 2.47276775 0 0 Z " fill="#2A2A2A" transform="translate(266,223)"/>
<path d="M0 0 C0.33 0 0.66 0 1 0 C1 4.62 1 9.24 1 14 C6.445 13.505 6.445 13.505 12 13 C12.33 9.7 12.66 6.4 13 3 C13.99 2.67 14.98 2.34 16 2 C16.10807131 3.93627769 16.1856225 5.87427756 16.25 7.8125 C16.29640625 8.89144531 16.3428125 9.97039062 16.390625 11.08203125 C16 14 16 14 14.375 15.90625 C11.24500518 17.34769498 9.15240711 17.09430955 5.75 16.6875 C3.8525 16.460625 1.955 16.23375 0 16 C0 10.72 0 5.44 0 0 Z " fill="#363636" transform="translate(77,230)"/>
<path d="M0 0 C1.32 0.66 2.64 1.32 4 2 C4 5.96 4 9.92 4 14 C2.02 14.99 2.02 14.99 0 16 C0 16.66 0 17.32 0 18 C0.99 18.33 1.98 18.66 3 19 C2.34 19.66 1.68 20.32 1 21 C0.01 20.34 -0.98 19.68 -2 19 C-4.32387947 18.60612212 -6.65793749 18.26513915 -9 18 C-9 17.34 -9 16.68 -9 16 C-6.03 15.34 -3.06 14.68 0 14 C0 13.32453125 0 12.6490625 0 11.953125 C0 7.96875 0 3.984375 0 0 Z " fill="#252525" transform="translate(89,212)"/>
<path d="M0 0 C3.5 0.125 3.5 0.125 4.5 1.125 C4.54092937 3.45797433 4.54241723 5.79205225 4.5 8.125 C1.53 8.125 -1.44 8.125 -4.5 8.125 C-4.54241723 5.79205225 -4.54092937 3.45797433 -4.5 1.125 C-3.5 0.125 -3.5 0.125 0 0 Z " fill="#F3F3F3" transform="translate(221.5,224.875)"/>
<path d="M0 0 C0.66 0 1.32 0 2 0 C2.06058594 1.14339844 2.12117188 2.28679687 2.18359375 3.46484375 C2.26798428 4.95574305 2.35263302 6.44662775 2.4375 7.9375 C2.47681641 8.69224609 2.51613281 9.44699219 2.55664062 10.22460938 C2.44038024 13.91944187 2.44038024 13.91944187 4 17 C7.36629251 17.14636054 9.78419562 17.07193479 13 16 C12.67 17.32 12.34 18.64 12 20 C10.37536158 20.05395478 8.75021459 20.09277195 7.125 20.125 C6.22007812 20.14820313 5.31515625 20.17140625 4.3828125 20.1953125 C2 20 2 20 0 18 C-0.22705078 16.12060547 -0.22705078 16.12060547 -0.1953125 13.8671875 C-0.18886719 13.06152344 -0.18242187 12.25585938 -0.17578125 11.42578125 C-0.15064453 10.16314453 -0.15064453 10.16314453 -0.125 8.875 C-0.11597656 8.02550781 -0.10695313 7.17601562 -0.09765625 6.30078125 C-0.07405647 4.20040116 -0.03818483 2.10016556 0 0 Z " fill="#212121" transform="translate(273,227)"/>
<path d="M0 0 C0.89589844 -0.01417969 1.79179687 -0.02835938 2.71484375 -0.04296875 C5.0625 0.1875 5.0625 0.1875 7.0625 2.1875 C7.33700545 5.53646654 7.14878804 8.82226663 7.0625 12.1875 C3.1025 12.1875 -0.8575 12.1875 -4.9375 12.1875 C-4.9375 11.8575 -4.9375 11.5275 -4.9375 11.1875 C-1.6375 10.8575 1.6625 10.5275 5.0625 10.1875 C4.4025 7.8775 3.7425 5.5675 3.0625 3.1875 C-1.73058342 2.72227707 -1.73058342 2.72227707 -5.875 4.6875 C-6.225625 5.1825 -6.57625 5.6775 -6.9375 6.1875 C-5.93879694 0.62329726 -5.69437562 0.04084918 0 0 Z " fill="#242424" transform="translate(221.9375,222.8125)"/>
<path d="M0 0 C0.33 0 0.66 0 1 0 C1.08710289 3.10398978 1.14042309 6.20766548 1.1875 9.3125 C1.21263672 10.19357422 1.23777344 11.07464844 1.26367188 11.98242188 C1.27333984 12.82998047 1.28300781 13.67753906 1.29296875 14.55078125 C1.3086792 15.33106689 1.32438965 16.11135254 1.34057617 16.9152832 C0.91847304 19.49903853 -0.01489942 20.36292167 -2 22 C-3.30662076 18.08013771 -2.9333816 14.49623058 -2.6875 10.4375 C-2.65205078 9.65697266 -2.61660156 8.87644531 -2.58007812 8.07226562 C-2.24310325 2.24310325 -2.24310325 2.24310325 0 0 Z " fill="#4B4B4B" transform="translate(121,225)"/>
<path d="M0 0 C0.66 0 1.32 0 2 0 C2.33 5.94 2.66 11.88 3 18 C4.98 18.33 6.96 18.66 9 19 C9 19.66 9 20.32 9 21 C5.625 21.125 5.625 21.125 2 21 C0 19 0 19 -0.22705078 17.02880859 C-0.21657715 16.24328613 -0.20610352 15.45776367 -0.1953125 14.6484375 C-0.18886719 13.79765625 -0.18242187 12.946875 -0.17578125 12.0703125 C-0.15902344 11.18085938 -0.14226562 10.29140625 -0.125 9.375 C-0.11597656 8.4778125 -0.10695312 7.580625 -0.09765625 6.65625 C-0.0740497 4.43723414 -0.0411231 2.21874923 0 0 Z " fill="#212121" transform="translate(235,226)"/>
<path d="M0 0 C0.66 0 1.32 0 2 0 C2 0.66 2 1.32 2 2 C2.66 2.33 3.32 2.66 4 3 C3.67 3.33 3.34 3.66 3 4 C2.84344973 5.48638992 2.74933057 6.97949127 2.68359375 8.47265625 C2.64169922 9.37177734 2.59980469 10.27089844 2.55664062 11.19726562 C2.51732422 12.14279297 2.47800781 13.08832031 2.4375 14.0625 C2.39431641 15.01189453 2.35113281 15.96128906 2.30664062 16.93945312 C2.20020724 19.29281353 2.09818992 21.64628354 2 24 C1.34 24 0.68 24 0 24 C0 16.08 0 8.16 0 0 Z " fill="#171717" transform="translate(293,223)"/>
<path d="M0 0 C0.33 0 0.66 0 1 0 C1.06058594 0.92683594 1.12117188 1.85367188 1.18359375 2.80859375 C1.26738281 4.00613281 1.35117188 5.20367187 1.4375 6.4375 C1.51871094 7.63246094 1.59992188 8.82742187 1.68359375 10.05859375 C1.67656114 12.88570244 1.67656114 12.88570244 3 14 C5.32817964 14.36760731 7.6618385 14.70241581 10 15 C10 15.66 10 16.32 10 17 C8.54257537 17.08096803 7.08387193 17.13917774 5.625 17.1875 C4.81289062 17.22230469 4.00078125 17.25710937 3.1640625 17.29296875 C2.44992188 17.19628906 1.73578125 17.09960938 1 17 C-1.40503353 13.3924497 -1.2396541 11.65163611 -1.1875 7.375 C-1.18105469 6.20710937 -1.17460938 5.03921875 -1.16796875 3.8359375 C-1 1 -1 1 0 0 Z " fill="#282828" transform="translate(108,230)"/>
<path d="M0 0 C0.66 0 1.32 0 2 0 C2.82544266 10.48947132 3.08101063 20.50588146 2 31 C1.67 31 1.34 31 1 31 C0.08012389 20.63496744 -0.1132812 10.39669641 0 0 Z " fill="#262626" transform="translate(77,213)"/>
<path d="M0 0 C0.66 0 1.32 0 2 0 C2.125 2.875 2.125 2.875 2 6 C0 8 0 8 -2.3828125 8.1953125 C-3.28773438 8.17210937 -4.19265625 8.14890625 -5.125 8.125 C-6.49011719 8.09792969 -6.49011719 8.09792969 -7.8828125 8.0703125 C-8.58148438 8.04710937 -9.28015625 8.02390625 -10 8 C-10.33 6.68 -10.66 5.36 -11 4 C-8.03 4.33 -5.06 4.66 -2 5 C-1.34 3.35 -0.68 1.7 0 0 Z " fill="#2B2B2B" transform="translate(139,239)"/>
<path d="M0 0 C0.66 0 1.32 0 2 0 C2.78688445 2.77723925 3.11949924 5.22610077 3.09765625 8.109375 C3.09443359 8.86347656 3.09121094 9.61757812 3.08789062 10.39453125 C3.07951172 11.17183594 3.07113281 11.94914063 3.0625 12.75 C3.05798828 13.54277344 3.05347656 14.33554688 3.04882812 15.15234375 C3.03708565 17.10159508 3.01915146 19.05080738 3 21 C0.38462703 17.04504575 0.55735726 12.83172627 0.375 8.25 C0.33632812 7.45722656 0.29765625 6.66445312 0.2578125 5.84765625 C0.163892 3.89880584 0.08087178 1.94943549 0 0 Z " fill="#242424" transform="translate(246,223)"/>
<path d="M0 0 C0.99 0 1.98 0 3 0 C2.88985294 3.25068154 2.75928788 6.50023328 2.625 9.75 C2.5940625 10.67039063 2.563125 11.59078125 2.53125 12.5390625 C2.49257813 13.42851562 2.45390625 14.31796875 2.4140625 15.234375 C2.36693115 16.45979004 2.36693115 16.45979004 2.31884766 17.70996094 C2 20 2 20 0 24 C0 16.08 0 8.16 0 0 Z " fill="#646464" transform="translate(266,223)"/>
<path d="M0 0 C0.33 0 0.66 0 1 0 C1 4.62 1 9.24 1 14 C3.165625 13.9690625 3.165625 13.9690625 5.375 13.9375 C9.75 13.875 9.75 13.875 12 15 C12 15.66 12 16.32 12 17 C8.04 16.67 4.08 16.34 0 16 C0 10.72 0 5.44 0 0 Z " fill="#4C4C4C" transform="translate(77,230)"/>
<path d="M0 0 C1.98 0 3.96 0 6 0 C5.67 0.99 5.34 1.98 5 3 C4.01 2.67 3.02 2.34 2 2 C1.67 8.93 1.34 15.86 1 23 C0.67 23 0.34 23 0 23 C0 15.41 0 7.82 0 0 Z " fill="#191919" transform="translate(192,212)"/>
<path d="M0 0 C0.99 0 1.98 0 3 0 C3.125 2.875 3.125 2.875 3 6 C1 8 1 8 -1.1640625 8.1953125 C-2.38222656 8.16050781 -2.38222656 8.16050781 -3.625 8.125 C-4.44226563 8.10695312 -5.25953125 8.08890625 -6.1015625 8.0703125 C-6.72804687 8.04710937 -7.35453125 8.02390625 -8 8 C-8 7.34 -8 6.68 -8 6 C-4.535 5.505 -4.535 5.505 -1 5 C-0.67 3.35 -0.34 1.7 0 0 Z " fill="#303030" transform="translate(226,239)"/>
<path d="M0 0 C0.99 0.33 1.98 0.66 3 1 C4.69262664 5.380916 5.30153263 10.32624426 5 15 C4.01 15.495 4.01 15.495 3 16 C2.49595192 13.89679937 1.99689492 11.79240209 1.5 9.6875 C1.08234375 7.92986328 1.08234375 7.92986328 0.65625 6.13671875 C0 3 0 3 0 0 Z " fill="#2C2C2C" transform="translate(196,213)"/>
<path d="M0 0 C0.66 0 1.32 0 2 0 C2.33 1.65 2.66 3.3 3 5 C6.3 5.33 9.6 5.66 13 6 C12.67 6.66 12.34 7.32 12 8 C10.37536158 8.05395478 8.75021459 8.09277195 7.125 8.125 C6.22007812 8.14820313 5.31515625 8.17140625 4.3828125 8.1953125 C2 8 2 8 0 6 C-0.125 2.875 -0.125 2.875 0 0 Z " fill="#1F1F1F" transform="translate(163,239)"/>
<path d="M0 0 C2.5 1 2.5 1 5 3 C5.46837899 5.79374292 5.23424505 8.14221036 5 11 C3.68 10.67 2.36 10.34 1 10 C1.33 7.69 1.66 5.38 2 3 C0.68 2.67 -0.64 2.34 -2 2 C-1.34 2 -0.68 2 0 2 C0 1.34 0 0.68 0 0 Z " fill="#444444" transform="translate(172,234)"/>
<path d="M0 0 C3.3502463 3.81234923 5.16974789 7.33285711 7 12 C5.14453125 11.7421875 5.14453125 11.7421875 3 11 C1.69921875 9.2578125 1.69921875 9.2578125 0.6875 7.125 C0.34074219 6.42632812 -0.00601563 5.72765625 -0.36328125 5.0078125 C-1 3 -1 3 0 0 Z " fill="#333333" transform="translate(153,235)"/>
<path d="M0 0 C1.99954746 -0.04254356 4.00041636 -0.04080783 6 0 C7 1 7 1 7.0625 4.5625 C7.041875 5.696875 7.02125 6.83125 7 8 C6.01 8 5.02 8 4 8 C4 6.02 4 4.04 4 2 C2.35 2 0.7 2 -1 2 C-0.67 1.34 -0.34 0.68 0 0 Z " fill="#353535" transform="translate(298,223)"/>
<path d="M0 0 C0.99 0 1.98 0 3 0 C1.54997977 4.10839064 -0.3979134 7.50344613 -3 11 C-3.66 11 -4.32 11 -5 11 C-4.46972205 6.4926374 -2.80388725 3.5460927 0 0 Z " fill="#363636" transform="translate(155,223)"/>
<path d="M0 0 C0.99 0.33 1.98 0.66 3 1 C3 3.97 3 6.94 3 10 C2.34 8.68 1.68 7.36 1 6 C0.67 7.98 0.34 9.96 0 12 C-0.33 12 -0.66 12 -1 12 C-1.14285714 3.42857143 -1.14285714 3.42857143 0 0 Z " fill="#C7C7C7" transform="translate(256,225)"/>
<path d="M0 0 C2.97 0.99 5.94 1.98 9 3 C9 3.66 9 4.32 9 5 C3.375 5.25 3.375 5.25 0 3 C0 2.01 0 1.02 0 0 Z " fill="#353535" transform="translate(163,231)"/>
<path d="M0 0 C1.32 0.66 2.64 1.32 4 2 C3.34 5.3 2.68 8.6 2 12 C1.67 12 1.34 12 1 12 C0.45533613 7.915021 0 4.1274515 0 0 Z " fill="#4D4D4D" transform="translate(89,212)"/>
<path d="M0 0 C1.485 0.99 1.485 0.99 3 2 C3.1875 5.125 3.1875 5.125 3 8 C2.01 8 1.02 8 0 8 C-1.125 2.25 -1.125 2.25 0 0 Z " fill="#464646" transform="translate(174,223)"/>
<path d="M0 0 C7.26 0 14.52 0 22 0 C22 0.33 22 0.66 22 1 C14.74 1 7.48 1 0 1 C0 0.67 0 0.34 0 0 Z " fill="#FFFFFF" transform="translate(189,5)"/>
<path d="M0 0 C4.455 0.99 4.455 0.99 9 2 C9 2.66 9 3.32 9 4 C6.69 4 4.38 4 2 4 C1.34 2.68 0.68 1.36 0 0 Z " fill="#282828" transform="translate(235,243)"/>
<path d="M0 0 C0.33 0 0.66 0 1 0 C1 1.65 1 3.3 1 5 C1.66 5 2.32 5 3 5 C3 3.35 3 1.7 3 0 C3.33 0 3.66 0 4 0 C4 2.31 4 4.62 4 7 C2.35 7.33 0.7 7.66 -1 8 C-0.67 5.36 -0.34 2.72 0 0 Z " fill="#616161" transform="translate(249,239)"/>
<path d="M0 0 C2 2 2 2 2.125 5.125 C2.08375 6.07375 2.0425 7.0225 2 8 C1.34 8 0.68 8 0 8 C-1.125 2.25 -1.125 2.25 0 0 Z " fill="#2C2C2C" transform="translate(202,234)"/>
<path d="M0 0 C2.99332739 0.9977758 3.94766315 1.7522025 6 4 C5.01 4.495 5.01 4.495 4 5 C3.34 4.67 2.68 4.34 2 4 C2 4.66 2 5.32 2 6 C1.34 6 0.68 6 0 6 C0 4.02 0 2.04 0 0 Z " fill="#545454" transform="translate(311,233)"/>
<path d="M0 0 C1.485 0.99 1.485 0.99 3 2 C3.1875 5.125 3.1875 5.125 3 8 C2.34 8 1.68 8 1 8 C0.26919734 6.02253397 -0.39421747 4.01927511 -1 2 C-0.67 1.34 -0.34 0.68 0 0 Z " fill="#2C2C2C" transform="translate(138,223)"/>
<path d="M0 0 C0.99 0.33 1.98 0.66 3 1 C3.33 2.98 3.66 4.96 4 7 C3.01 7.33 2.02 7.66 1 8 C0.67 5.36 0.34 2.72 0 0 Z " fill="#3F3F3F" transform="translate(196,213)"/>
<path d="M0 0 C2.31 0.33 4.62 0.66 7 1 C6.67 1.66 6.34 2.32 6 3 C4.02 3 2.04 3 0 3 C0 2.01 0 1.02 0 0 Z " fill="#474747" transform="translate(232,169)"/>
<path d="M0 0 C1.65 0 3.3 0 5 0 C5.33 0.99 5.66 1.98 6 3 C4.02 3 2.04 3 0 3 C0 2.01 0 1.02 0 0 Z " fill="#494949" transform="translate(162,169)"/>
<path d="M0 0 C0.33 0 0.66 0 1 0 C1 2.97 1 5.94 1 9 C0.67 9 0.34 9 0 9 C0 6.03 0 3.06 0 0 Z " fill="#FFFFFF" transform="translate(393,213)"/>
<path d="M0 0 C0.33 0 0.66 0 1 0 C1 2.97 1 5.94 1 9 C0.67 9 0.34 9 0 9 C0 6.03 0 3.06 0 0 Z " fill="#FFFFFF" transform="translate(6,213)"/>
<path d="M0 0 C0.33 0 0.66 0 1 0 C1 2.97 1 5.94 1 9 C0.67 9 0.34 9 0 9 C0 6.03 0 3.06 0 0 Z " fill="#FFFFFF" transform="translate(393,178)"/>
<path d="M0 0 C0.33 0 0.66 0 1 0 C1 2.97 1 5.94 1 9 C0.67 9 0.34 9 0 9 C0 6.03 0 3.06 0 0 Z " fill="#FFFFFF" transform="translate(6,178)"/>
<path d="M0 0 C2.97 0 5.94 0 9 0 C9 0.33 9 0.66 9 1 C6.03 1 3.06 1 0 1 C0 0.67 0 0.34 0 0 Z " fill="#FFFFFF" transform="translate(213,6)"/>
<path d="M0 0 C2.97 0 5.94 0 9 0 C9 0.33 9 0.66 9 1 C6.03 1 3.06 1 0 1 C0 0.67 0 0.34 0 0 Z " fill="#FFFFFF" transform="translate(178,6)"/>
<path d="M0 0 C2.64 0 5.28 0 8 0 C8 0.33 8 0.66 8 1 C5.36 1 2.72 1 0 1 C0 0.67 0 0.34 0 0 Z " fill="#FFFFFF" transform="translate(215,393)"/>
<path d="M0 0 C2.64 0 5.28 0 8 0 C8 0.33 8 0.66 8 1 C5.36 1 2.72 1 0 1 C0 0.67 0 0.34 0 0 Z " fill="#FFFFFF" transform="translate(177,393)"/>
<path d="M0 0 C1.98 0 3.96 0 6 0 C6 0.33 6 0.66 6 1 C4.02 1 2.04 1 0 1 C0 0.67 0 0.34 0 0 Z " fill="#FFFFFF" transform="translate(197,394)"/>
<path d="M0 0 C1.98 0 3.96 0 6 0 C6 0.33 6 0.66 6 1 C4.02 1 2.04 1 0 1 C0 0.67 0 0.34 0 0 Z " fill="#FFFFFF" transform="translate(224,392)"/>
<path d="M0 0 C1.98 0 3.96 0 6 0 C6 0.33 6 0.66 6 1 C4.02 1 2.04 1 0 1 C0 0.67 0 0.34 0 0 Z " fill="#FFFFFF" transform="translate(170,392)"/>
<path d="M0 0 C0.99 0.33 1.98 0.66 3 1 C1.35 1.33 -0.3 1.66 -2 2 C-1.34 1.34 -0.68 0.68 0 0 Z " fill="#FFFFFF" transform="translate(262,383)"/>
<path d="M0 0 C2.475 0.495 2.475 0.495 5 1 C4.01 1.33 3.02 1.66 2 2 C1.34 1.34 0.68 0.68 0 0 Z " fill="#FFFFFF" transform="translate(135,383)"/>
<path d="M0 0 C0.33 0 0.66 0 1 0 C1 1.98 1 3.96 1 6 C0.67 6 0.34 6 0 6 C0 4.02 0 2.04 0 0 Z " fill="#FFFFFF" transform="translate(392,223)"/>
<path d="M0 0 C0.33 0 0.66 0 1 0 C1 1.98 1 3.96 1 6 C0.67 6 0.34 6 0 6 C0 4.02 0 2.04 0 0 Z " fill="#FFFFFF" transform="translate(7,223)"/>
<path d="M0 0 C0.33 0 0.66 0 1 0 C1 1.98 1 3.96 1 6 C0.67 6 0.34 6 0 6 C0 4.02 0 2.04 0 0 Z " fill="#FFFFFF" transform="translate(392,171)"/>
<path d="M0 0 C0.33 0 0.66 0 1 0 C1 1.98 1 3.96 1 6 C0.67 6 0.34 6 0 6 C0 4.02 0 2.04 0 0 Z " fill="#FFFFFF" transform="translate(7,171)"/>
<path d="M0 0 C2.475 0.495 2.475 0.495 5 1 C4.01 1.33 3.02 1.66 2 2 C1.34 1.34 0.68 0.68 0 0 Z " fill="#FFFFFF" transform="translate(257,14)"/>
<path d="M0 0 C0.99 0.33 1.98 0.66 3 1 C1.35 1.33 -0.3 1.66 -2 2 C-1.34 1.34 -0.68 0.68 0 0 Z " fill="#FFFFFF" transform="translate(140,14)"/>
<path d="M0 0 C1.98 0 3.96 0 6 0 C6 0.33 6 0.66 6 1 C4.02 1 2.04 1 0 1 C0 0.67 0 0.34 0 0 Z " fill="#FFFFFF" transform="translate(223,7)"/>
<path d="M0 0 C1.98 0 3.96 0 6 0 C6 0.33 6 0.66 6 1 C4.02 1 2.04 1 0 1 C0 0.67 0 0.34 0 0 Z " fill="#FFFFFF" transform="translate(171,7)"/>
<path d="M0 0 C1.65 0 3.3 0 5 0 C5 0.33 5 0.66 5 1 C3.35 1 1.7 1 0 1 C0 0.67 0 0.34 0 0 Z " fill="#FFFFFF" transform="translate(230,391)"/>
<path d="M0 0 C1.65 0 3.3 0 5 0 C5 0.33 5 0.66 5 1 C3.35 1 1.7 1 0 1 C0 0.67 0 0.34 0 0 Z " fill="#FFFFFF" transform="translate(165,391)"/>
<path d="M0 0 C0.33 0 0.66 0 1 0 C1 1.65 1 3.3 1 5 C0.67 5 0.34 5 0 5 C0 3.35 0 1.7 0 0 Z " fill="#FFFFFF" transform="translate(391,229)"/>
<path d="M0 0 C0.33 0 0.66 0 1 0 C1 1.65 1 3.3 1 5 C0.67 5 0.34 5 0 5 C0 3.35 0 1.7 0 0 Z " fill="#FFFFFF" transform="translate(8,229)"/>
<path d="M0 0 C0.33 0 0.66 0 1 0 C1 1.65 1 3.3 1 5 C0.67 5 0.34 5 0 5 C0 3.35 0 1.7 0 0 Z " fill="#FFFFFF" transform="translate(391,166)"/>
<path d="M0 0 C0.33 0 0.66 0 1 0 C1 1.65 1 3.3 1 5 C0.67 5 0.34 5 0 5 C0 3.35 0 1.7 0 0 Z " fill="#FFFFFF" transform="translate(8,166)"/>
<path d="M0 0 C0.66 0.33 1.32 0.66 2 1 C0.68 1.33 -0.64 1.66 -2 2 C-1.34 1.34 -0.68 0.68 0 0 Z " fill="#FFFFFF" transform="translate(129,18)"/>
<path d="M0 0 C1.65 0 3.3 0 5 0 C5 0.33 5 0.66 5 1 C3.35 1 1.7 1 0 1 C0 0.67 0 0.34 0 0 Z " fill="#FFFFFF" transform="translate(229,8)"/>
<path d="M0 0 C4 1 4 1 4 1 Z " fill="#FFFFFF" transform="translate(235,390)"/>
<path d="M0 0 C4 1 4 1 4 1 Z " fill="#FFFFFF" transform="translate(161,390)"/>
<path d="M0 0 C0.66 0.33 1.32 0.66 2 1 C1.01 1 0.02 1 -1 1 C-0.67 0.67 -0.34 0.34 0 0 Z " fill="#FFFFFF" transform="translate(282,375)"/>
<path d="M0 0 C0.99 0.33 1.98 0.66 3 1 C2.01 1 1.02 1 0 1 C0 0.67 0 0.34 0 0 Z " fill="#FFFFFF" transform="translate(116,375)"/>
<path d="M0 0 C1 4 1 4 1 4 Z " fill="#FFFFFF" transform="translate(388,245)"/>
<path d="M0 0 C1 4 1 4 1 4 Z " fill="#FFFFFF" transform="translate(11,245)"/>
<path d="M0 0 C1 4 1 4 1 4 Z " fill="#FFFFFF" transform="translate(388,151)"/>
<path d="M0 0 C1 4 1 4 1 4 Z " fill="#FFFFFF" transform="translate(11,151)"/>
<path d="M0 0 C0.99 0.33 1.98 0.66 3 1 C2.01 1 1.02 1 0 1 C0 0.67 0 0.34 0 0 Z " fill="#FFFFFF" transform="translate(287,26)"/>
<path d="M0 0 C0.66 0.33 1.32 0.66 2 1 C1.01 1 0.02 1 -1 1 C-0.67 0.67 -0.34 0.34 0 0 Z " fill="#FFFFFF" transform="translate(111,26)"/>
<path d="M0 0 C4 1 4 1 4 1 Z " fill="#FFFFFF" transform="translate(245,11)"/>
<path d="M0 0 C4 1 4 1 4 1 Z " fill="#FFFFFF" transform="translate(151,11)"/>
<path d="M0 0 C4 1 4 1 4 1 Z " fill="#FFFFFF" transform="translate(241,10)"/>
<path d="M0 0 C4 1 4 1 4 1 Z " fill="#FFFFFF" transform="translate(155,10)"/>
<path d="M0 0 C4 1 4 1 4 1 Z " fill="#FFFFFF" transform="translate(167,8)"/>
<path d="M0 0 C3 1 3 1 3 1 Z " fill="#FFFFFF" transform="translate(231,399)"/>
<path d="M0 0 C3 1 3 1 3 1 Z " fill="#FFFFFF" transform="translate(166,399)"/>
<path d="M0 0 C3 1 3 1 3 1 Z " fill="#FFFFFF" transform="translate(246,388)"/>
<path d="M0 0 C3 1 3 1 3 1 Z " fill="#FFFFFF" transform="translate(151,388)"/>
<path d="M0 0 C3 1 3 1 3 1 Z " fill="#FFFFFF" transform="translate(249,387)"/>
<path d="M0 0 C3 1 3 1 3 1 Z " fill="#FFFFFF" transform="translate(148,387)"/>
<path d="M0 0 C0.66 0.66 1.32 1.32 2 2 C1.34 2 0.68 2 0 2 C0 1.34 0 0.68 0 0 Z " fill="#FFFFFF" transform="translate(109,371)"/>
<path d="M0 0 C0.33 0.66 0.66 1.32 1 2 C0.34 1.67 -0.32 1.34 -1 1 C-0.67 0.67 -0.34 0.34 0 0 Z " fill="#FFFFFF" transform="translate(290,371)"/>
<path d="M0 0 C0.66 0.66 1.32 1.32 2 2 C1.34 2 0.68 2 0 2 C0 1.34 0 0.68 0 0 Z " fill="#FFFFFF" transform="translate(27,289)"/>
<path d="M0 0 C0.33 0.66 0.66 1.32 1 2 C0.34 1.67 -0.32 1.34 -1 1 C-0.67 0.67 -0.34 0.34 0 0 Z " fill="#FFFFFF" transform="translate(372,289)"/>
<path d="" fill="#FFFFFF" transform="translate(0,0)"/>
<path d="" fill="#FFFFFF" transform="translate(0,0)"/>
<path d="" fill="#FFFFFF" transform="translate(0,0)"/>
<path d="" fill="#FFFFFF" transform="translate(0,0)"/>
<path d="" fill="#FFFFFF" transform="translate(0,0)"/>
<path d="" fill="#FFFFFF" transform="translate(0,0)"/>
<path d="" fill="#FFFFFF" transform="translate(0,0)"/>
<path d="" fill="#FFFFFF" transform="translate(0,0)"/>
<path d="" fill="#FFFFFF" transform="translate(0,0)"/>
<path d="" fill="#FFFFFF" transform="translate(0,0)"/>
<path d="" fill="#FFFFFF" transform="translate(0,0)"/>
<path d="" fill="#FFFFFF" transform="translate(0,0)"/>
<path d="" fill="#FFFFFF" transform="translate(0,0)"/>
<path d="" fill="#FFFFFF" transform="translate(0,0)"/>
<path d="" fill="#FFFFFF" transform="translate(0,0)"/>
<path d="" fill="#FFFFFF" transform="translate(0,0)"/>
<path d="" fill="#FFFFFF" transform="translate(0,0)"/>
<path d="" fill="#FFFFFF" transform="translate(0,0)"/>
<path d="" fill="#FFFFFF" transform="translate(0,0)"/>
<path d="" fill="#FFFFFF" transform="translate(0,0)"/>
<path d="M0 0 C0.66 0 1.32 0 2 0 C1.67 0.66 1.34 1.32 1 2 C0.67 1.34 0.34 0.68 0 0 Z " fill="#FFFFFF" transform="translate(371,109)"/>
<path d="M0 0 C0.99 0.495 0.99 0.495 2 1 C1.01 1.495 1.01 1.495 0 2 C0 1.34 0 0.68 0 0 Z " fill="#FFFFFF" transform="translate(27,109)"/>
<path d="M0 0 C3 1 3 1 3 1 Z " fill="#FFFFFF" transform="translate(238,9)"/>
<path d="M0 0 C3 1 3 1 3 1 Z " fill="#FFFFFF" transform="translate(159,9)"/>
<path d="M0 0 C3 1 3 1 3 1 Z " fill="#FFFFFF" transform="translate(230,0)"/>
<path d="M0 0 C3 1 3 1 3 1 Z " fill="#FFFFFF" transform="translate(167,0)"/>
<path d="M0 0 C2 1 2 1 2 1 Z " fill="#FFFFFF" transform="translate(236,398)"/>
<path d="M0 0 C2 1 2 1 2 1 Z " fill="#FFFFFF" transform="translate(162,398)"/>
<path d="M0 0 C2 1 2 1 2 1 Z " fill="#FFFFFF" transform="translate(250,395)"/>
<path d="M0 0 C2 1 2 1 2 1 Z " fill="#FFFFFF" transform="translate(148,395)"/>
<path d="M0 0 C2 1 2 1 2 1 Z " fill="#FFFFFF" transform="translate(266,390)"/>
<path d="M0 0 C2 1 2 1 2 1 Z " fill="#FFFFFF" transform="translate(243,389)"/>
<path d="M0 0 C2 1 2 1 2 1 Z " fill="#FFFFFF" transform="translate(155,389)"/>
<path d="M0 0 C2 1 2 1 2 1 Z " fill="#FFFFFF" transform="translate(274,387)"/>
<path d="M0 0 C2 1 2 1 2 1 Z " fill="#FFFFFF" transform="translate(124,387)"/>
<path d="M0 0 C2 1 2 1 2 1 Z " fill="#FFFFFF" transform="translate(252,386)"/>
<path d="M0 0 C2 1 2 1 2 1 Z " fill="#FFFFFF" transform="translate(146,386)"/>
<path d="M0 0 C2 1 2 1 2 1 Z " fill="#FFFFFF" transform="translate(258,385)"/>
<path d="M0 0 C2 1 2 1 2 1 Z " fill="#FFFFFF" transform="translate(140,385)"/>
<path d="M0 0 C2 1 2 1 2 1 Z " fill="#FFFFFF" transform="translate(271,380)"/>
<path d="M0 0 C2 1 2 1 2 1 Z " fill="#FFFFFF" transform="translate(127,380)"/>
<path d="M0 0 C2 1 2 1 2 1 Z " fill="#FFFFFF" transform="translate(273,379)"/>
<path d="M0 0 C2 1 2 1 2 1 Z " fill="#FFFFFF" transform="translate(125,379)"/>
<path d="" fill="#FFFFFF" transform="translate(0,0)"/>
<path d="" fill="#FFFFFF" transform="translate(0,0)"/>
<path d="M0 0 C2 1 2 1 2 1 Z " fill="#FFFFFF" transform="translate(367,297)"/>
<path d="M0 0 C2 1 2 1 2 1 Z " fill="#FFFFFF" transform="translate(31,297)"/>
<path d="" fill="#FFFFFF" transform="translate(0,0)"/>
<path d="" fill="#FFFFFF" transform="translate(0,0)"/>
<path d="" fill="#FFFFFF" transform="translate(0,0)"/>
<path d="" fill="#FFFFFF" transform="translate(0,0)"/>
<path d="" fill="#FFFFFF" transform="translate(0,0)"/>
<path d="" fill="#FFFFFF" transform="translate(0,0)"/>
<path d="" fill="#FFFFFF" transform="translate(0,0)"/>
<path d="" fill="#FFFFFF" transform="translate(0,0)"/>
<path d="" fill="#FFFFFF" transform="translate(0,0)"/>
<path d="" fill="#FFFFFF" transform="translate(0,0)"/>
<path d="" fill="#FFFFFF" transform="translate(0,0)"/>
<path d="" fill="#FFFFFF" transform="translate(0,0)"/>
<path d="" fill="#FFFFFF" transform="translate(0,0)"/>
<path d="" fill="#FFFFFF" transform="translate(0,0)"/>
<path d="" fill="#FFFFFF" transform="translate(0,0)"/>
<path d="" fill="#FFFFFF" transform="translate(0,0)"/>
<path d="" fill="#FFFFFF" transform="translate(0,0)"/>
<path d="" fill="#FFFFFF" transform="translate(0,0)"/>
<path d="" fill="#FFFFFF" transform="translate(0,0)"/>
<path d="" fill="#FFFFFF" transform="translate(0,0)"/>
<path d="" fill="#FFFFFF" transform="translate(0,0)"/>
<path d="" fill="#FFFFFF" transform="translate(0,0)"/>
<path d="" fill="#FFFFFF" transform="translate(0,0)"/>
<path d="" fill="#FFFFFF" transform="translate(0,0)"/>
<path d="" fill="#FFFFFF" transform="translate(0,0)"/>
<path d="" fill="#FFFFFF" transform="translate(0,0)"/>
<path d="" fill="#FFFFFF" transform="translate(0,0)"/>
<path d="" fill="#FFFFFF" transform="translate(0,0)"/>
<path d="" fill="#FFFFFF" transform="translate(0,0)"/>
<path d="" fill="#FFFFFF" transform="translate(0,0)"/>
<path d="" fill="#FFFFFF" transform="translate(0,0)"/>
<path d="" fill="#FFFFFF" transform="translate(0,0)"/>
<path d="" fill="#FFFFFF" transform="translate(0,0)"/>
<path d="" fill="#FFFFFF" transform="translate(0,0)"/>
<path d="" fill="#FFFFFF" transform="translate(0,0)"/>
<path d="" fill="#FFFFFF" transform="translate(0,0)"/>
<path d="" fill="#FFFFFF" transform="translate(0,0)"/>
<path d="" fill="#FFFFFF" transform="translate(0,0)"/>
<path d="" fill="#FFFFFF" transform="translate(0,0)"/>
<path d="" fill="#FFFFFF" transform="translate(0,0)"/>
<path d="" fill="#FFFFFF" transform="translate(0,0)"/>
<path d="" fill="#FFFFFF" transform="translate(0,0)"/>
<path d="" fill="#FFFFFF" transform="translate(0,0)"/>
<path d="" fill="#FFFFFF" transform="translate(0,0)"/>
<path d="" fill="#FFFFFF" transform="translate(0,0)"/>
<path d="" fill="#FFFFFF" transform="translate(0,0)"/>
<path d="" fill="#FFFFFF" transform="translate(0,0)"/>
<path d="" fill="#FFFFFF" transform="translate(0,0)"/>
<path d="" fill="#FFFFFF" transform="translate(0,0)"/>
<path d="" fill="#FFFFFF" transform="translate(0,0)"/>
<path d="" fill="#FFFFFF" transform="translate(0,0)"/>
<path d="" fill="#FFFFFF" transform="translate(0,0)"/>
<path d="M0 0 C2 1 2 1 2 1 Z " fill="#FFFFFF" transform="translate(367,102)"/>
<path d="M0 0 C2 1 2 1 2 1 Z " fill="#FFFFFF" transform="translate(31,102)"/>
<path d="" fill="#FFFFFF" transform="translate(0,0)"/>
<path d="" fill="#FFFFFF" transform="translate(0,0)"/>
<path d="" fill="#FFFFFF" transform="translate(0,0)"/>
<path d="" fill="#FFFFFF" transform="translate(0,0)"/>
<path d="M0 0 C2 1 2 1 2 1 Z " fill="#FFFFFF" transform="translate(280,23)"/>
<path d="M0 0 C2 1 2 1 2 1 Z " fill="#FFFFFF" transform="translate(118,23)"/>
<path d="M0 0 C2 1 2 1 2 1 Z " fill="#FFFFFF" transform="translate(278,22)"/>
<path d="M0 0 C2 1 2 1 2 1 Z " fill="#FFFFFF" transform="translate(120,22)"/>
<path d="M0 0 C2 1 2 1 2 1 Z " fill="#FFFFFF" transform="translate(271,19)"/>
<path d="M0 0 C2 1 2 1 2 1 Z " fill="#FFFFFF" transform="translate(269,18)"/>
<path d="M0 0 C2 1 2 1 2 1 Z " fill="#FFFFFF" transform="translate(267,17)"/>
<path d="M0 0 C2 1 2 1 2 1 Z " fill="#FFFFFF" transform="translate(131,17)"/>
<path d="M0 0 C2 1 2 1 2 1 Z " fill="#FFFFFF" transform="translate(262,16)"/>
<path d="M0 0 C2 1 2 1 2 1 Z " fill="#FFFFFF" transform="translate(136,16)"/>
<path d="M0 0 C2 1 2 1 2 1 Z " fill="#FFFFFF" transform="translate(255,13)"/>
<path d="M0 0 C2 1 2 1 2 1 Z " fill="#FFFFFF" transform="translate(143,13)"/>
<path d="M0 0 C2 1 2 1 2 1 Z " fill="#FFFFFF" transform="translate(249,12)"/>
<path d="M0 0 C2 1 2 1 2 1 Z " fill="#FFFFFF" transform="translate(149,12)"/>
<path d="M0 0 C2 1 2 1 2 1 Z " fill="#FFFFFF" transform="translate(263,8)"/>
<path d="M0 0 C2 1 2 1 2 1 Z " fill="#FFFFFF" transform="translate(135,8)"/>
<path d="M0 0 C2 1 2 1 2 1 Z " fill="#FFFFFF" transform="translate(246,3)"/>
<path d="M0 0 C2 1 2 1 2 1 Z " fill="#FFFFFF" transform="translate(152,3)"/>
<path d="" fill="#FFFFFF" transform="translate(0,0)"/>
<path d="" fill="#FFFFFF" transform="translate(0,0)"/>
<path d="" fill="#FFFFFF" transform="translate(0,0)"/>
<path d="" fill="#FFFFFF" transform="translate(0,0)"/>
<path d="" fill="#FFFFFF" transform="translate(0,0)"/>
<path d="" fill="#FFFFFF" transform="translate(0,0)"/>
<path d="" fill="#FFFFFF" transform="translate(0,0)"/>
<path d="" fill="#FFFFFF" transform="translate(0,0)"/>
<path d="" fill="#FFFFFF" transform="translate(0,0)"/>
<path d="" fill="#FFFFFF" transform="translate(0,0)"/>
<path d="" fill="#FFFFFF" transform="translate(0,0)"/>
<path d="" fill="#FFFFFF" transform="translate(0,0)"/>
<path d="" fill="#FFFFFF" transform="translate(0,0)"/>
<path d="" fill="#FFFFFF" transform="translate(0,0)"/>
<path d="" fill="#FFFFFF" transform="translate(0,0)"/>
<path d="" fill="#FFFFFF" transform="translate(0,0)"/>
<path d="" fill="#FFFFFF" transform="translate(0,0)"/>
<path d="" fill="#FFFFFF" transform="translate(0,0)"/>
<path d="" fill="#FFFFFF" transform="translate(0,0)"/>
<path d="" fill="#FFFFFF" transform="translate(0,0)"/>
<path d="" fill="#FFFFFF" transform="translate(0,0)"/>
<path d="" fill="#FFFFFF" transform="translate(0,0)"/>
<path d="" fill="#FFFFFF" transform="translate(0,0)"/>
<path d="" fill="#FFFFFF" transform="translate(0,0)"/>
<path d="" fill="#FFFFFF" transform="translate(0,0)"/>
<path d="" fill="#FFFFFF" transform="translate(0,0)"/>
<path d="" fill="#FFFFFF" transform="translate(0,0)"/>
<path d="" fill="#FFFFFF" transform="translate(0,0)"/>
<path d="" fill="#FFFFFF" transform="translate(0,0)"/>
<path d="" fill="#FFFFFF" transform="translate(0,0)"/>
<path d="" fill="#FFFFFF" transform="translate(0,0)"/>
<path d="" fill="#FFFFFF" transform="translate(0,0)"/>
<path d="" fill="#FFFFFF" transform="translate(0,0)"/>
<path d="" fill="#FFFFFF" transform="translate(0,0)"/>
<path d="" fill="#FFFFFF" transform="translate(0,0)"/>
<path d="" fill="#FFFFFF" transform="translate(0,0)"/>
<path d="" fill="#FFFFFF" transform="translate(0,0)"/>
<path d="" fill="#FFFFFF" transform="translate(0,0)"/>
<path d="" fill="#FFFFFF" transform="translate(0,0)"/>
<path d="" fill="#FFFFFF" transform="translate(0,0)"/>
<path d="" fill="#FFFFFF" transform="translate(0,0)"/>
<path d="" fill="#FFFFFF" transform="translate(0,0)"/>
<path d="" fill="#FFFFFF" transform="translate(0,0)"/>
<path d="" fill="#FFFFFF" transform="translate(0,0)"/>
<path d="" fill="#FFFFFF" transform="translate(0,0)"/>
<path d="" fill="#FFFFFF" transform="translate(0,0)"/>
<path d="" fill="#FFFFFF" transform="translate(0,0)"/>
<path d="" fill="#FFFFFF" transform="translate(0,0)"/>
<path d="" fill="#FFFFFF" transform="translate(0,0)"/>
<path d="" fill="#FFFFFF" transform="translate(0,0)"/>
<path d="" fill="#FFFFFF" transform="translate(0,0)"/>
<path d="" fill="#FFFFFF" transform="translate(0,0)"/>
<path d="" fill="#FFFFFF" transform="translate(0,0)"/>
<path d="" fill="#FFFFFF" transform="translate(0,0)"/>
<path d="" fill="#FFFFFF" transform="translate(0,0)"/>
<path d="" fill="#FFFFFF" transform="translate(0,0)"/>
<path d="" fill="#FFFFFF" transform="translate(0,0)"/>
<path d="" fill="#FFFFFF" transform="translate(0,0)"/>
<path d="" fill="#FFFFFF" transform="translate(0,0)"/>
<path d="" fill="#FFFFFF" transform="translate(0,0)"/>
<path d="" fill="#FFFFFF" transform="translate(0,0)"/>
<path d="" fill="#FFFFFF" transform="translate(0,0)"/>
<path d="" fill="#FFFFFF" transform="translate(0,0)"/>
<path d="" fill="#FFFFFF" transform="translate(0,0)"/>
<path d="" fill="#FFFFFF" transform="translate(0,0)"/>
<path d="" fill="#FFFFFF" transform="translate(0,0)"/>
<path d="" fill="#FFFFFF" transform="translate(0,0)"/>
<path d="" fill="#FFFFFF" transform="translate(0,0)"/>
<path d="" fill="#FFFFFF" transform="translate(0,0)"/>
<path d="" fill="#FFFFFF" transform="translate(0,0)"/>
<path d="" fill="#FFFFFF" transform="translate(0,0)"/>
<path d="" fill="#FFFFFF" transform="translate(0,0)"/>
<path d="" fill="#FFFFFF" transform="translate(0,0)"/>
<path d="" fill="#FFFFFF" transform="translate(0,0)"/>
<path d="" fill="#FFFFFF" transform="translate(0,0)"/>
<path d="" fill="#FFFFFF" transform="translate(0,0)"/>
<path d="" fill="#FFFFFF" transform="translate(0,0)"/>
<path d="" fill="#FFFFFF" transform="translate(0,0)"/>
<path d="" fill="#FFFFFF" transform="translate(0,0)"/>
<path d="" fill="#FFFFFF" transform="translate(0,0)"/>
<path d="" fill="#FFFFFF" transform="translate(0,0)"/>
<path d="" fill="#FFFFFF" transform="translate(0,0)"/>
<path d="" fill="#FFFFFF" transform="translate(0,0)"/>
<path d="" fill="#FFFFFF" transform="translate(0,0)"/>
<path d="" fill="#FFFFFF" transform="translate(0,0)"/>
<path d="" fill="#FFFFFF" transform="translate(0,0)"/>
<path d="" fill="#FFFFFF" transform="translate(0,0)"/>
<path d="" fill="#FFFFFF" transform="translate(0,0)"/>
<path d="" fill="#FFFFFF" transform="translate(0,0)"/>
<path d="" fill="#FFFFFF" transform="translate(0,0)"/>
<path d="" fill="#FFFFFF" transform="translate(0,0)"/>
<path d="" fill="#FFFFFF" transform="translate(0,0)"/>
<path d="" fill="#FFFFFF" transform="translate(0,0)"/>
<path d="" fill="#FFFFFF" transform="translate(0,0)"/>
<path d="" fill="#FFFFFF" transform="translate(0,0)"/>
<path d="" fill="#FFFFFF" transform="translate(0,0)"/>
<path d="" fill="#FFFFFF" transform="translate(0,0)"/>
<path d="" fill="#FFFFFF" transform="translate(0,0)"/>
<path d="" fill="#FFFFFF" transform="translate(0,0)"/>
<path d="" fill="#FFFFFF" transform="translate(0,0)"/>
<path d="" fill="#FFFFFF" transform="translate(0,0)"/>
<path d="" fill="#FFFFFF" transform="translate(0,0)"/>
<path d="" fill="#FFFFFF" transform="translate(0,0)"/>
<path d="" fill="#FFFFFF" transform="translate(0,0)"/>
<path d="" fill="#FFFFFF" transform="translate(0,0)"/>
<path d="" fill="#FFFFFF" transform="translate(0,0)"/>
<path d="" fill="#FFFFFF" transform="translate(0,0)"/>
<path d="" fill="#FFFFFF" transform="translate(0,0)"/>
<path d="" fill="#FFFFFF" transform="translate(0,0)"/>
<path d="" fill="#FFFFFF" transform="translate(0,0)"/>
<path d="" fill="#FFFFFF" transform="translate(0,0)"/>
<path d="" fill="#FFFFFF" transform="translate(0,0)"/>
<path d="" fill="#FFFFFF" transform="translate(0,0)"/>
<path d="" fill="#FFFFFF" transform="translate(0,0)"/>
<path d="" fill="#FFFFFF" transform="translate(0,0)"/>
<path d="" fill="#FFFFFF" transform="translate(0,0)"/>
<path d="" fill="#FFFFFF" transform="translate(0,0)"/>
<path d="" fill="#FFFFFF" transform="translate(0,0)"/>
<path d="" fill="#FFFFFF" transform="translate(0,0)"/>
<path d="" fill="#FFFFFF" transform="translate(0,0)"/>
<path d="" fill="#FFFFFF" transform="translate(0,0)"/>
<path d="" fill="#FFFFFF" transform="translate(0,0)"/>
<path d="" fill="#FFFFFF" transform="translate(0,0)"/>
<path d="" fill="#FFFFFF" transform="translate(0,0)"/>
<path d="" fill="#FFFFFF" transform="translate(0,0)"/>
<path d="" fill="#FFFFFF" transform="translate(0,0)"/>
<path d="" fill="#FFFFFF" transform="translate(0,0)"/>
<path d="" fill="#FFFFFF" transform="translate(0,0)"/>
<path d="" fill="#FFFFFF" transform="translate(0,0)"/>
<path d="" fill="#FFFFFF" transform="translate(0,0)"/>
<path d="" fill="#FFFFFF" transform="translate(0,0)"/>
<path d="" fill="#FFFFFF" transform="translate(0,0)"/>
<path d="" fill="#FFFFFF" transform="translate(0,0)"/>
<path d="" fill="#FFFFFF" transform="translate(0,0)"/>
<path d="" fill="#FFFFFF" transform="translate(0,0)"/>
<path d="" fill="#FFFFFF" transform="translate(0,0)"/>
<path d="" fill="#FFFFFF" transform="translate(0,0)"/>
<path d="" fill="#FFFFFF" transform="translate(0,0)"/>
<path d="" fill="#FFFFFF" transform="translate(0,0)"/>
<path d="" fill="#FFFFFF" transform="translate(0,0)"/>
<path d="" fill="#FFFFFF" transform="translate(0,0)"/>
<path d="" fill="#FFFFFF" transform="translate(0,0)"/>
<path d="" fill="#FFFFFF" transform="translate(0,0)"/>
<path d="" fill="#FFFFFF" transform="translate(0,0)"/>
<path d="" fill="#FFFFFF" transform="translate(0,0)"/>
<path d="" fill="#FFFFFF" transform="translate(0,0)"/>
<path d="" fill="#FFFFFF" transform="translate(0,0)"/>
<path d="" fill="#FFFFFF" transform="translate(0,0)"/>
<path d="" fill="#FFFFFF" transform="translate(0,0)"/>
<path d="" fill="#FFFFFF" transform="translate(0,0)"/>
<path d="" fill="#FFFFFF" transform="translate(0,0)"/>
<path d="" fill="#FFFFFF" transform="translate(0,0)"/>
<path d="" fill="#FFFFFF" transform="translate(0,0)"/>
<path d="" fill="#FFFFFF" transform="translate(0,0)"/>
<path d="" fill="#FFFFFF" transform="translate(0,0)"/>
<path d="" fill="#FFFFFF" transform="translate(0,0)"/>
<path d="" fill="#FFFFFF" transform="translate(0,0)"/>
<path d="" fill="#FFFFFF" transform="translate(0,0)"/>
<path d="" fill="#FFFFFF" transform="translate(0,0)"/>
<path d="" fill="#FFFFFF" transform="translate(0,0)"/>
<path d="" fill="#FFFFFF" transform="translate(0,0)"/>
<path d="" fill="#FFFFFF" transform="translate(0,0)"/>
<path d="" fill="#FFFFFF" transform="translate(0,0)"/>
<path d="" fill="#FFFFFF" transform="translate(0,0)"/>
<path d="" fill="#FFFFFF" transform="translate(0,0)"/>
<path d="" fill="#FFFFFF" transform="translate(0,0)"/>
<path d="" fill="#FFFFFF" transform="translate(0,0)"/>
<path d="" fill="#FFFFFF" transform="translate(0,0)"/>
<path d="" fill="#FFFFFF" transform="translate(0,0)"/>
<path d="" fill="#FFFFFF" transform="translate(0,0)"/>
<path d="" fill="#FFFFFF" transform="translate(0,0)"/>
<path d="" fill="#FFFFFF" transform="translate(0,0)"/>
<path d="" fill="#FFFFFF" transform="translate(0,0)"/>
<path d="" fill="#FFFFFF" transform="translate(0,0)"/>
<path d="" fill="#FFFFFF" transform="translate(0,0)"/>
<path d="" fill="#FFFFFF" transform="translate(0,0)"/>
<path d="" fill="#FFFFFF" transform="translate(0,0)"/>
<path d="" fill="#FFFFFF" transform="translate(0,0)"/>
<path d="" fill="#FFFFFF" transform="translate(0,0)"/>
<path d="" fill="#FFFFFF" transform="translate(0,0)"/>
<path d="" fill="#FFFFFF" transform="translate(0,0)"/>
<path d="" fill="#FFFFFF" transform="translate(0,0)"/>
<path d="" fill="#FFFFFF" transform="translate(0,0)"/>
<path d="" fill="#FFFFFF" transform="translate(0,0)"/>
<path d="" fill="#FFFFFF" transform="translate(0,0)"/>
<path d="" fill="#FFFFFF" transform="translate(0,0)"/>
<path d="" fill="#FFFFFF" transform="translate(0,0)"/>
<path d="" fill="#FFFFFF" transform="translate(0,0)"/>
<path d="" fill="#FFFFFF" transform="translate(0,0)"/>
<path d="" fill="#FFFFFF" transform="translate(0,0)"/>
<path d="" fill="#FFFFFF" transform="translate(0,0)"/>
<path d="" fill="#FFFFFF" transform="translate(0,0)"/>
<path d="" fill="#FFFFFF" transform="translate(0,0)"/>
<path d="" fill="#FFFFFF" transform="translate(0,0)"/>
<path d="" fill="#FFFFFF" transform="translate(0,0)"/>
<path d="" fill="#FFFFFF" transform="translate(0,0)"/>
<path d="" fill="#FFFFFF" transform="translate(0,0)"/>
<path d="" fill="#FFFFFF" transform="translate(0,0)"/>
<path d="" fill="#FFFFFF" transform="translate(0,0)"/>
<path d="" fill="#FFFFFF" transform="translate(0,0)"/>
<path d="" fill="#FFFFFF" transform="translate(0,0)"/>
<path d="" fill="#FFFFFF" transform="translate(0,0)"/>
<path d="" fill="#FFFFFF" transform="translate(0,0)"/>
<path d="" fill="#FFFFFF" transform="translate(0,0)"/>
<path d="" fill="#FFFFFF" transform="translate(0,0)"/>
<path d="" fill="#FFFFFF" transform="translate(0,0)"/>
<path d="" fill="#FFFFFF" transform="translate(0,0)"/>
<path d="" fill="#FFFFFF" transform="translate(0,0)"/>
<path d="" fill="#FFFFFF" transform="translate(0,0)"/>
<path d="" fill="#FFFFFF" transform="translate(0,0)"/>
<path d="" fill="#FFFFFF" transform="translate(0,0)"/>
<path d="" fill="#FFFFFF" transform="translate(0,0)"/>
<path d="" fill="#FFFFFF" transform="translate(0,0)"/>
<path d="" fill="#FFFFFF" transform="translate(0,0)"/>
<path d="" fill="#FFFFFF" transform="translate(0,0)"/>
<path d="" fill="#FFFFFF" transform="translate(0,0)"/>
<path d="" fill="#FFFFFF" transform="translate(0,0)"/>
<path d="" fill="#FFFFFF" transform="translate(0,0)"/>
<path d="" fill="#FFFFFF" transform="translate(0,0)"/>
<path d="" fill="#FFFFFF" transform="translate(0,0)"/>
<path d="" fill="#FFFFFF" transform="translate(0,0)"/>
<path d="" fill="#FFFFFF" transform="translate(0,0)"/>
<path d="" fill="#FFFFFF" transform="translate(0,0)"/>
<path d="" fill="#FFFFFF" transform="translate(0,0)"/>
<path d="" fill="#FFFFFF" transform="translate(0,0)"/>
<path d="" fill="#FFFFFF" transform="translate(0,0)"/>
<path d="" fill="#FFFFFF" transform="translate(0,0)"/>
<path d="" fill="#FFFFFF" transform="translate(0,0)"/>
<path d="" fill="#FFFFFF" transform="translate(0,0)"/>
<path d="" fill="#FFFFFF" transform="translate(0,0)"/>
<path d="" fill="#FFFFFF" transform="translate(0,0)"/>
<path d="" fill="#FFFFFF" transform="translate(0,0)"/>
<path d="" fill="#FFFFFF" transform="translate(0,0)"/>
<path d="" fill="#FFFFFF" transform="translate(0,0)"/>
<path d="" fill="#FFFFFF" transform="translate(0,0)"/>
<path d="" fill="#FFFFFF" transform="translate(0,0)"/>
<path d="" fill="#FFFFFF" transform="translate(0,0)"/>
<path d="" fill="#FFFFFF" transform="translate(0,0)"/>
<path d="" fill="#FFFFFF" transform="translate(0,0)"/>
<path d="" fill="#FFFFFF" transform="translate(0,0)"/>
<path d="" fill="#FFFFFF" transform="translate(0,0)"/>
<path d="" fill="#FFFFFF" transform="translate(0,0)"/>
<path d="" fill="#FFFFFF" transform="translate(0,0)"/>
<path d="" fill="#FFFFFF" transform="translate(0,0)"/>
<path d="" fill="#FFFFFF" transform="translate(0,0)"/>
<path d="" fill="#FFFFFF" transform="translate(0,0)"/>
<path d="" fill="#FFFFFF" transform="translate(0,0)"/>
<path d="" fill="#FFFFFF" transform="translate(0,0)"/>
<path d="" fill="#FFFFFF" transform="translate(0,0)"/>
<path d="" fill="#FFFFFF" transform="translate(0,0)"/>
<path d="" fill="#FFFFFF" transform="translate(0,0)"/>
<path d="" fill="#FFFFFF" transform="translate(0,0)"/>
<path d="" fill="#FFFFFF" transform="translate(0,0)"/>
<path d="" fill="#FFFFFF" transform="translate(0,0)"/>
<path d="" fill="#FFFFFF" transform="translate(0,0)"/>
<path d="" fill="#FFFFFF" transform="translate(0,0)"/>
<path d="" fill="#FFFFFF" transform="translate(0,0)"/>
<path d="" fill="#FFFFFF" transform="translate(0,0)"/>
<path d="" fill="#FFFFFF" transform="translate(0,0)"/>
<path d="" fill="#FFFFFF" transform="translate(0,0)"/>
<path d="" fill="#FFFFFF" transform="translate(0,0)"/>
<path d="" fill="#FFFFFF" transform="translate(0,0)"/>
<path d="" fill="#FFFFFF" transform="translate(0,0)"/>
<path d="" fill="#FFFFFF" transform="translate(0,0)"/>
<path d="" fill="#FFFFFF" transform="translate(0,0)"/>
<path d="" fill="#FFFFFF" transform="translate(0,0)"/>
<path d="" fill="#FFFFFF" transform="translate(0,0)"/>
<path d="" fill="#FFFFFF" transform="translate(0,0)"/>
<path d="" fill="#FFFFFF" transform="translate(0,0)"/>
<path d="" fill="#FFFFFF" transform="translate(0,0)"/>
<path d="" fill="#FFFFFF" transform="translate(0,0)"/>
<path d="" fill="#FFFFFF" transform="translate(0,0)"/>
<path d="" fill="#FFFFFF" transform="translate(0,0)"/>
<path d="" fill="#FFFFFF" transform="translate(0,0)"/>
<path d="" fill="#FFFFFF" transform="translate(0,0)"/>
<path d="" fill="#FFFFFF" transform="translate(0,0)"/>
<path d="" fill="#FFFFFF" transform="translate(0,0)"/>
<path d="" fill="#FFFFFF" transform="translate(0,0)"/>
<path d="" fill="#FFFFFF" transform="translate(0,0)"/>
<path d="" fill="#FFFFFF" transform="translate(0,0)"/>
<path d="" fill="#FFFFFF" transform="translate(0,0)"/>
<path d="" fill="#FFFFFF" transform="translate(0,0)"/>
<path d="" fill="#FFFFFF" transform="translate(0,0)"/>
<path d="" fill="#FFFFFF" transform="translate(0,0)"/>
<path d="" fill="#FFFFFF" transform="translate(0,0)"/>
<path d="" fill="#FFFFFF" transform="translate(0,0)"/>
<path d="" fill="#FFFFFF" transform="translate(0,0)"/>
<path d="" fill="#FFFFFF" transform="translate(0,0)"/>
<path d="" fill="#FFFFFF" transform="translate(0,0)"/>
<path d="" fill="#FFFFFF" transform="translate(0,0)"/>
<path d="" fill="#FFFFFF" transform="translate(0,0)"/>
<path d="" fill="#FFFFFF" transform="translate(0,0)"/>
<path d="" fill="#FFFFFF" transform="translate(0,0)"/>
<path d="" fill="#FFFFFF" transform="translate(0,0)"/>
<path d="" fill="#FFFFFF" transform="translate(0,0)"/>
<path d="" fill="#FFFFFF" transform="translate(0,0)"/>
<path d="" fill="#FFFFFF" transform="translate(0,0)"/>
<path d="" fill="#FFFFFF" transform="translate(0,0)"/>
<path d="" fill="#FFFFFF" transform="translate(0,0)"/>
<path d="" fill="#FFFFFF" transform="translate(0,0)"/>
<path d="" fill="#FFFFFF" transform="translate(0,0)"/>
<path d="" fill="#FFFFFF" transform="translate(0,0)"/>
<path d="" fill="#FFFFFF" transform="translate(0,0)"/>
<path d="" fill="#FFFFFF" transform="translate(0,0)"/>
<path d="" fill="#FFFFFF" transform="translate(0,0)"/>
<path d="" fill="#FFFFFF" transform="translate(0,0)"/>
<path d="" fill="#FFFFFF" transform="translate(0,0)"/>
<path d="" fill="#FFFFFF" transform="translate(0,0)"/>
<path d="" fill="#FFFFFF" transform="translate(0,0)"/>
<path d="" fill="#FFFFFF" transform="translate(0,0)"/>
<path d="" fill="#FFFFFF" transform="translate(0,0)"/>
<path d="" fill="#FFFFFF" transform="translate(0,0)"/>
<path d="" fill="#FFFFFF" transform="translate(0,0)"/>
<path d="" fill="#FFFFFF" transform="translate(0,0)"/>
<path d="" fill="#FFFFFF" transform="translate(0,0)"/>
<path d="" fill="#FFFFFF" transform="translate(0,0)"/>
<path d="" fill="#FFFFFF" transform="translate(0,0)"/>
<path d="" fill="#FFFFFF" transform="translate(0,0)"/>
<path d="" fill="#FFFFFF" transform="translate(0,0)"/>
<path d="" fill="#FFFFFF" transform="translate(0,0)"/>
<path d="" fill="#FFFFFF" transform="translate(0,0)"/>
<path d="" fill="#FFFFFF" transform="translate(0,0)"/>
<path d="" fill="#FFFFFF" transform="translate(0,0)"/>
<path d="" fill="#FFFFFF" transform="translate(0,0)"/>
<path d="" fill="#FFFFFF" transform="translate(0,0)"/>
<path d="" fill="#FFFFFF" transform="translate(0,0)"/>
<path d="" fill="#FFFFFF" transform="translate(0,0)"/>
<path d="" fill="#FFFFFF" transform="translate(0,0)"/>
<path d="" fill="#FFFFFF" transform="translate(0,0)"/>
<path d="" fill="#FFFFFF" transform="translate(0,0)"/>
<path d="" fill="#FFFFFF" transform="translate(0,0)"/>
<path d="" fill="#FFFFFF" transform="translate(0,0)"/>
<path d="" fill="#FFFFFF" transform="translate(0,0)"/>
<path d="" fill="#FFFFFF" transform="translate(0,0)"/>
<path d="" fill="#FFFFFF" transform="translate(0,0)"/>
<path d="" fill="#FFFFFF" transform="translate(0,0)"/>
<path d="" fill="#FFFFFF" transform="translate(0,0)"/>
<path d="" fill="#FFFFFF" transform="translate(0,0)"/>
<path d="" fill="#FFFFFF" transform="translate(0,0)"/>
<path d="" fill="#FFFFFF" transform="translate(0,0)"/>
<path d="" fill="#FFFFFF" transform="translate(0,0)"/>
<path d="" fill="#FFFFFF" transform="translate(0,0)"/>
<path d="" fill="#FFFFFF" transform="translate(0,0)"/>
<path d="" fill="#FFFFFF" transform="translate(0,0)"/>
<path d="" fill="#FFFFFF" transform="translate(0,0)"/>
<path d="" fill="#FFFFFF" transform="translate(0,0)"/>
<path d="" fill="#FFFFFF" transform="translate(0,0)"/>
<path d="" fill="#FFFFFF" transform="translate(0,0)"/>
<path d="" fill="#FFFFFF" transform="translate(0,0)"/>
<path d="" fill="#FFFFFF" transform="translate(0,0)"/>
<path d="" fill="#FFFFFF" transform="translate(0,0)"/>
<path d="" fill="#FFFFFF" transform="translate(0,0)"/>
<path d="" fill="#FFFFFF" transform="translate(0,0)"/>
<path d="" fill="#FFFFFF" transform="translate(0,0)"/>
<path d="" fill="#FFFFFF" transform="translate(0,0)"/>
<path d="" fill="#FFFFFF" transform="translate(0,0)"/>
<path d="" fill="#FFFFFF" transform="translate(0,0)"/>
<path d="" fill="#FFFFFF" transform="translate(0,0)"/>
<path d="" fill="#FFFFFF" transform="translate(0,0)"/>
<path d="" fill="#FFFFFF" transform="translate(0,0)"/>
<path d="" fill="#FFFFFF" transform="translate(0,0)"/>
<path d="" fill="#FFFFFF" transform="translate(0,0)"/>
<path d="" fill="#FFFFFF" transform="translate(0,0)"/>
<path d="" fill="#FFFFFF" transform="translate(0,0)"/>
<path d="" fill="#FFFFFF" transform="translate(0,0)"/>
<path d="" fill="#FFFFFF" transform="translate(0,0)"/>
<path d="" fill="#FFFFFF" transform="translate(0,0)"/>
<path d="" fill="#FFFFFF" transform="translate(0,0)"/>
<path d="" fill="#FFFFFF" transform="translate(0,0)"/>
<path d="" fill="#FFFFFF" transform="translate(0,0)"/>
<path d="" fill="#FFFFFF" transform="translate(0,0)"/>
<path d="" fill="#FFFFFF" transform="translate(0,0)"/>
<path d="" fill="#FFFFFF" transform="translate(0,0)"/>
<path d="" fill="#FFFFFF" transform="translate(0,0)"/>
<path d="" fill="#FFFFFF" transform="translate(0,0)"/>
<path d="" fill="#FFFFFF" transform="translate(0,0)"/>
<path d="" fill="#FFFFFF" transform="translate(0,0)"/>
<path d="" fill="#FFFFFF" transform="translate(0,0)"/>
<path d="" fill="#FFFFFF" transform="translate(0,0)"/>
<path d="" fill="#FFFFFF" transform="translate(0,0)"/>
<path d="" fill="#FFFFFF" transform="translate(0,0)"/>
<path d="" fill="#FFFFFF" transform="translate(0,0)"/>
<path d="" fill="#FFFFFF" transform="translate(0,0)"/>
<path d="" fill="#FFFFFF" transform="translate(0,0)"/>
<path d="" fill="#FFFFFF" transform="translate(0,0)"/>
<path d="" fill="#FFFFFF" transform="translate(0,0)"/>
<path d="" fill="#FFFFFF" transform="translate(0,0)"/>
<path d="" fill="#FFFFFF" transform="translate(0,0)"/>
<path d="" fill="#FFFFFF" transform="translate(0,0)"/>
<path d="" fill="#FFFFFF" transform="translate(0,0)"/>
<path d="" fill="#FFFFFF" transform="translate(0,0)"/>
<path d="" fill="#FFFFFF" transform="translate(0,0)"/>
<path d="" fill="#FFFFFF" transform="translate(0,0)"/>
<path d="" fill="#FFFFFF" transform="translate(0,0)"/>
<path d="" fill="#FFFFFF" transform="translate(0,0)"/>
<path d="" fill="#FFFFFF" transform="translate(0,0)"/>
<path d="" fill="#FFFFFF" transform="translate(0,0)"/>
<path d="" fill="#FFFFFF" transform="translate(0,0)"/>
<path d="" fill="#FFFFFF" transform="translate(0,0)"/>
<path d="" fill="#FFFFFF" transform="translate(0,0)"/>
<path d="" fill="#FFFFFF" transform="translate(0,0)"/>
<path d="" fill="#FFFFFF" transform="translate(0,0)"/>
<path d="" fill="#FFFFFF" transform="translate(0,0)"/>
<path d="" fill="#FFFFFF" transform="translate(0,0)"/>
<path d="" fill="#FFFFFF" transform="translate(0,0)"/>
<path d="" fill="#FFFFFF" transform="translate(0,0)"/>
<path d="" fill="#FFFFFF" transform="translate(0,0)"/>
<path d="" fill="#FFFFFF" transform="translate(0,0)"/>
<path d="" fill="#FFFFFF" transform="translate(0,0)"/>
<path d="" fill="#FFFFFF" transform="translate(0,0)"/>
<path d="" fill="#FFFFFF" transform="translate(0,0)"/>
<path d="" fill="#FFFFFF" transform="translate(0,0)"/>
<path d="" fill="#FFFFFF" transform="translate(0,0)"/>
<path d="" fill="#FFFFFF" transform="translate(0,0)"/>
<path d="" fill="#FFFFFF" transform="translate(0,0)"/>
<path d="" fill="#FFFFFF" transform="translate(0,0)"/>
<path d="" fill="#FFFFFF" transform="translate(0,0)"/>
<path d="" fill="#FFFFFF" transform="translate(0,0)"/>
<path d="" fill="#FFFFFF" transform="translate(0,0)"/>
<path d="" fill="#FFFFFF" transform="translate(0,0)"/>
<path d="" fill="#FFFFFF" transform="translate(0,0)"/>
<path d="" fill="#FFFFFF" transform="translate(0,0)"/>
<path d="" fill="#FFFFFF" transform="translate(0,0)"/>
<path d="" fill="#FFFFFF" transform="translate(0,0)"/>
<path d="" fill="#FFFFFF" transform="translate(0,0)"/>
<path d="" fill="#FFFFFF" transform="translate(0,0)"/>
<path d="" fill="#FFFFFF" transform="translate(0,0)"/>
<path d="" fill="#FFFFFF" transform="translate(0,0)"/>
<path d="" fill="#FFFFFF" transform="translate(0,0)"/>
<path d="" fill="#FFFFFF" transform="translate(0,0)"/>
<path d="" fill="#FFFFFF" transform="translate(0,0)"/>
<path d="" fill="#FFFFFF" transform="translate(0,0)"/>
<path d="" fill="#FFFFFF" transform="translate(0,0)"/>
<path d="" fill="#FFFFFF" transform="translate(0,0)"/>
<path d="" fill="#FFFFFF" transform="translate(0,0)"/>
<path d="" fill="#FFFFFF" transform="translate(0,0)"/>
<path d="" fill="#FFFFFF" transform="translate(0,0)"/>
<path d="" fill="#FFFFFF" transform="translate(0,0)"/>
<path d="" fill="#FFFFFF" transform="translate(0,0)"/>
<path d="" fill="#FFFFFF" transform="translate(0,0)"/>
<path d="" fill="#FFFFFF" transform="translate(0,0)"/>
<path d="" fill="#FFFFFF" transform="translate(0,0)"/>
<path d="" fill="#FFFFFF" transform="translate(0,0)"/>
<path d="" fill="#FFFFFF" transform="translate(0,0)"/>
<path d="" fill="#FFFFFF" transform="translate(0,0)"/>
<path d="" fill="#FFFFFF" transform="translate(0,0)"/>
<path d="" fill="#FFFFFF" transform="translate(0,0)"/>
<path d="" fill="#FFFFFF" transform="translate(0,0)"/>
<path d="" fill="#FFFFFF" transform="translate(0,0)"/>
<path d="" fill="#FFFFFF" transform="translate(0,0)"/>
<path d="" fill="#FFFFFF" transform="translate(0,0)"/>
<path d="" fill="#FFFFFF" transform="translate(0,0)"/>
<path d="" fill="#FFFFFF" transform="translate(0,0)"/>
<path d="" fill="#FFFFFF" transform="translate(0,0)"/>
<path d="" fill="#FFFFFF" transform="translate(0,0)"/>
<path d="" fill="#FFFFFF" transform="translate(0,0)"/>
<path d="" fill="#FFFFFF" transform="translate(0,0)"/>
<path d="" fill="#FFFFFF" transform="translate(0,0)"/>
<path d="" fill="#FFFFFF" transform="translate(0,0)"/>
<path d="" fill="#FFFFFF" transform="translate(0,0)"/>
<path d="" fill="#FFFFFF" transform="translate(0,0)"/>
<path d="" fill="#FFFFFF" transform="translate(0,0)"/>
<path d="" fill="#FFFFFF" transform="translate(0,0)"/>
<path d="" fill="#FFFFFF" transform="translate(0,0)"/>
<path d="" fill="#FFFFFF" transform="translate(0,0)"/>
<path d="" fill="#FFFFFF" transform="translate(0,0)"/>
<path d="" fill="#FFFFFF" transform="translate(0,0)"/>
<path d="" fill="#FFFFFF" transform="translate(0,0)"/>
<path d="" fill="#FFFFFF" transform="translate(0,0)"/>
<path d="" fill="#FFFFFF" transform="translate(0,0)"/>
<path d="" fill="#FFFFFF" transform="translate(0,0)"/>
<path d="" fill="#FFFFFF" transform="translate(0,0)"/>
<path d="" fill="#FFFFFF" transform="translate(0,0)"/>
<path d="" fill="#FFFFFF" transform="translate(0,0)"/>
<path d="" fill="#FFFFFF" transform="translate(0,0)"/>
<path d="" fill="#FFFFFF" transform="translate(0,0)"/>
<path d="" fill="#FFFFFF" transform="translate(0,0)"/>
<path d="" fill="#FFFFFF" transform="translate(0,0)"/>
<path d="" fill="#FFFFFF" transform="translate(0,0)"/>
<path d="" fill="#FFFFFF" transform="translate(0,0)"/>
<path d="" fill="#FFFFFF" transform="translate(0,0)"/>
<path d="" fill="#FFFFFF" transform="translate(0,0)"/>
<path d="" fill="#FFFFFF" transform="translate(0,0)"/>
<path d="" fill="#FFFFFF" transform="translate(0,0)"/>
<path d="" fill="#FFFFFF" transform="translate(0,0)"/>
<path d="" fill="#FFFFFF" transform="translate(0,0)"/>
<path d="" fill="#FFFFFF" transform="translate(0,0)"/>
<path d="" fill="#FFFFFF" transform="translate(0,0)"/>
<path d="" fill="#FFFFFF" transform="translate(0,0)"/>
<path d="" fill="#FFFFFF" transform="translate(0,0)"/>
<path d="" fill="#FFFFFF" transform="translate(0,0)"/>
<path d="" fill="#FFFFFF" transform="translate(0,0)"/>
<path d="" fill="#FFFFFF" transform="translate(0,0)"/>
<path d="" fill="#FFFFFF" transform="translate(0,0)"/>
<path d="" fill="#FFFFFF" transform="translate(0,0)"/>
<path d="" fill="#FFFFFF" transform="translate(0,0)"/>
<path d="" fill="#FFFFFF" transform="translate(0,0)"/>
<path d="" fill="#FFFFFF" transform="translate(0,0)"/>
<path d="" fill="#FFFFFF" transform="translate(0,0)"/>
<path d="" fill="#FFFFFF" transform="translate(0,0)"/>
<path d="" fill="#FFFFFF" transform="translate(0,0)"/>
<path d="" fill="#FFFFFF" transform="translate(0,0)"/>
<path d="" fill="#FFFFFF" transform="translate(0,0)"/>
<path d="" fill="#FFFFFF" transform="translate(0,0)"/>
<path d="" fill="#FFFFFF" transform="translate(0,0)"/>
<path d="" fill="#FFFFFF" transform="translate(0,0)"/>
<path d="" fill="#FFFFFF" transform="translate(0,0)"/>
<path d="" fill="#FFFFFF" transform="translate(0,0)"/>
<path d="" fill="#FFFFFF" transform="translate(0,0)"/>
<path d="" fill="#FFFFFF" transform="translate(0,0)"/>
<path d="" fill="#FFFFFF" transform="translate(0,0)"/>
<path d="" fill="#FFFFFF" transform="translate(0,0)"/>
<path d="" fill="#FFFFFF" transform="translate(0,0)"/>
<path d="" fill="#FFFFFF" transform="translate(0,0)"/>
<path d="" fill="#FFFFFF" transform="translate(0,0)"/>
<path d="" fill="#FFFFFF" transform="translate(0,0)"/>
<path d="" fill="#FFFFFF" transform="translate(0,0)"/>
<path d="" fill="#FFFFFF" transform="translate(0,0)"/>
<path d="" fill="#FFFFFF" transform="translate(0,0)"/>
<path d="" fill="#FFFFFF" transform="translate(0,0)"/>
<path d="" fill="#FFFFFF" transform="translate(0,0)"/>
<path d="" fill="#FFFFFF" transform="translate(0,0)"/>
<path d="" fill="#FFFFFF" transform="translate(0,0)"/>
<path d="" fill="#FFFFFF" transform="translate(0,0)"/>
<path d="" fill="#FFFFFF" transform="translate(0,0)"/>
<path d="" fill="#FFFFFF" transform="translate(0,0)"/>
<path d="" fill="#FFFFFF" transform="translate(0,0)"/>
<path d="" fill="#FFFFFF" transform="translate(0,0)"/>
<path d="" fill="#FFFFFF" transform="translate(0,0)"/>
<path d="" fill="#FFFFFF" transform="translate(0,0)"/>
<path d="" fill="#FFFFFF" transform="translate(0,0)"/>
<path d="" fill="#FFFFFF" transform="translate(0,0)"/>
<path d="" fill="#FFFFFF" transform="translate(0,0)"/>
<path d="" fill="#FFFFFF" transform="translate(0,0)"/>
<path d="" fill="#FFFFFF" transform="translate(0,0)"/>
<path d="" fill="#FFFFFF" transform="translate(0,0)"/>
<path d="" fill="#FFFFFF" transform="translate(0,0)"/>
<path d="" fill="#FFFFFF" transform="translate(0,0)"/>
<path d="" fill="#FFFFFF" transform="translate(0,0)"/>
<path d="" fill="#FFFFFF" transform="translate(0,0)"/>
<path d="" fill="#FFFFFF" transform="translate(0,0)"/>
<path d="" fill="#FFFFFF" transform="translate(0,0)"/>
<path d="" fill="#FFFFFF" transform="translate(0,0)"/>
<path d="" fill="#FFFFFF" transform="translate(0,0)"/>
<path d="" fill="#FFFFFF" transform="translate(0,0)"/>
<path d="" fill="#FFFFFF" transform="translate(0,0)"/>
<path d="" fill="#FFFFFF" transform="translate(0,0)"/>
<path d="" fill="#FFFFFF" transform="translate(0,0)"/>
<path d="" fill="#FFFFFF" transform="translate(0,0)"/>
<path d="" fill="#FFFFFF" transform="translate(0,0)"/>
<path d="" fill="#FFFFFF" transform="translate(0,0)"/>
<path d="" fill="#FFFFFF" transform="translate(0,0)"/>
<path d="" fill="#FFFFFF" transform="translate(0,0)"/>
<path d="" fill="#FFFFFF" transform="translate(0,0)"/>
<path d="" fill="#FFFFFF" transform="translate(0,0)"/>
<path d="" fill="#FFFFFF" transform="translate(0,0)"/>
<path d="" fill="#FFFFFF" transform="translate(0,0)"/>
<path d="" fill="#FFFFFF" transform="translate(0,0)"/>
<path d="" fill="#FFFFFF" transform="translate(0,0)"/>
<path d="" fill="#FFFFFF" transform="translate(0,0)"/>
<path d="" fill="#FFFFFF" transform="translate(0,0)"/>
<path d="" fill="#FFFFFF" transform="translate(0,0)"/>
<path d="" fill="#FFFFFF" transform="translate(0,0)"/>
<path d="" fill="#FFFFFF" transform="translate(0,0)"/>
<path d="" fill="#FFFFFF" transform="translate(0,0)"/>
<path d="" fill="#FFFFFF" transform="translate(0,0)"/>
<path d="" fill="#FFFFFF" transform="translate(0,0)"/>
<path d="" fill="#FFFFFF" transform="translate(0,0)"/>
<path d="" fill="#FFFFFF" transform="translate(0,0)"/>
<path d="" fill="#FFFFFF" transform="translate(0,0)"/>
<path d="" fill="#FFFFFF" transform="translate(0,0)"/>
<path d="" fill="#FFFFFF" transform="translate(0,0)"/>
</svg>
