<?xml version="1.0" encoding="UTF-8"?>
<svg version="1.1" xmlns="http://www.w3.org/2000/svg" width="270" height="270">
<path d="M0 0 C13.18887177 9.18795228 24.11481202 22.54733919 27.54248047 38.61523438 C30.35345151 57.05639895 28.60932094 74.90475561 17.8359375 90.4765625 C7.8516728 103.70115651 -5.3470559 114.11143965 -22.08984375 117.02734375 C-44.27903149 118.45655138 -61.32678137 116.24563998 -78.77734375 101.46484375 C-91.28174498 89.51980246 -98.08742258 74.74398708 -98.67724609 57.4621582 C-98.89594213 37.48271305 -93.55111388 22.23101095 -79.734375 7.44921875 C-71.78463282 0.16880494 -62.45747832 -5.02051624 -52.08984375 -7.97265625 C-51.20244507 -8.23308716 -51.20244507 -8.23308716 -50.29711914 -8.4987793 C-33.07992693 -12.19511489 -14.78606413 -9.21450373 0 0 Z " fill="#FEFEFE" transform="translate(170.08984375,58.97265625)"/>
<path d="M0 0 C0.9590625 0.495 0.9590625 0.495 1.9375 1 C5.02674463 2.49781558 7.61372053 2.23763365 11 2 C12.672233 1.34742127 14.33927151 0.68132451 16 0 C20.12482668 -0.60153722 21.48000766 -0.38434216 24.875 2.125 C27 5 27 5 27.6875 8 C26.90099135 11.43203773 25.61956525 13.06075492 22.7890625 15.16015625 C18.82375662 17.02159897 14.90838905 15.30279635 11 14 C5.77481065 13.58525849 5.77481065 13.58525849 0.9375 15.0625 C-2.23973301 16.59987081 -4.67388953 15.8466463 -8 15 C-10.55078958 12.77834456 -10.93332671 11.39170557 -11.5 8.0625 C-10.44452427 1.59771114 -6.25955825 -0.93227463 0 0 Z " fill="#4C4C4C" transform="translate(127,98)"/>
<path d="M0 0 C0.66 0 1.32 0 2 0 C2.33 0.66 2.66 1.32 3 2 C6.3 2 9.6 2 13 2 C13.33 2.66 13.66 3.32 14 4 C12.68 3.67 11.36 3.34 10 3 C10 4.98 10 6.96 10 9 C11.32 8.67 12.64 8.34 14 8 C13.67 8.66 13.34 9.32 13 10 C8.71 10 4.42 10 0 10 C0 6.7 0 3.4 0 0 Z " fill="#B0B0B0" transform="translate(103,118)"/>
<path d="M0 0 C3 0.25 3 0.25 5 2.25 C5.25 5.25 5.25 5.25 5 8.25 C3 10.25 3 10.25 0 10.5 C-3 10.25 -3 10.25 -5 8.25 C-5.25 5.25 -5.25 5.25 -5 2.25 C-3 0.25 -3 0.25 0 0 Z " fill="#E6E6E6" transform="translate(146,100.75)"/>
<path d="M0 0 C3 0.25 3 0.25 5 2.25 C5.25 5.25 5.25 5.25 5 8.25 C3 10.25 3 10.25 0 10.5 C-3 10.25 -3 10.25 -5 8.25 C-5.25 5.25 -5.25 5.25 -5 2.25 C-3 0.25 -3 0.25 0 0 Z " fill="#E7E7E7" transform="translate(124,100.75)"/>
<path d="M0 0 C2.8125 0.4375 2.8125 0.4375 4.8125 2.4375 C2.8125 4.4375 2.8125 4.4375 -0.25 4.5 C-1.219375 4.479375 -2.18875 4.45875 -3.1875 4.4375 C-4.54368499 5.56284105 -4.54368499 5.56284105 -4.25 8.5 C-4.229375 9.469375 -4.20875 10.43875 -4.1875 11.4375 C-1.8775 12.0975 0.4325 12.7575 2.8125 13.4375 C2.4825 14.4275 2.1525 15.4175 1.8125 16.4375 C-4.59453902 15.95394989 -4.59453902 15.95394989 -7.125 13.75 C-8.5488395 10.6510552 -8.73903827 8.81567188 -8.1875 5.4375 C-5.63930098 1.98993662 -4.2925329 0.58917118 0 0 Z " fill="#5C5C5C" transform="translate(124.1875,97.5625)"/>
<path d="M0 0 C0.99 1.485 0.99 1.485 2 3 C2.5775 2.814375 3.155 2.62875 3.75 2.4375 C6.20692525 1.95976454 7.64397534 2.24270636 10 3 C10.04254356 4.99954746 10.04080783 7.00041636 10 9 C9 10 9 10 5.9375 10.0625 C4.968125 10.041875 3.99875 10.02125 3 10 C2.67 9.34 2.34 8.68 2 8 C1.34 8.66 0.68 9.32 0 10 C0 6.7 0 3.4 0 0 Z " fill="#C6C6C6" transform="translate(118,118)"/>
<path d="M0 0 C2.475 0.495 2.475 0.495 5 1 C6.04028969 4.38094149 6.15672777 7.47362528 6 11 C5.67 11.33 5.34 11.66 5 12 C3.35 12 1.7 12 0 12 C0 8.04 0 4.08 0 0 Z " fill="#A4A4A4" transform="translate(96,116)"/>
<path d="M0 0 C0.33 0.66 0.66 1.32 1 2 C3.31 2 5.62 2 8 2 C8 2.66 8 3.32 8 4 C8.66 4 9.32 4 10 4 C10.33 3.34 10.66 2.68 11 2 C10.67 4.64 10.34 7.28 10 10 C8.02 10 6.04 10 4 10 C3.67 7.69 3.34 5.38 3 3 C2.34 3 1.68 3 1 3 C1 4.98 1 6.96 1 9 C1.66 9.33 2.32 9.66 3 10 C2.01 10 1.02 10 0 10 C-1.125 2.25 -1.125 2.25 0 0 Z " fill="#8C8C8C" transform="translate(146,118)"/>
<path d="M0 0 C0.66 0 1.32 0 2 0 C2 1.32 2 2.64 2 4 C3.65 4 5.3 4 7 4 C7 5.32 7 6.64 7 8 C6.01 8 5.02 8 4 8 C4 8.99 4 9.98 4 11 C4.66 11 5.32 11 6 11 C6.33 10.34 6.66 9.68 7 9 C7 9.99 7 10.98 7 12 C4.36 12 1.72 12 -1 12 C-0.67 8.04 -0.34 4.08 0 0 Z " fill="#939393" transform="translate(137,116)"/>
<path d="M0 0 C3.875 1.75 3.875 1.75 5 4 C5.4375 6.8125 5.4375 6.8125 5 10 C2.13978221 13.05976787 0.35453122 14.85276835 -3.875 15.3125 C-4.926875 15.1578125 -4.926875 15.1578125 -6 15 C-6 14.01 -6 13.02 -6 12 C-3.69 11.34 -1.38 10.68 1 10 C1.08004482 6.4780279 1.04005702 3.38018531 0 0 Z " fill="#5A5A5A" transform="translate(149,99)"/>
<path d="M0 0 C0.66 0 1.32 0 2 0 C2.33 0.66 2.66 1.32 3 2 C4.32 2 5.64 2 7 2 C6.67 2.66 6.34 3.32 6 4 C5.34 3.67 4.68 3.34 4 3 C4 4.98 4 6.96 4 9 C4.99 8.67 5.98 8.34 7 8 C7 8.66 7 9.32 7 10 C4.69 10 2.38 10 0 10 C0 6.7 0 3.4 0 0 Z " fill="#9C9C9C" transform="translate(103,118)"/>
<path d="M0 0 C2.475 0.495 2.475 0.495 5 1 C5 2.98 5 4.96 5 7 C3.35 7.33 1.7 7.66 0 8 C0 5.36 0 2.72 0 0 Z " fill="#A8A8A8" transform="translate(158,120)"/>
<path d="M0 0 C0.99 0 1.98 0 3 0 C3.33 2.97 3.66 5.94 4 9 C2.02 9.99 2.02 9.99 0 11 C0 7.37 0 3.74 0 0 Z " fill="#909090" transform="translate(132,117)"/>
<path d="M0 0 C0.33 0 0.66 0 1 0 C1 3.3 1 6.6 1 10 C-0.65 9.67 -2.3 9.34 -4 9 C-4 7.02 -4 5.04 -4 3 C-3.01 2.67 -2.02 2.34 -1 2 C-0.67 1.34 -0.34 0.68 0 0 Z " fill="#E1E1E1" transform="translate(117,118)"/>
<path d="M0 0 C0.66 0 1.32 0 2 0 C3.88391785 3.26545761 4.49287967 6.28111761 5 10 C3.33333333 10 1.66666667 10 0 10 C0 6.7 0 3.4 0 0 Z " fill="#909090" transform="translate(169,118)"/>
<path d="M0 0 C0.66 0 1.32 0 2 0 C2.98248524 4.0527516 3.08159574 7.83861737 3 12 C1.68 12 0.36 12 -1 12 C-0.67 8.04 -0.34 4.08 0 0 Z " fill="#AAAAAA" transform="translate(137,116)"/>
<path d="M0 0 C0.98120464 3.05263664 0.98120464 4.94736336 0 8 C-1.32 7.67 -2.64 7.34 -4 7 C-3.34 5.35 -2.68 3.7 -2 2 C-1.34 2 -0.68 2 0 2 C0 1.34 0 0.68 0 0 Z " fill="#9D9D9D" transform="translate(156,120)"/>
<path d="M0 0 C1.98 0.495 1.98 0.495 4 1 C4 2.98 4 4.96 4 7 C3.67 6.34 3.34 5.68 3 5 C0.97536745 4.34786708 0.97536745 4.34786708 -1 4 C-0.67 2.68 -0.34 1.36 0 0 Z " fill="#989898" transform="translate(124,120)"/>
<path d="M0 0 C0.66 0 1.32 0 2 0 C2.433125 0.9590625 2.433125 0.9590625 2.875 1.9375 C3.82823451 4.15206079 3.82823451 4.15206079 6 5 C6 5.66 6 6.32 6 7 C1.125 6.125 1.125 6.125 0 5 C-0.04063832 3.33382885 -0.042721 1.66611905 0 0 Z " fill="#F0F0F0" transform="translate(119,104)"/>
<path d="M0 0 C1.32 0.66 2.64 1.32 4 2 C3.67 2.99 3.34 3.98 3 5 C1.35 4.67 -0.3 4.34 -2 4 C-1.34 2.68 -0.68 1.36 0 0 Z " fill="#565656" transform="translate(145,103)"/>
<path d="M0 0 C1.32 0.66 2.64 1.32 4 2 C3.67 2.99 3.34 3.98 3 5 C1.35 4.67 -0.3 4.34 -2 4 C-1.34 2.68 -0.68 1.36 0 0 Z " fill="#565656" transform="translate(123,103)"/>
<path d="M0 0 C1.67542976 0.28604898 3.34385343 0.61781233 5 1 C5.33 2.65 5.66 4.3 6 6 C5.34 6 4.68 6 4 6 C3.34 5.01 2.68 4.02 2 3 C1.01 2.34 0.02 1.68 -1 1 C-0.67 0.67 -0.34 0.34 0 0 Z " fill="#F1F1F1" transform="translate(145,101)"/>
<path d="M0 0 C0.99 1.485 0.99 1.485 2 3 C2.66 2.67 3.32 2.34 4 2 C3.6875 4.875 3.6875 4.875 3 8 C2.01 8.66 1.02 9.32 0 10 C0 6.7 0 3.4 0 0 Z " fill="#797979" transform="translate(118,118)"/>
<path d="M0 0 C0.66 0 1.32 0 2 0 C2 1.98 2 3.96 2 6 C0.35 6 -1.3 6 -3 6 C-3 5.01 -3 4.02 -3 3 C-2.01 3 -1.02 3 0 3 C0 2.01 0 1.02 0 0 Z " fill="#D9D9D9" transform="translate(144,121)"/>
</svg>
