<?xml version="1.0" standalone="no"?>
<!DOCTYPE svg PUBLIC "-//W3C//DTD SVG 20010904//EN"
 "http://www.w3.org/TR/2001/REC-SVG-20010904/DTD/svg10.dtd">
<svg version="1.0" xmlns="http://www.w3.org/2000/svg"
 width="1024.000000pt" height="1024.000000pt" viewBox="0 0 1024.000000 1024.000000"
 preserveAspectRatio="xMidYMid meet">

<g transform="translate(0.000000,1024.000000) scale(0.100000,-0.100000)"
fill="#000000" stroke="none">
<path d="M0 7725 l0 -2515 383 2 382 3 0 70 0 70 -317 3 -318 2 -1 48 c-1 26
-3 98 -5 160 l-3 112 44 0 c43 0 45 -1 45 -30 0 -24 -4 -30 -17 -28 -14 2 -19
-5 -21 -37 -2 -32 2 -43 19 -53 46 -29 49 -14 56 366 l6 352 84 0 83 0 0 95 0
95 158 0 c110 0 162 -4 170 -12 18 -18 16 -108 -3 -108 -10 0 -15 10 -14 33 0
27 2 29 9 12 7 -16 9 -12 9 20 1 38 1 39 -15 17 -8 -12 -22 -22 -30 -22 -11 0
-14 -13 -12 -57 l1 -58 7 55 7 55 1 -49 c2 -38 5 -47 17 -43 8 4 17 2 20 -3 3
-5 -3 -11 -12 -13 -15 -4 -15 -5 -2 -6 9 0 19 -9 21 -19 7 -26 -45 -24 -54 3
-4 13 -6 4 -7 -25 -1 -51 6 -65 33 -65 28 0 32 -23 5 -27 -12 -2 -24 -8 -26
-14 -2 -7 6 -10 22 -7 20 4 25 1 25 -16 0 -14 -6 -21 -20 -21 -13 0 -18 -5
-14 -15 4 -8 12 -15 20 -15 8 0 14 -4 14 -10 0 -5 -5 -10 -11 -10 -14 0 -39
25 -39 39 0 7 -53 11 -161 11 l-160 0 3 -27 3 -28 165 0 c128 0 164 -3 162
-13 -1 -9 5 -11 23 -6 19 5 25 2 25 -10 0 -14 -22 -16 -190 -16 l-190 0 0 -31
0 -32 164 8 c117 5 166 4 171 -5 4 -6 15 -8 26 -5 13 4 19 2 19 -8 0 -12 -37
-15 -202 -19 -112 -3 -204 -5 -206 -3 -1 1 -5 72 -9 158 -6 144 -8 157 -25
157 -17 0 -18 -14 -18 -273 0 -151 -3 -308 -6 -349 l-7 -74 -28 4 c-16 2 -40
1 -54 -2 -22 -6 -25 -12 -25 -48 l0 -41 168 6 c209 7 232 15 304 103 40 50 57
64 79 64 14 0 32 7 39 15 11 13 8 13 -19 4 -48 -17 -47 -5 2 35 l44 36 144 0
c79 -1 177 -3 217 -7 l72 -5 0 -44 0 -44 -189 0 c-142 0 -191 3 -195 13 -3 6
-5 3 -3 -7 2 -18 10 -19 123 -17 67 1 153 -1 192 -4 63 -7 71 -10 75 -31 3
-20 0 -23 -27 -26 l-31 -3 -1 -65 c-1 -64 -1 -64 3 -7 4 56 5 57 33 57 28 0
30 -3 30 -39 0 -21 3 -66 6 -100 7 -60 7 -61 -18 -61 -14 0 -40 -3 -57 -6
l-31 -6 0 -79 c0 -76 1 -79 24 -79 48 0 84 -12 89 -30 4 -15 -3 -19 -37 -24
l-41 -7 0 -80 c0 -87 7 -99 57 -99 l28 0 3 -297 2 -298 3 302 2 303 22 -4 23
-3 1 -264 c0 -145 2 -335 2 -421 l2 -158 86 0 c80 0 86 -1 92 -22 5 -21 6 -21
13 -2 6 15 8 12 8 -13 1 -18 -4 -33 -10 -33 -5 0 -8 4 -5 9 3 5 -1 11 -9 15
-9 3 -15 0 -15 -9 0 -12 -20 -15 -111 -15 l-111 0 3 130 c3 97 1 131 -8 135
-7 2 -13 11 -13 20 0 8 -4 15 -10 15 -14 0 -12 -12 5 -37 10 -15 15 -55 17
-144 l3 -124 113 -3 c69 -2 110 -6 107 -12 -3 -6 -1 -18 4 -27 8 -15 11 -15
12 -3 1 8 5 2 9 -15 7 -28 8 -27 10 15 2 39 4 33 15 -40 19 -121 32 -709 16
-738 -7 -12 -26 -29 -44 -37 -23 -10 -25 -13 -7 -8 14 3 42 16 62 29 31 20 38
31 42 66 12 90 13 91 15 11 l1 -83 -50 -32 -50 -33 0 -87 c0 -73 3 -91 18
-105 10 -10 50 -47 88 -83 38 -36 117 -111 177 -168 95 -91 111 -102 143 -102
31 0 44 -8 89 -55 l53 -55 211 0 c129 0 212 4 216 10 3 6 12 10 19 10 11 0
136 -131 199 -209 17 -21 24 -22 179 -20 139 1 162 -1 170 -15 5 -9 28 -26 51
-37 23 -12 78 -56 122 -98 157 -150 216 -201 252 -216 51 -22 55 -18 6 8 -23
12 -104 78 -179 147 l-138 125 50 7 c27 3 151 7 275 7 l226 1 39 -29 c21 -15
71 -57 109 -92 39 -35 106 -96 150 -134 44 -38 137 -125 208 -192 l127 -123
108 0 107 0 117 -107 c91 -84 114 -110 106 -121 -9 -11 -6 -11 18 -1 38 16 53
29 26 22 -17 -4 -47 18 -141 105 l-120 110 -109 3 -109 4 -144 135 c-127 119
-237 220 -401 368 l-48 42 36 0 c40 0 20 16 344 -291 249 -236 223 -219 340
-219 l98 0 97 -87 c154 -140 209 -181 203 -152 -2 6 36 27 84 47 l88 37 0 75
0 75 -151 114 c-82 62 -148 119 -146 125 2 6 24 25 49 41 97 63 195 124 243
150 l50 28 -32 -35 c-37 -38 -41 -50 -15 -42 14 5 15 4 2 -5 -8 -6 -22 -8 -32
-5 -15 4 -120 -53 -176 -97 l-23 -18 58 -41 c32 -22 77 -55 99 -73 23 -17 90
-67 150 -109 60 -43 144 -105 187 -138 52 -40 87 -60 106 -60 21 0 50 21 119
85 l92 85 95 0 94 0 148 117 c149 117 332 273 367 312 16 18 17 23 5 37 -8 10
-27 25 -44 36 -16 10 -25 18 -20 18 6 0 27 -11 47 -25 l36 -24 33 24 c92 66
155 95 207 95 28 0 52 -5 54 -11 5 -14 109 -19 157 -8 19 4 45 18 58 31 20 21
22 28 14 51 -8 20 -17 27 -38 27 -51 0 -57 14 -20 46 64 54 77 64 88 64 5 0 8
4 5 9 -3 5 9 15 27 22 31 12 113 68 167 113 15 12 -1 -5 -35 -37 -56 -54 -58
-57 -30 -52 52 10 54 11 62 20 4 4 2 5 -5 1 -7 -4 -4 7 6 26 11 18 27 32 36
32 8 -1 14 2 11 6 -4 7 44 55 80 79 11 8 3 -1 -18 -20 -27 -25 -35 -38 -28
-48 8 -13 12 -13 28 -1 39 30 -5 -10 -60 -54 -32 -26 -68 -51 -80 -56 -16 -6
-4 -9 45 -9 39 -1 70 4 74 10 4 8 9 7 15 -2 8 -12 11 -11 20 1 6 8 12 11 15 5
2 -6 38 -9 86 -7 88 3 122 12 45 12 -25 0 -48 4 -52 9 -3 6 25 29 62 54 71 45
194 145 347 280 50 43 118 92 152 108 35 17 71 42 80 57 10 15 48 59 86 99 49
52 66 77 62 90 -5 15 -4 15 4 3 9 -12 21 -4 69 41 32 30 77 70 101 89 l42 33
0 93 0 93 -27 4 -28 4 30 2 c30 3 30 3 5 11 -21 7 -22 8 -5 9 19 1 20 7 17
154 -3 111 -8 154 -17 159 -15 9 -12 81 4 86 7 2 8 88 4 253 -4 191 -3 249 6
249 7 0 10 4 6 10 -13 21 -6 245 9 288 8 23 11 42 6 42 -6 0 -10 9 -10 20 0
11 4 20 9 20 6 0 11 24 13 53 3 51 4 52 33 50 17 -1 146 0 287 4 252 5 257 6
261 27 4 18 6 17 18 -11 12 -30 17 -33 56 -33 l43 0 0 85 0 85 -54 0 -55 0 -4
-52 c-2 -29 -4 83 -5 250 l-2 302 178 1 c97 0 200 4 227 9 31 5 -35 7 -178 6
l-227 -1 0 51 0 51 257 2 c141 1 259 4 262 6 2 3 -112 5 -255 6 -142 1 -270 4
-284 8 -31 9 199 21 402 21 l148 0 2 -47 c0 -27 1 -55 2 -63 1 -8 19 -21 41
-28 24 -8 64 -36 100 -71 33 -32 71 -64 84 -71 13 -7 69 -16 124 -21 62 -5
104 -13 108 -21 12 -19 -57 -26 -268 -27 l-183 -1 0 -75 0 -75 208 -1 c114 0
230 -4 257 -9 28 -4 45 -8 38 -9 -7 0 -10 -7 -7 -15 7 -19 -45 -26 -193 -26
l-123 0 0 -75 0 -75 -95 0 -95 0 0 -1875 0 -1875 -527 -2 c-291 -1 -603 -1
-695 1 -121 3 -168 0 -168 -8 0 -11 199 -13 1090 -11 270 0 332 -5 299 -26 -8
-5 -577 -10 -1266 -12 l-1252 -4 -3 68 -3 69 -155 3 c-129 2 -157 5 -173 20
-18 16 -24 11 -153 -120 l-134 -137 0 -125 0 -126 360 0 360 0 0 40 0 39 -127
4 -128 3 128 2 127 2 0 55 0 55 -127 1 c-71 1 -162 5 -203 9 -44 4 64 7 265 7
187 1 365 -2 395 -5 48 -6 55 -10 54 -29 0 -29 -18 -35 -22 -8 -2 16 -10 20
-40 18 -20 -1 -99 -2 -174 -2 -116 -1 -138 -3 -138 -16 0 -8 6 -15 13 -15 9 0
12 -30 12 -118 l0 -117 -376 4 c-207 2 -386 0 -398 -4 -11 -3 -21 -11 -21 -17
0 -8 88 -9 308 -5 312 6 492 1 492 -14 0 -5 -47 -9 -105 -9 l-105 0 0 -80 0
-80 -70 0 c-39 0 -78 5 -88 11 -12 7 -144 8 -427 2 l-410 -8 3 -60 c1 -33 -2
-67 -8 -75 -7 -11 -10 10 -10 73 l0 87 425 0 424 0 0 70 0 70 -62 0 c-34 0
-126 -3 -204 -7 l-143 -6 0 -25 c0 -24 2 -25 48 -20 26 3 70 2 97 -2 43 -6 36
-8 -47 -9 -100 -1 -119 -9 -70 -28 l27 -11 -25 -2 c-14 -1 -124 -3 -245 -4
l-220 -1 -5 245 -5 245 -115 5 c-109 5 -115 6 -118 27 -4 25 39 93 85 134 28
26 29 26 243 33 l215 6 215 217 c118 119 193 198 165 175 -27 -22 -126 -118
-220 -212 l-170 -171 -214 1 -214 1 -117 -106 c-65 -58 -127 -113 -139 -121
-21 -15 -21 -21 -21 -265 l0 -249 76 0 c45 0 73 4 69 10 -3 5 -8 36 -12 70 -5
54 -4 60 13 60 17 0 19 -8 18 -83 -1 -45 -2 -126 -3 -179 -1 -58 -5 -98 -11
-98 -5 0 -10 25 -10 55 l0 55 -70 0 -70 0 0 -50 c0 -54 0 -54 94 -62 35 -4 48
-27 14 -26 -13 1 -29 6 -35 11 -9 7 -13 5 -13 -5 0 -22 -101 -28 -465 -28
-300 0 -384 7 -369 31 3 5 -4 9 -14 9 -11 0 -23 -7 -26 -16 -10 -27 -40 -12
-42 21 -4 57 -6 130 -4 138 5 16 8 28 9 38 0 5 6 7 11 4 6 -4 9 -14 8 -23 -3
-14 7 -17 62 -17 63 0 65 1 68 28 l3 27 -86 0 c-76 0 -86 2 -83 17 3 14 16 17
81 17 l78 1 -1 245 -1 245 -27 28 c-45 48 -221 191 -250 204 -18 8 -93 12
-225 13 l-198 0 -237 231 c-130 127 -246 236 -257 241 -15 8 -13 3 8 -19 15
-16 24 -32 20 -36 -3 -4 1 -7 10 -7 10 0 116 -97 236 -215 l219 -215 200 0
200 0 32 -26 c17 -14 51 -52 75 -84 l45 -58 1 -174 c1 -180 7 -235 24 -227 6
2 11 -22 13 -58 3 -56 1 -63 -16 -63 -17 0 -20 11 -26 92 -3 50 -6 164 -6 254
0 98 -4 165 -10 169 -5 3 -10 1 -10 -4 0 -6 -11 -11 -25 -11 l-24 0 0 -362
c-1 -198 -3 -363 -6 -366 -3 -3 -5 157 -5 356 l0 362 -85 0 -85 0 0 -245 0
-245 -215 0 -215 0 0 24 c0 15 -7 26 -17 29 -17 4 -17 5 0 6 11 1 17 9 17 26
0 25 0 25 -98 25 -55 0 -133 3 -175 6 l-77 7 0 -65 c0 -52 3 -67 17 -72 9 -4
20 -3 24 1 4 4 81 5 171 2 90 -4 256 -7 371 -8 146 -1 207 -4 207 -12 0 -9
-105 -11 -387 -9 -214 1 -422 0 -463 -2 l-75 -3 -3 76 -3 75 -109 0 -110 -1 0
-42 c0 -47 -8 -73 -22 -73 -6 0 -8 19 -6 45 2 25 0 45 -4 45 -5 0 -8 56 -8
125 l0 125 -114 0 -114 0 -1 -170 -1 -170 88 -1 c48 -1 112 -4 142 -9 42 -5
22 -8 -91 -9 -167 -1 -159 -6 -159 92 l0 47 -480 0 -480 0 0 -65 0 -65 84 0
c47 0 88 -5 91 -10 4 -7 -84 -9 -257 -8 -240 1 -251 2 -123 9 77 3 150 7 163
8 22 1 23 4 20 63 -2 47 -7 63 -18 64 -8 1 -136 2 -283 3 l-268 1 3 112 3 113
170 5 c161 5 173 6 222 32 76 40 124 49 218 37 44 -6 82 -13 85 -17 12 -16 64
-32 105 -32 24 0 47 -5 50 -10 4 -6 127 -10 336 -10 286 0 329 2 329 15 0 13
23 15 148 15 81 1 164 3 185 6 36 6 37 5 37 -26 0 -25 3 -31 16 -26 9 3 83 6
165 6 l150 0 -3 48 -3 47 -95 3 c-137 5 -243 -6 -236 -24 3 -8 1 -14 -4 -14
-6 0 -10 7 -10 15 0 12 -27 15 -157 17 -146 3 -159 2 -178 -17 -19 -19 -20
-19 -23 -1 -2 10 1 23 6 28 7 7 141 13 365 16 l353 5 0 -74 0 -74 -173 3 -173
3 0 -40 0 -41 320 0 320 0 0 128 -1 127 -145 139 -145 139 -23 -22 c-20 -19
-33 -21 -149 -21 l-126 0 -3 -67 -3 -68 -1240 -3 c-682 -1 -1255 0 -1273 3
-20 4 -32 11 -29 18 3 9 179 13 723 17 395 3 694 6 664 7 -149 6 -705 12
-1027 13 l-363 0 0 1875 0 1875 -85 0 -84 0 -3 73 -3 72 -292 3 -293 2 0
-2575 0 -2575 5120 0 5120 0 0 5120 0 5120 -5120 0 -5120 0 0 -2515z m5613
2153 c4 -79 7 -221 7 -315 0 -144 2 -173 14 -173 8 0 18 -5 22 -12 4 -7 3 -8
-4 -4 -7 4 -12 3 -12 -2 0 -5 26 -29 57 -53 32 -23 123 -110 203 -191 l145
-148 309 -7 c230 -4 307 -3 302 6 -5 8 -94 11 -310 11 l-304 0 -18 28 c-17 26
-17 27 1 12 15 -13 74 -15 391 -15 205 0 366 4 358 8 -16 9 -681 10 -695 1 -5
-3 -22 2 -39 11 -16 8 -30 12 -30 9 0 -4 -66 58 -148 138 -81 79 -158 152
-172 161 l-25 16 3 316 c2 306 3 315 22 315 19 0 20 -8 20 -305 l0 -306 37
-32 c20 -18 95 -85 167 -149 l130 -118 350 -2 c193 -2 353 -2 355 0 21 12 -58
15 -352 14 l-342 -3 -70 62 c-38 34 -111 101 -161 148 l-92 86 -5 303 -5 302
22 0 23 0 6 -292 c4 -161 10 -295 14 -299 5 -5 7 127 5 291 l-3 300 26 0 25 0
0 -249 c0 -137 3 -263 6 -281 5 -25 24 -46 78 -88 39 -31 104 -90 145 -132 41
-41 65 -61 52 -43 -12 17 -53 60 -92 95 -39 35 -93 83 -119 108 l-48 45 -7
273 -7 272 26 0 26 0 2 -257 3 -258 2 258 c3 249 4 257 23 257 19 0 20 -8 22
-267 2 -308 7 -291 10 37 3 192 5 225 18 225 13 0 16 -38 20 -266 l5 -265 76
-71 c90 -84 107 -89 270 -78 l109 7 -20 33 c-26 43 -26 96 1 121 19 17 41 19
302 19 l282 0 3 28 c2 15 2 28 0 29 -2 2 -230 5 -508 8 l-505 5 175 13 c96 7
318 13 492 13 175 0 325 2 333 5 9 4 15 19 15 40 l0 33 -392 2 c-216 0 -415 4
-443 8 l-50 8 65 3 65 3 -55 7 c-30 4 66 7 216 8 l271 2 -1 33 -1 34 -233 6
c-128 3 -237 9 -243 13 -30 18 31 24 286 24 154 0 317 3 363 7 82 6 83 6 80
32 l-3 26 -339 7 c-187 4 -341 10 -344 13 -3 3 -3 7 0 10 2 3 158 6 346 6
l342 1 0 39 0 39 -372 1 c-235 1 -345 5 -298 9 73 8 270 11 558 10 l142 0 0
-45 c0 -50 23 -64 34 -20 l6 25 265 0 265 0 0 -125 0 -125 220 0 c140 0 220
-4 220 -10 0 -6 -80 -10 -220 -10 l-220 0 0 -80 0 -80 218 0 218 0 -2 -122
c-1 -68 -2 -131 -3 -140 -1 -17 -23 -18 -311 -18 -220 0 -310 -3 -310 -11 0
-8 88 -10 313 -8 l312 4 3 -37 3 -38 -193 -2 -193 -3 188 -2 187 -3 2 -183 2
-182 6 180 c4 163 7 180 23 179 9 0 36 -1 60 -2 42 -2 43 -3 39 -32 -3 -18 0
-30 7 -30 6 0 11 17 11 40 l0 40 -65 0 -65 0 0 40 0 40 100 0 99 0 3 -57 3
-58 58 -3 c54 -3 58 -2 68 24 5 16 9 44 7 63 l-3 36 -57 3 -56 3 1 72 2 72
203 3 202 2 0 -105 0 -105 90 0 90 0 0 33 c0 17 3 56 6 85 6 49 8 52 35 52
l29 0 0 -85 0 -85 48 -1 c26 0 67 -4 92 -8 39 -7 32 -9 -47 -10 l-93 -1 0
-262 c0 -145 -3 -280 -6 -300 l-7 -38 180 0 c205 0 199 2 229 -89 l17 -53 91
3 c50 2 148 2 219 1 l127 -2 -1 -32 -1 -33 -8 30 -8 30 -1 -35 c-2 -28 -4 -31
-10 -15 -8 19 -16 20 -115 17 l-106 -3 0 -210 0 -209 115 0 c70 0 115 -4 115
-10 0 -6 -45 -10 -115 -10 l-115 0 0 -350 0 -350 -159 0 c-205 0 -200 -4 -202
138 -2 56 -5 102 -8 102 -3 0 -13 -5 -21 -10 -13 -9 -13 -12 3 -21 14 -8 17
-25 17 -92 0 -65 4 -87 20 -107 18 -25 22 -25 179 -28 l160 -3 6 -32 c3 -18 5
-106 3 -197 l-3 -165 -86 -3 -86 -3 -74 76 c-86 88 -106 102 -123 84 -8 -9 -8
-10 2 -5 8 5 43 -22 100 -78 l87 -85 90 -3 c89 -3 90 -3 90 -28 0 -24 -2 -25
-80 -28 -44 -2 -90 0 -102 3 -12 3 -57 38 -100 79 l-78 73 -170 5 c-93 3 -159
2 -145 -2 14 -5 88 -8 165 -9 l141 -1 49 -50 c28 -28 71 -64 96 -80 42 -27 54
-30 131 -30 l86 0 4 -77 c7 -123 23 -113 -181 -113 l-177 0 -69 72 c-39 40
-51 55 -27 33 48 -44 56 -39 15 10 -16 18 -41 49 -56 69 -25 33 -33 36 -80 38
l-52 1 55 7 c36 4 1 7 -105 7 -93 1 -150 -2 -135 -7 24 -8 24 -8 3 -9 l-22 -1
-3 -270 -3 -270 47 0 48 0 -4 -32 c-3 -18 -5 -36 -5 -40 -2 -21 -74 -5 -137
30 l-69 37 -6 105 -5 105 -2 -107 -2 -106 76 -41 c46 -25 89 -41 110 -41 38 0
37 2 35 -92 l-2 -68 73 -1 73 -2 -100 -9 c-55 -4 -110 -7 -122 -5 -13 3 -23 0
-23 -4 0 -5 24 -10 53 -11 l52 -1 -60 -6 c-55 -6 -51 -7 60 -14 154 -10 169
-14 70 -18 l-80 -3 80 -6 80 -6 -75 -2 c-42 -1 -81 -7 -87 -13 -7 -7 -57 -9
-141 -7 -108 2 -134 6 -149 20 -25 25 -10 32 29 13 29 -14 31 -14 13 0 -11 9
-28 21 -39 28 -10 7 -17 21 -15 31 4 15 9 14 47 -13 23 -17 42 -27 42 -23 0 5
-20 23 -44 42 -46 34 -61 55 -50 71 8 13 50 -12 112 -65 30 -25 58 -46 63 -46
15 0 -100 99 -143 124 -21 11 -38 29 -38 39 0 23 15 22 52 -4 16 -12 31 -19
34 -17 2 3 -11 16 -30 29 -19 13 -33 27 -30 30 2 4 -1 11 -7 15 -8 4 -9 3 -5
-4 4 -7 3 -12 -2 -12 -6 0 -12 60 -15 138 -3 75 -10 180 -16 232 -7 59 -9 224
-6 435 l5 340 -47 40 -48 40 42 -47 42 -47 -6 -398 c-3 -219 -7 -400 -9 -402
-22 -25 -32 114 -33 440 l-1 246 -30 44 c-16 24 -70 89 -121 144 -50 55 -121
138 -158 184 -36 46 -93 116 -126 155 -33 39 -92 109 -130 156 -39 47 -101
121 -139 165 -61 72 -138 167 -219 273 -16 20 -33 39 -40 41 -6 2 11 -25 39
-60 49 -63 78 -105 57 -84 -26 26 -123 155 -117 155 4 0 -3 11 -16 25 -13 14
-29 25 -36 25 -6 0 -18 8 -25 18 -13 16 -12 16 6 3 11 -7 -16 22 -60 65 -45
44 -93 94 -109 113 l-28 35 -141 -3 c-78 -1 -165 -4 -193 -6 -47 -3 -65 3
-220 78 -93 46 -188 91 -212 102 l-42 20 162 -3 c90 -2 161 -2 158 1 -3 3 -79
6 -170 8 -130 2 -177 6 -220 21 -30 10 -102 29 -160 42 -58 13 -158 38 -223
55 -67 17 -195 40 -294 51 -96 12 -202 30 -236 40 -34 11 -63 20 -64 20 -2 0
-3 -11 -3 -25 l0 -26 -92 3 -91 3 -2 45 c0 25 -2 94 -3 153 l-2 109 -72 -4
-73 -5 -3 -98 c-2 -54 -1 -114 3 -132 l6 -34 52 6 c43 5 49 4 33 -6 -32 -20
-114 -37 -281 -58 -108 -14 -245 -42 -420 -86 l-260 -65 -191 0 c-171 0 -193
-2 -205 -17 -11 -15 -11 -16 1 -5 10 9 65 12 205 11 l190 0 -45 -21 c-25 -12
-133 -64 -240 -115 -107 -51 -186 -86 -176 -78 11 8 25 15 30 16 6 1 0 5 -14
9 -14 4 -102 8 -196 9 l-170 1 -126 -132 c-69 -73 -160 -173 -203 -223 -92
-108 -197 -216 -203 -210 -5 5 176 210 243 275 26 25 53 57 61 72 17 34 -173
-162 -260 -267 -37 -44 -95 -114 -130 -155 -66 -78 -155 -189 -316 -395 -51
-66 -109 -138 -129 -161 -60 -68 -156 -187 -176 -219 -15 -25 -20 -55 -23
-170 -2 -77 -8 -147 -13 -155 -7 -13 -9 -13 -11 0 -1 8 -5 -21 -8 -65 -4 -51
-7 16 -8 182 l-2 261 78 103 c42 56 97 130 122 164 25 34 118 150 208 258 89
107 162 200 162 205 0 15 36 43 45 35 4 -5 5 -2 1 5 -5 8 0 22 11 35 11 12 50
65 88 117 65 91 184 223 420 467 l110 114 105 5 c154 8 165 10 218 57 26 23
65 57 87 75 l40 33 -45 -29 c-25 -17 -62 -46 -82 -64 -47 -44 -95 -58 -201
-58 -47 0 -97 -4 -110 -9 -57 -22 -435 -425 -584 -624 -117 -156 -241 -313
-388 -493 -53 -64 -99 -123 -102 -130 -3 -8 -9 -12 -13 -9 -4 3 -14 -3 -21
-13 -13 -15 -12 -16 4 -3 9 7 17 9 17 5 0 -13 -60 -84 -68 -81 -4 1 -42 -37
-85 -85 l-77 -86 2 -109 2 -108 3 103 4 103 60 74 c33 41 64 77 69 80 18 11
10 -12 -10 -30 -11 -10 -33 -39 -50 -65 l-30 -47 0 -200 c0 -270 -10 -455 -23
-422 l-10 24 -7 -25 c-5 -14 -9 63 -11 175 l-3 200 -6 -155 c-4 -85 -9 -193
-10 -240 -3 -74 -4 -79 -10 -40 -4 25 -9 41 -11 35 -2 -5 -6 51 -9 125 l-6
135 -4 -140 c-2 -107 -5 -128 -10 -90 -6 36 -7 23 -5 -45 3 -78 2 -86 -5 -42
-13 86 -20 73 -22 -44 -2 -101 -3 -98 -8 51 l-6 160 -3 -130 c-2 -107 -4 -125
-14 -105 -11 25 -11 25 -16 -10 -4 -23 -8 1 -11 65 -6 99 -6 98 -10 -55 -2
-110 -5 -141 -10 -105 -4 28 -8 42 -8 33 -1 -10 -6 -18 -12 -18 -5 0 -11 -8
-11 -17 -1 -15 -2 -15 -8 2 -3 11 -9 -18 -12 -65 -3 -47 -6 53 -7 222 -1 169
-6 309 -11 312 -4 3 -6 -6 -3 -19 l4 -25 -113 0 c-63 0 -138 -3 -166 -6 -49
-6 -56 -11 -114 -76 -33 -37 -62 -74 -63 -81 -1 -7 -11 -25 -23 -40 -21 -27
-23 -27 -149 -29 l-129 -2 130 -6 c112 -4 123 -6 80 -13 -82 -13 -83 -15 -15
-18 48 -2 33 -5 -60 -9 l-125 -6 125 -2 126 -2 2 -30 2 -30 -165 0 c-150 0
-165 2 -166 18 -1 9 -3 27 -4 40 -2 21 1 22 74 24 l76 2 -72 3 c-66 4 -71 6
-77 28 -6 23 -11 25 -70 25 -36 0 -71 -3 -80 -6 -21 -8 -23 -84 -2 -84 9 0 14
-9 13 -20 -1 -19 -8 -20 -100 -20 -88 0 -98 2 -95 18 3 14 16 18 71 20 64 3
67 4 67 27 0 20 -5 25 -25 25 -25 0 -25 1 -25 85 0 78 2 85 20 85 16 0 20 7
20 35 0 33 2 35 33 35 32 0 33 -1 29 -35 l-4 -35 61 0 c34 0 61 -4 61 -10 0
-6 -29 -10 -66 -10 -56 0 -65 -2 -60 -16 3 -9 6 -27 6 -40 0 -23 3 -24 65 -24
45 0 65 -4 66 -12 0 -10 2 -10 6 0 3 9 39 12 126 12 l122 1 30 31 30 32 -37
-27 c-32 -23 -46 -27 -106 -27 -38 0 -90 3 -116 6 l-46 7 0 48 0 49 110 0 c93
0 113 3 127 18 10 10 42 45 72 77 l54 60 171 5 171 6 -172 2 -171 2 -70 -77
-71 -78 -110 -3 -111 -4 0 26 c0 26 1 26 70 26 39 0 85 6 103 14 31 12 167
152 176 179 2 7 -37 -30 -85 -81 l-89 -92 -86 0 -86 0 -7 190 c-4 104 -5 194
-1 200 4 6 68 10 163 10 206 0 202 -2 202 126 0 75 3 96 15 100 18 7 10 24
-11 24 -11 0 -14 -19 -14 -98 0 -63 -4 -104 -13 -115 -18 -24 -334 -38 -342
-14 -5 13 -38 15 -222 15 -118 1 -218 3 -221 6 -3 3 94 6 216 6 l222 0 0 35 0
35 -197 2 -198 3 198 2 197 3 0 35 0 35 -242 0 c-133 0 -239 2 -236 5 3 3 112
6 242 6 l236 0 0 255 0 254 -100 0 -100 0 -2 -207 c-1 -146 -3 -183 -8 -123
-5 75 -7 82 -17 60 -10 -20 -12 2 -12 123 l-1 148 -140 -3 c-107 -2 -140 0
-140 10 0 9 35 12 140 12 l140 0 0 230 0 230 221 2 220 3 28 65 27 65 182 3
182 2 0 269 c0 148 -3 283 -6 300 l-6 31 -119 0 -119 0 2 73 2 72 3 -60 4 -60
144 3 145 4 0 -335 c0 -360 -1 -368 -51 -352 -12 4 -84 4 -161 0 l-139 -7 -35
-69 c-22 -44 -40 -69 -51 -69 -12 0 -14 -3 -6 -11 26 -26 91 49 76 87 -4 11
-3 15 5 10 6 -3 14 -1 18 5 4 8 3 9 -4 5 -16 -10 -15 9 1 22 7 6 81 11 180 12
l167 1 0 -31 0 -30 -139 0 c-102 0 -140 -3 -144 -12 -3 -10 28 -12 140 -10
l144 3 -3 -38 -3 -38 -155 -5 -155 -6 157 -2 c93 -1 159 2 163 8 3 5 6 199 5
430 l0 420 90 0 90 0 0 105 0 105 198 -2 197 -3 1 -72 1 -73 -46 0 c-66 0 -73
-8 -69 -71 l3 -54 68 -3 67 -3 0 61 0 61 97 -3 98 -3 3 -37 3 -37 -58 -3 -58
-3 -2 -35 -2 -35 12 28 c9 21 17 27 43 27 18 0 39 3 48 6 14 5 16 -9 16 -121
0 -81 -4 -124 -10 -120 -5 3 -10 0 -10 -8 0 -8 7 -17 15 -21 13 -5 15 14 15
134 l0 140 206 0 c114 -1 209 2 212 5 3 3 -90 5 -206 5 l-212 0 0 40 0 39 333
-4 c213 -2 296 0 232 5 -55 4 -205 8 -332 9 l-233 1 -1 38 c0 20 -2 82 -5 136
-3 74 -1 101 8 108 7 4 112 8 233 8 l220 0 2 76 1 76 -141 -2 c-221 -3 -326 1
-297 10 14 4 118 8 233 9 l207 1 0 125 0 125 265 0 265 0 0 -35 c0 -19 5 -35
10 -35 6 0 10 25 10 55 l0 55 398 -2 c256 -1 365 -4 307 -9 -49 -4 -163 -7
-252 -8 l-163 -1 -1 -27 -2 -28 -4 28 -4 27 -125 0 -124 0 0 -37 0 -38 453 -4
c248 -2 456 -7 461 -12 6 -5 -75 -9 -195 -9 -112 0 -261 -3 -331 -7 l-128 -6
0 -32 0 -32 330 -5 c182 -3 333 -8 337 -12 3 -3 3 -9 0 -12 -4 -4 -227 -9
-497 -12 l-490 -5 0 -33 0 -34 150 0 150 0 1 33 1 32 7 -30 6 -30 335 -6 c184
-3 336 -6 338 -7 1 -1 2 -9 2 -17 0 -13 -44 -15 -335 -15 l-335 0 0 -40 0 -40
318 0 c264 0 321 -2 338 -15 17 -13 -39 -14 -478 -15 l-498 0 0 -30 c0 -16 6
-31 13 -32 6 -2 133 -3 280 -3 l269 0 24 -28 c29 -34 31 -66 4 -100 -11 -14
-20 -30 -20 -35 0 -16 96 -23 206 -15 l100 8 77 82 77 83 0 255 0 255 24 0 24
0 4 -272 4 -273 -101 -111 c-93 -104 -103 -112 -140 -114 l-40 -3 35 -8 c22
-5 -5 -6 -74 -4 -60 3 -144 5 -187 5 -73 0 -78 1 -82 23 -4 20 -4 20 -6 -4
l-1 -26 113 -6 c61 -4 147 -7 189 -7 l76 0 115 122 115 121 -5 279 -6 278 30
0 30 0 6 -187 c4 -104 7 -231 7 -283 l0 -95 -102 -101 c-57 -56 -114 -109
-128 -118 -13 -9 -19 -16 -12 -16 7 0 69 53 139 117 l126 117 -5 284 -5 283
26 -3 26 -3 3 -287 2 -288 -36 -40 c-36 -40 -197 -172 -244 -200 -20 -12 -85
-16 -340 -20 l-315 -6 325 -2 325 -2 122 103 c67 57 134 116 148 131 l25 27 0
295 0 294 25 0 25 0 0 -296 c0 -205 -4 -302 -12 -317 -10 -20 -10 -21 5 -8 15
12 17 46 17 318 l0 304 23 -3 22 -3 3 -288 c1 -194 -1 -294 -9 -308 -16 -32
-3 -34 24 -5 22 24 25 25 32 9 19 -46 24 38 18 288 -3 146 -3 282 1 302 l7 37
483 0 483 0 6 -142z m504 116 c-3 -3 -12 -4 -19 -1 -8 3 -5 6 6 6 11 1 17 -2
13 -5z m-475 -226 c-4 -364 -8 -393 -10 -75 -1 163 1 297 6 297 4 0 6 -100 4
-222z m-3424 -365 l3 -143 -101 0 -100 0 0 73 c0 82 5 93 43 102 29 8 31 5 42
-59 9 -54 25 -28 25 42 l0 52 -50 0 -50 0 4 38 c3 20 5 38 5 40 1 1 40 1 89 0
l87 -3 3 -142z m5997 137 c4 -6 4 -24 0 -40 -6 -28 -10 -30 -53 -30 l-47 0 3
-65 c4 -77 24 -89 22 -12 -2 67 0 76 10 52 7 -17 9 -17 9 -2 1 18 21 25 21 7
0 -5 6 -10 14 -10 20 0 26 -23 26 -106 l0 -74 -105 0 -105 0 0 140 0 139 68 4
c37 2 81 4 99 5 17 1 35 -3 38 -8z m-6795 -250 l0 -70 -30 0 -30 0 0 70 0 70
30 0 30 0 0 -70z m-102 33 c-15 -2 -42 -2 -60 0 -18 2 -6 4 27 4 33 0 48 -2
33 -4z m-395 -550 c-13 -2 -33 -2 -45 0 -13 2 -3 4 22 4 25 0 35 -2 23 -4z
m2400 -150 c-7 -2 -19 -2 -25 0 -7 3 -2 5 12 5 14 0 19 -2 13 -5z m110 0 c-7
-2 -21 -2 -30 0 -10 3 -4 5 12 5 17 0 24 -2 18 -5z m-15 -30 c-42 -2 -114 -2
-160 0 -46 1 -11 3 77 3 88 0 125 -2 83 -3z m3659 1 c-3 -3 -12 -4 -19 -1 -8
3 -5 6 6 6 11 1 17 -2 13 -5z m-1742 -50 c20 -9 42 -32 56 -58 l23 -43 -28
-77 c-16 -42 -35 -83 -43 -91 -13 -13 -12 -15 1 -15 21 0 20 -9 -1 -34 -13
-14 -9 -13 17 6 100 73 311 157 450 179 175 27 412 -7 591 -86 180 -78 341
-208 439 -354 87 -129 153 -291 167 -410 4 -39 9 -48 23 -44 13 4 17 -3 18
-32 1 -20 4 -40 7 -45 4 -6 -3 -10 -15 -10 -19 0 -21 -5 -18 -62 3 -61 4 -63
36 -72 35 -10 63 -49 58 -82 -4 -27 -31 -29 -71 -4 l-35 22 0 -34 c0 -37 -32
-187 -49 -231 -6 -16 -8 -34 -4 -40 4 -7 6 -20 4 -31 -1 -10 1 -16 7 -13 5 4
9 1 10 -6 1 -15 21 -118 25 -132 9 -28 44 -92 60 -109 9 -11 17 -26 17 -33 0
-8 5 -11 10 -8 6 4 10 3 9 -2 -4 -22 3 -35 24 -44 19 -8 18 -9 -8 -4 -22 4
-26 3 -15 -5 8 -5 37 -10 63 -10 57 0 87 -16 141 -77 l39 -43 -18 -41 c-23
-49 -41 -60 -97 -55 -24 2 -36 2 -27 -1 20 -5 43 -125 34 -176 -4 -20 -3 -42
1 -49 5 -7 9 -35 11 -63 1 -27 6 -77 11 -111 15 -113 2 -383 -21 -412 -7 -9
-6 -11 7 -6 12 5 15 2 10 -10 -4 -11 -14 -14 -33 -11 -18 4 -16 1 9 -8 19 -8
36 -21 38 -30 3 -17 -17 -25 -143 -51 -159 -34 -539 -125 -1005 -241 -446
-111 -1411 -348 -1467 -361 -13 -2 -23 0 -23 4 0 5 39 21 88 35 86 26 697 188
760 202 17 3 32 11 32 17 0 6 8 7 18 3 12 -4 14 -3 6 5 -8 8 -4 24 12 58 13
26 24 53 24 60 0 6 5 12 10 12 6 0 10 14 10 30 0 17 5 30 10 30 6 0 10 14 10
30 0 17 5 30 10 30 6 0 10 9 10 20 0 12 7 34 15 51 9 16 18 53 21 82 3 28 8
55 10 59 2 4 -5 9 -15 13 -25 7 -140 -13 -660 -117 -429 -85 -440 -86 -496
-44 -17 13 -12 13 31 -1 50 -15 53 -15 200 20 82 20 281 62 441 93 261 51 293
60 300 78 4 12 6 24 5 29 -1 4 3 7 10 7 6 0 9 3 5 6 -3 4 0 13 8 20 20 21 7
52 -24 56 -14 2 114 27 284 57 665 115 610 104 613 128 3 23 -30 53 -60 53
-15 0 -18 10 -19 58 -1 31 -4 142 -8 246 l-6 190 -285 61 c-157 34 -391 85
-520 113 -622 135 -859 182 -927 182 -109 0 -687 -72 -1083 -135 -271 -43
-479 -69 -487 -61 -4 3 6 6 22 6 16 0 26 3 23 6 -3 3 5 17 18 31 13 14 24 31
24 38 0 7 11 24 25 39 14 15 25 34 25 42 0 8 4 13 9 9 5 -3 12 4 16 15 3 11
11 20 16 20 5 0 9 7 9 15 0 8 5 15 10 15 6 0 10 7 10 15 0 8 7 15 16 15 11 0
15 6 11 20 -3 10 -2 20 2 22 10 5 61 86 61 98 0 5 4 10 8 10 14 0 137 159 134
173 -2 6 0 9 4 4 9 -9 54 32 54 50 0 7 5 13 10 13 6 0 10 6 10 14 0 8 9 18 20
21 11 4 28 17 36 31 9 13 22 24 29 24 7 0 19 7 26 17 8 9 61 60 119 113 58 53
106 99 107 103 2 4 15 19 30 32 42 37 47 40 66 48 9 3 16 10 15 14 -1 4 3 19
10 33 6 14 13 38 17 53 4 22 10 27 23 22 12 -4 10 1 -7 19 -58 62 42 157 121
115 11 -6 18 -7 15 -2 -4 6 8 10 24 11 17 0 46 8 65 17 28 13 33 20 28 39 -11
44 152 195 196 181 11 -3 48 -27 82 -52 35 -26 65 -45 68 -44 3 1 13 10 23 18
12 12 17 13 17 3 0 -9 4 -9 13 -2 12 10 60 24 121 37 23 5 27 8 15 16 -7 5 -9
10 -4 11 6 1 -26 5 -70 8 l-80 6 81 2 81 2 7 112 c4 62 13 119 19 127 18 22
88 51 124 51 54 0 123 -74 123 -132 0 -13 -9 -42 -20 -66 -11 -23 -15 -40 -10
-37 6 3 10 0 10 -9 0 -21 51 -29 102 -16 55 15 63 21 47 31 -9 5 8 9 45 9 l59
0 -24 -27 -24 -28 30 25 c17 14 35 28 40 33 6 4 1 5 -9 1 -12 -5 -17 -4 -13 3
4 6 -3 8 -18 5 -14 -2 -46 -1 -72 3 -42 6 -45 8 -25 16 29 11 21 26 -21 37
-30 8 -32 11 -35 61 -4 63 27 137 80 194 40 42 77 48 133 21z m1583 -11 c-15
-2 -42 -2 -60 0 -18 2 -6 4 27 4 33 0 48 -2 33 -4z m245 -50 c-7 -2 -19 -2
-25 0 -7 3 -2 5 12 5 14 0 19 -2 13 -5z m-6128 -72 c-21 -43 -29 -39 -8 4 9
19 18 33 21 31 2 -2 -4 -18 -13 -35z m5952 33 c-3 -3 -12 -4 -19 -1 -8 3 -5 6
6 6 11 1 17 -2 13 -5z m230 -20 c-3 -3 -12 -4 -19 -1 -8 3 -5 6 6 6 11 1 17
-2 13 -5z m-2873 -72 c28 -12 28 -14 24 -78 -4 -63 -3 -65 22 -70 42 -9 46
-12 20 -14 -14 -1 -31 -2 -37 -1 -7 1 -13 -4 -13 -10 0 -9 -33 -10 -132 -5
-140 6 -158 13 -158 59 0 32 68 86 137 107 36 11 71 20 79 20 8 0 14 6 14 13
0 7 3 8 8 2 4 -6 20 -16 36 -23z m2933 2 c-3 -3 -12 -4 -19 -1 -8 3 -5 6 6 6
11 1 17 -2 13 -5z m91 -116 l0 -53 -9 40 c-8 35 -7 65 4 65 2 0 4 -24 5 -52z
m-4527 -35 c-5 -10 -11 -22 -13 -28 -1 -5 -6 -9 -10 -7 -5 1 -8 -5 -8 -13 0
-8 -4 -15 -10 -15 -5 0 -10 -7 -10 -17 0 -9 -3 -14 -6 -10 -4 3 -16 -7 -28
-23 -11 -16 -64 -80 -117 -142 -52 -62 -160 -192 -239 -288 -209 -254 -403
-470 -422 -470 -5 0 -8 6 -8 13 0 13 40 63 210 265 41 49 136 167 210 262 177
227 240 301 251 294 5 -3 6 1 3 9 -5 15 10 30 33 33 19 3 86 60 126 109 39 47
54 58 38 28z m4638 -48 c4 2 51 -49 104 -113 53 -64 121 -146 151 -182 31 -36
99 -119 153 -185 100 -125 201 -241 290 -336 29 -30 73 -81 98 -113 l45 -59
-2 -252 c-2 -139 -6 -251 -10 -248 -5 2 -9 113 -10 246 l-2 242 -6 -220 -6
-220 -2 216 c-1 156 -5 218 -14 228 -11 10 -9 11 7 6 16 -5 15 -3 -5 12 -13
10 -34 27 -46 38 -37 33 -302 342 -424 494 -63 79 -161 197 -217 263 -102 120
-173 217 -173 238 0 6 14 -5 31 -25 17 -19 34 -33 38 -30z m104 -220 c11 -16
-24 17 -78 74 -55 57 -102 110 -103 119 -4 16 146 -144 181 -193z m-2846 169
c-3 -3 -12 -4 -19 -1 -8 3 -5 6 6 6 11 1 17 -2 13 -5z m-2007 -118 c0 -2 -8
-10 -17 -17 -16 -13 -17 -12 -4 4 13 16 21 21 21 13z m1268 -31 c-2 -2 -24 -6
-48 -9 l-45 -5 43 11 c26 7 42 17 43 27 1 12 2 12 6 -2 3 -10 3 -20 1 -22z
m5887 15 c-45 -12 -155 -12 -155 0 0 6 37 10 93 9 64 -1 83 -4 62 -9z m-7247
-90 c-54 -62 -75 -80 -39 -34 11 15 18 31 14 37 -3 5 -2 7 4 4 5 -4 23 7 38
23 49 51 39 33 -17 -30z m5043 -67 c13 -16 12 -17 -3 -4 -10 7 -18 15 -18 17
0 8 8 3 21 -13z m199 -235 c15 -21 17 -28 6 -19 -16 13 -41 51 -33 51 2 0 14
-15 27 -32z m156 -193 c34 -49 34 -49 4 -15 -17 19 -46 53 -63 75 -30 38 -30
39 -3 15 15 -14 43 -47 62 -75z m-859 -41 c-3 -4 0 -19 8 -33 26 -51 -19 -74
-61 -30 -27 28 -27 29 -9 49 10 11 29 20 43 20 14 0 23 -3 19 -6z m1070 -231
c-2 -16 -4 -5 -4 22 0 28 2 40 4 28 2 -13 2 -35 0 -50z m-948 -169 c37 -30 39
-56 9 -84 -52 -48 -148 3 -117 63 28 52 63 59 108 21z m2409 -152 c2 -13 -3
-25 -12 -28 -9 -3 -16 -12 -16 -20 0 -10 8 -12 30 -7 l30 6 0 -87 c0 -79 -2
-86 -20 -86 -15 0 -20 7 -20 24 0 14 -4 28 -10 31 -6 4 -10 -8 -10 -29 0 -25
-4 -36 -15 -36 -8 0 -15 9 -15 20 0 17 -7 20 -42 20 -24 1 -54 7 -68 15 -24
13 -21 14 43 15 l67 0 0 35 0 35 -59 0 c-112 0 -128 28 -18 32 l72 3 -3 32
c-2 22 2 34 15 42 27 16 48 9 51 -17z m-8161 12 c-3 -3 -12 -4 -19 -1 -8 3 -5
6 6 6 11 1 17 -2 13 -5z m40 0 c-3 -3 -12 -4 -19 -1 -8 3 -5 6 6 6 11 1 17 -2
13 -5z m-277 -8 c0 -2 -13 -6 -29 -8 -17 -2 -28 -1 -25 4 5 8 54 12 54 4z
m7787 -218 c23 -22 31 -23 201 -22 l177 1 -155 -6 c-85 -4 -163 -11 -173 -15
-13 -6 -26 0 -53 28 -38 39 -35 50 3 14z m-7310 -85 c-2 -21 -4 -6 -4 32 0 39
2 55 4 38 2 -18 2 -50 0 -70z m5872 68 c12 -8 10 -16 -13 -45 -30 -40 -68 -55
-91 -36 -21 17 -19 42 5 68 22 23 73 29 99 13z m-4711 -8 c-10 -2 -28 -2 -40
0 -13 2 -5 4 17 4 22 1 32 -1 23 -4z m4406 -61 c-16 -25 -38 -21 -42 7 -5 30
18 45 38 25 11 -11 12 -19 4 -32z m1743 42 c-3 -3 -12 -4 -19 -1 -8 3 -5 6 6
6 11 1 17 -2 13 -5z m381 -26 l-3 -33 -167 0 c-144 0 -169 2 -180 17 -7 9 -22
18 -33 21 -11 3 1 5 27 6 26 0 50 6 53 11 4 6 67 10 156 10 l150 0 -3 -32z
m207 22 c3 -6 17 -7 30 -4 12 3 26 1 29 -4 3 -6 15 -8 26 -5 29 8 70 -5 70
-22 0 -17 -66 -18 -245 -5 l-100 7 78 1 c70 2 79 4 84 22 6 22 18 26 28 10z
m-6875 -13 c0 -8 36 -19 103 -31 56 -10 167 -31 247 -46 827 -162 843 -165
1063 -165 108 1 197 -2 197 -6 0 -4 -24 -13 -52 -19 -60 -14 -94 -29 -67 -30
13 0 20 -16 28 -62 6 -35 10 -72 9 -83 -2 -38 2 -45 25 -46 12 0 -3 -8 -33
-17 -66 -20 -136 -20 -170 -2 -14 8 -36 15 -50 17 -14 2 -107 22 -208 45 -131
30 -178 44 -163 50 12 4 21 15 21 23 0 9 4 14 8 11 4 -2 7 8 6 22 0 15 4 35
10 46 8 14 8 20 -2 23 -10 4 -10 8 -1 19 6 8 8 14 3 14 -5 0 -3 4 4 9 8 5
-132 37 -353 80 -201 40 -375 75 -385 78 -19 5 -20 0 -20 -90 l0 -95 -42 -4
c-32 -3 -210 27 -286 48 -10 3 -12 30 -11 108 l1 105 27 4 c58 9 91 7 91 -6z
m-1714 -77 c0 -20 -5 -20 -161 -18 -143 3 -160 5 -163 21 -3 16 10 17 160 17
158 0 164 -1 164 -20z m8384 0 c0 -19 -7 -20 -180 -20 -143 0 -180 3 -180 13
0 8 3 17 7 20 3 4 84 7 180 7 166 0 173 -1 173 -20z m360 -95 l0 -94 83 -3 82
-3 -4 -357 -4 -358 32 0 31 0 0 75 c0 73 1 75 25 75 23 0 25 -3 25 -49 0 -40
-3 -50 -20 -54 -28 -7 -25 -34 4 -41 23 -6 24 -9 22 -86 l-1 -80 -75 2 c-72 1
-73 1 -25 8 28 4 41 8 30 9 -19 2 -19 3 3 11 18 8 22 17 22 50 l0 40 -54 0
-54 0 -7 293 c-4 160 -5 318 -2 350 4 54 3 57 -19 57 -18 0 -24 -6 -24 -22 0
-34 -13 -293 -14 -293 0 0 -92 1 -203 3 -169 3 -203 6 -203 18 0 9 12 14 38
15 20 0 104 1 186 2 l150 2 0 30 0 30 -152 -3 c-119 -2 -152 0 -152 10 0 10
-2 10 -9 0 -12 -19 -55 -11 -59 11 -3 16 11 17 182 17 l186 0 0 30 0 31 -147
-1 c-227 -1 -223 -2 -223 15 0 10 11 15 35 15 33 0 35 2 35 35 0 32 -2 35 -30
35 -23 0 -30 5 -30 19 0 17 5 19 35 14 30 -5 35 -3 35 14 0 16 -6 18 -35 15
-27 -3 -35 -1 -35 12 0 12 9 16 35 16 l35 0 0 65 c0 63 -1 65 -26 65 -14 0
-23 -4 -20 -9 4 -5 0 -12 -6 -15 -9 -3 -8 -8 5 -16 21 -13 22 -30 3 -30 -23 0
-7 -38 18 -43 13 -3 9 -5 -12 -6 l-34 -1 3 78 c1 42 4 80 6 85 2 4 78 7 169 7
l164 0 0 -95z m-8742 43 c-3 -23 -6 -23 -165 -26 l-163 -2 0 25 0 25 166 0
165 0 -3 -22z m8382 2 c0 -19 -6 -20 -174 -20 -166 0 -175 1 -173 19 1 18 11
19 174 21 168 1 173 0 173 -20z m-1932 -42 c31 -31 0 -78 -53 -78 -72 0 -47
86 26 89 8 1 20 -4 27 -11z m1932 -9 c0 -20 -3 -21 -167 -17 -93 1 -174 7
-181 11 -31 21 11 27 174 27 170 0 174 -1 174 -21z m-8376 -4 c-9 -22 -334
-22 -334 0 0 13 26 15 170 15 146 0 169 -2 164 -15z m4816 -26 c-41 -6 -228
-13 -415 -18 -471 -12 -514 -13 -484 -18 l25 -4 -3 -102 c-1 -56 -5 -107 -7
-113 -2 -6 -84 -15 -213 -23 -238 -14 -266 -18 -168 -21 39 -1 93 -5 120 -9
l50 -7 -65 -7 c-36 -3 -116 -9 -177 -13 l-113 -7 0 156 0 155 -51 7 c-155 21
78 30 861 31 478 1 690 -1 640 -7z m-4817 -19 c5 -19 0 -20 -164 -20 -162 0
-169 1 -169 20 0 19 7 20 164 20 155 0 164 -1 169 -20z m8377 0 c0 -19 -7 -20
-142 -20 -164 0 -218 7 -218 26 0 11 34 14 180 14 173 0 180 -1 180 -20z m0
-45 c0 -13 -29 -15 -175 -15 -144 0 -175 2 -175 14 0 8 4 16 10 18 5 2 84 2
175 0 136 -2 165 -5 165 -17z m-8380 -5 c0 -19 -7 -20 -165 -20 -158 0 -165 1
-165 20 0 19 7 20 165 20 158 0 165 -1 165 -20z m-356 -45 c-4 -8 -1 -15 5
-15 7 0 14 7 17 15 5 12 33 15 168 15 138 0 163 -2 163 -15 0 -11 -12 -15 -41
-15 -23 -1 -112 -3 -198 -6 -149 -5 -158 -4 -158 13 0 13 8 19 25 21 18 1 23
-2 19 -13z m8736 -5 c0 -19 -6 -20 -147 -19 -82 0 -166 4 -188 8 -22 5 -31 9
-20 10 15 1 17 3 6 10 -8 5 60 9 168 10 176 2 181 1 181 -19z m-8380 -40 c0
-5 -15 -10 -32 -11 -18 -1 -93 -4 -166 -8 -122 -5 -132 -5 -132 12 0 15 15 17
165 17 103 0 165 -4 165 -10z m8298 3 c59 -4 82 -10 82 -19 0 -11 -29 -14
-139 -14 -76 0 -159 -3 -185 -6 -31 -5 -46 -3 -46 5 0 6 17 12 38 13 l37 1
-35 5 c-29 4 -32 6 -15 12 25 11 153 12 263 3z m136 -9 c26 -10 18 -24 -14
-24 -29 0 -38 9 -23 23 8 9 17 9 37 1z m-8461 -21 c-7 -2 -21 -2 -30 0 -10 3
-4 5 12 5 17 0 24 -2 18 -5z m2634 1 c-3 -3 -12 -4 -19 -1 -8 3 -5 6 6 6 11 1
17 -2 13 -5z m-2612 -14 c-4 -6 9 -11 32 -12 37 -1 37 -1 6 -5 -18 -2 -33 -8
-33 -14 0 -5 -69 -9 -165 -9 -158 0 -165 1 -165 20 0 18 8 20 163 23 89 1 163
4 165 5 2 1 0 -2 -3 -8z m8385 -20 c0 -20 -5 -20 -187 -18 -119 2 -187 7 -186
13 2 6 35 11 75 13 40 1 78 4 83 6 6 3 56 5 113 5 96 1 102 0 102 -19z m-8382
-52 c3 -17 -10 -18 -162 -18 -160 0 -166 1 -166 20 0 20 5 20 162 18 146 -3
163 -5 166 -20z m8380 -2 c3 -14 -16 -16 -152 -16 -97 0 -156 4 -156 10 0 6
-16 10 -36 10 -19 0 -33 3 -31 8 3 4 88 6 189 5 157 -1 183 -4 186 -17z
m-8333 4 c3 -5 -3 -10 -14 -10 -12 0 -21 5 -21 10 0 6 6 10 14 10 8 0 18 -4
21 -10z m8388 -1 c7 0 3 -4 -8 -8 -22 -9 -35 -5 -35 11 0 5 7 7 16 4 9 -3 21
-6 27 -7z m-5116 -5 c-3 -3 -12 -4 -19 -1 -8 3 -5 6 6 6 11 1 17 -2 13 -5z
m4736 -11 c-7 -2 -21 -2 -30 0 -10 3 -4 5 12 5 17 0 24 -2 18 -5z m-8006 -25
c-3 -20 -60 -27 -224 -27 -147 -1 -153 0 -153 19 0 19 7 20 190 20 147 0 189
-3 187 -12z m8333 -2 c0 -19 -250 -31 -340 -17 -36 6 -105 12 -155 13 l-90 2
105 6 c58 3 189 7 293 8 153 2 187 -1 187 -12z m-8347 -33 c-7 -2 -19 -2 -25
0 -7 3 -2 5 12 5 14 0 19 -2 13 -5z m-376 -27 c-7 -21 -37 -19 -37 2 0 15 5
19 20 15 12 -3 19 -11 17 -17z m386 9 c15 -6 16 -10 5 -16 -7 -5 -21 -6 -30
-3 -12 4 -18 0 -18 -11 0 -9 5 -13 10 -10 6 3 15 3 22 -1 24 -15 -30 -22 -195
-23 -157 -2 -168 0 -165 16 3 16 18 18 161 18 86 0 157 3 157 8 0 4 -72 7
-160 7 -140 0 -160 2 -160 16 0 14 20 15 178 12 97 -3 185 -8 195 -13z m8335
0 c-3 -13 -27 -16 -168 -19 -91 -2 -221 0 -290 4 l-125 7 102 1 c56 1 104 6
107 11 3 5 89 10 192 10 164 2 185 0 182 -14z m62 5 c11 -7 7 -10 -17 -10 -18
0 -33 5 -33 10 0 13 30 13 50 0z m-532 -37 c-21 -2 -55 -2 -75 0 -21 2 -4 4
37 4 41 0 58 -2 38 -4z m472 -18 c0 -13 -28 -15 -190 -15 -162 0 -190 2 -190
15 0 13 28 15 190 15 162 0 190 -2 190 -15z m-859 -17 c96 4 109 3 109 -12 0
-14 -18 -16 -149 -16 -118 0 -150 3 -154 14 -8 21 0 24 44 16 22 -4 89 -5 150
-2z m-7466 -8 c4 -6 -7 -10 -25 -10 -18 0 -29 -4 -25 -10 4 -7 -48 -10 -149
-10 -85 0 -161 -3 -170 -6 -11 -4 -16 0 -16 15 0 20 5 21 183 24 100 1 185 3
189 5 4 1 10 -2 13 -8z m-395 -20 c0 -13 -7 -20 -20 -20 -19 0 -27 20 -13 33
13 14 33 6 33 -13z m8093 13 c-18 -2 -48 -2 -65 0 -18 2 -4 4 32 4 36 0 50 -2
33 -4z m84 1 c-3 -3 -12 -4 -19 -1 -8 3 -5 6 6 6 11 1 17 -2 13 -5z m60 0 c-3
-3 -12 -4 -19 -1 -8 3 -5 6 6 6 11 1 17 -2 13 -5z m481 -11 c-3 -16 -21 -18
-182 -21 -134 -2 -182 0 -194 10 -13 11 -8 14 34 19 27 3 116 7 197 7 136 2
148 1 145 -15z m72 -8 c0 -10 -10 -15 -30 -15 -20 0 -30 5 -30 15 0 10 10 15
30 15 20 0 30 -5 30 -15z m-8403 -1 c-3 -3 -12 -4 -19 -1 -8 3 -5 6 6 6 11 1
17 -2 13 -5z m-387 -40 c0 -8 -9 -14 -19 -14 -11 0 -23 -4 -26 -10 -7 -11
-362 -14 -389 -4 -19 7 -21 30 -3 38 6 2 108 5 225 5 177 0 212 -3 212 -15z
m400 1 c0 -13 -28 -15 -195 -15 -167 0 -195 2 -195 15 0 13 28 15 195 15 167
0 195 -2 195 -15z m7570 6 c0 -10 -108 -21 -217 -21 -67 0 -83 3 -83 15 0 13
23 15 150 15 83 0 150 -4 150 -9z m754 -6 c5 -13 -18 -15 -172 -15 -97 0 -202
3 -232 7 l-55 8 40 6 c22 3 124 7 226 8 158 1 188 -1 193 -14z m436 -4 c0 -20
-5 -21 -172 -21 -162 0 -248 10 -248 29 0 5 95 9 210 10 206 2 210 2 210 -18z
m-5135 3 c-5 -2 -9 -32 -8 -67 l2 -63 -122 -18 c-67 -9 -139 -20 -159 -23
l-38 -6 0 81 0 80 63 6 c125 12 281 18 262 10z m3998 -1 c-7 -2 -21 -2 -30 0
-10 3 -4 5 12 5 17 0 24 -2 18 -5z m94 1 c-3 -3 -12 -4 -19 -1 -8 3 -5 6 6 6
11 1 17 -2 13 -5z m-169 -21 c-10 -2 -26 -2 -35 0 -10 3 -2 5 17 5 19 0 27 -2
18 -5z m-7948 -34 c0 -14 -7 -19 -25 -19 -18 0 -25 5 -25 19 0 13 7 19 25 19
18 0 25 -6 25 -19z m408 -1 c3 -17 -11 -18 -197 -18 -195 0 -201 1 -201 20 0
20 5 20 197 18 179 -3 198 -5 201 -20z m8392 2 c5 -8 7 -17 5 -21 -7 -11 -70
7 -67 19 1 7 -2 12 -8 12 -5 0 -10 -7 -10 -15 0 -13 -29 -15 -201 -15 -167 0
-200 2 -190 13 6 8 8 17 4 21 -4 4 97 6 225 4 190 -2 234 -6 242 -18z m-770 1
l95 -6 -124 -8 c-150 -9 -294 -9 -315 -1 -9 3 -16 10 -16 15 0 10 214 10 360
0z m216 0 c5 -5 20 -11 34 -14 14 -2 -1 -5 -32 -6 -53 -1 -76 8 -61 23 9 9 48
7 59 -3z m-8261 -41 c19 0 22 -4 18 -22 -3 -13 -19 -38 -36 -55 -30 -32 -33
-33 -118 -33 -48 0 -91 5 -94 10 -4 6 23 10 73 10 l80 0 4 40 4 40 -106 2
-105 2 115 6 c63 3 121 5 128 3 8 -2 24 -3 37 -3z m435 -15 c0 -13 -29 -15
-200 -15 -171 0 -200 2 -200 15 0 13 29 15 200 15 171 0 200 -2 200 -15z
m7425 -10 c-31 -26 -66 -30 -138 -18 -26 4 -34 9 -25 14 10 7 10 9 -2 10 -30
3 67 16 130 17 l65 1 -30 -24z m953 -12 c1 -21 -3 -40 -10 -45 -7 -4 20 -8 62
-9 91 -1 68 -17 -25 -18 -74 0 -95 14 -95 62 0 33 3 36 33 40 17 2 32 5 32 5
0 1 1 -15 3 -35z m193 28 c-7 -5 -46 -9 -86 -9 -40 0 -79 4 -86 9 -9 5 25 9
86 9 61 0 95 -4 86 -9z m-937 -11 c-88 -8 -118 -22 -158 -75 -22 -29 -26 -44
-26 -103 0 -49 4 -70 13 -69 6 0 71 -1 143 -1 l131 -2 -5 -25 -4 -25 -139 5
-139 6 0 -149 c0 -82 -3 -164 -6 -181 -7 -32 -7 -32 -65 -30 -33 1 -61 0 -63
-2 -2 -2 -8 -29 -14 -59 -7 -41 -10 -47 -11 -22 -1 29 -4 32 -32 32 -28 0 -31
3 -25 23 3 12 6 59 6 105 0 76 2 83 22 91 l22 8 -22 12 c-17 9 -22 20 -20 39
3 24 9 28 53 35 59 10 84 27 40 27 -17 0 -40 3 -52 6 -19 5 -21 9 -12 26 11
20 7 118 -5 149 -5 11 5 21 37 37 24 12 49 22 56 22 6 0 11 8 11 19 0 24 36
69 74 92 26 16 49 19 151 18 l120 -2 -81 -7z m-3367 -26 c-3 -3 -12 -4 -19 -1
-8 3 -5 6 6 6 11 1 17 -2 13 -5z m4140 -80 c-3 -3 -12 -4 -19 -1 -8 3 -5 6 6
6 11 1 17 -2 13 -5z m-6468 -585 c0 -130 -2 -325 -6 -435 l-8 -199 -7 115
c-10 168 -18 213 -39 228 -10 7 -20 27 -23 45 -10 64 -17 529 -8 523 17 -10
49 39 60 92 7 30 13 86 14 125 3 120 15 -242 17 -494z m122 -544 l-8 -160 -3
175 c-3 184 -8 231 -26 237 -7 2 -18 -3 -27 -11 -13 -14 -16 -7 -22 65 -4 44
-3 159 1 257 5 97 10 156 12 131 3 -46 4 -46 27 -35 14 6 28 18 32 26 3 8 9
92 12 185 4 120 7 39 8 -270 2 -242 -1 -512 -6 -600z m-469 983 c34 -1 36 -3
42 -46 8 -59 8 -558 -1 -645 -3 -41 -9 -63 -14 -55 -5 7 -20 14 -35 15 -14 1
-29 5 -33 8 -3 4 -7 174 -9 378 -1 205 2 366 6 359 5 -7 25 -13 44 -14z m189
-494 l-3 -231 -39 21 c-32 17 -39 26 -39 52 0 17 -7 37 -15 44 -8 7 -15 27
-15 45 0 25 5 34 21 38 22 6 22 8 17 211 -3 112 -3 209 1 214 3 6 19 14 34 17
15 4 28 15 29 24 6 54 12 -241 9 -435z m1071 -569 c-8 -515 -6 -519 -22 80
l-3 100 -9 -63 c-10 -61 -10 -62 -39 -60 l-29 2 0 246 c0 201 3 250 15 266 8
10 15 14 15 7 0 -6 -4 -15 -10 -18 -5 -3 -10 -12 -10 -18 1 -7 12 2 25 18 l25
30 1 -30 c13 -301 16 -307 17 -39 1 149 5 307 10 350 13 146 22 -357 14 -871z
m-634 555 c0 -162 -4 -347 -8 -410 l-7 -115 -2 105 c-1 69 -7 114 -16 130
l-14 25 -1 -27 c0 -20 -5 -28 -19 -28 -15 0 -19 11 -25 77 -8 94 -6 322 4 423
4 41 7 69 8 63 1 -7 9 -13 17 -13 11 0 15 -12 16 -42 l1 -43 9 35 c4 19 12 73
16 120 7 81 8 83 14 40 4 -25 7 -178 7 -340z m151 -72 c-1 -312 -4 -431 -10
-383 -5 39 -15 83 -21 100 l-12 29 -7 -24 c-3 -14 -11 -24 -17 -22 -7 1 -13
-6 -13 -15 -5 -65 -17 111 -17 242 1 152 13 429 16 374 1 -15 9 -29 17 -33 8
-3 16 -18 16 -33 1 -26 2 -25 12 10 6 20 14 37 19 37 4 0 8 38 8 85 0 47 2 85
5 85 3 0 4 -204 4 -452z m161 -63 c0 -245 -4 -445 -9 -445 -4 0 -11 37 -14 83
-7 94 -14 121 -31 109 -6 -5 -19 -12 -28 -15 -17 -6 -18 11 -18 261 0 214 3
272 14 287 13 18 15 16 24 -25 5 -25 10 -35 11 -22 1 12 6 22 11 22 6 0 10 7
10 16 0 8 5 12 10 9 6 -4 10 25 10 79 0 47 2 86 5 86 3 0 5 -200 5 -445z m568
-155 c-1 -228 -4 -518 -7 -645 l-7 -230 -2 215 c-1 118 -7 249 -14 291 l-12
76 -33 -13 -33 -14 0 203 c0 292 9 449 26 433 7 -8 17 -29 22 -47 l10 -34 1
36 c1 19 7 41 13 47 8 8 14 55 17 120 5 106 5 106 12 42 4 -36 7 -252 7 -480z
m-414 13 c-3 -225 -8 -410 -10 -412 -2 -2 -4 46 -4 107 0 68 -4 112 -10 112
-5 0 -10 -8 -10 -17 0 -11 -3 -14 -8 -7 -11 17 -42 25 -44 11 -6 -49 -12 196
-8 363 4 180 7 205 21 208 9 1 20 -5 23 -14 6 -16 8 -15 21 2 8 10 15 27 15
37 0 9 5 17 11 17 7 0 8 -125 3 -407z m4546 307 c0 -5 -2 -10 -4 -10 -3 0 -8
5 -11 10 -3 6 -1 10 4 10 6 0 11 -4 11 -10z m1430 -90 l55 0 0 -130 0 -130
-82 0 -82 0 -6 -52 c-3 -29 -5 -558 -3 -1176 l3 -1122 -47 0 -48 0 0 -105 0
-105 113 -1 c61 -1 103 -4 92 -7 l-20 -5 20 -8 c11 -4 -59 -8 -157 -8 l-178
-1 0 150 0 150 65 0 65 0 2 278 c1 152 1 679 0 1171 -2 710 0 896 10 903 7 4
41 8 76 8 l62 0 0 60 0 60 -65 0 -65 0 0 41 0 42 68 -6 c37 -4 92 -7 122 -7z
m-5735 -370 l-7 -44 -19 24 c-15 21 -19 43 -19 131 0 98 2 107 20 112 11 3 21
13 22 24 1 10 4 -31 6 -92 2 -60 0 -130 -3 -155z m-3511 -930 c3 -448 6 -913
6 -1032 l0 -218 75 0 75 0 0 -127 c0 -71 -3 -138 -6 -150 l-6 -23 -276 0 -275
0 6 137 c4 75 7 160 7 190 0 29 4 53 8 53 4 0 9 -60 11 -132 5 -196 9 -220 46
-229 16 -5 32 -5 35 -1 5 8 127 16 248 17 l62 0 0 97 0 97 -47 3 -48 3 -5
1050 c-3 578 -1 1058 3 1068 6 13 17 17 41 15 l33 -3 7 -815z m6737 726 c107
-45 290 -126 406 -180 117 -53 217 -96 222 -96 5 0 14 -7 21 -15 22 -26 -8
-18 -115 31 -55 25 -145 66 -200 92 -55 25 -199 87 -319 137 -121 51 -222 97
-224 103 -2 7 1 12 6 12 5 0 97 -38 203 -84z m-83 -48 c40 -17 71 -32 69 -34
-4 -4 -127 40 -172 62 l-30 15 30 -7 c17 -3 63 -19 103 -36z m-3701 10 c-3 -8
-6 -5 -6 6 -1 11 2 17 5 13 3 -3 4 -12 1 -19z m3813 -58 c8 -5 11 -10 5 -10
-5 0 -17 5 -25 10 -8 5 -10 10 -5 10 6 0 17 -5 25 -10z m85 -36 c28 -13 39
-21 25 -18 -29 7 -100 43 -85 43 6 0 33 -11 60 -25z m-1205 -24 c-8 -5 -19
-10 -25 -10 -5 0 -3 5 5 10 8 5 20 10 25 10 6 0 3 -5 -5 -10z m-60 -24 c-41
-23 -682 -277 -687 -273 -2 2 115 52 259 110 145 58 301 122 348 141 88 35
123 45 80 22z m535 -246 c-3 -6 1 -13 10 -17 12 -4 -4 -16 -55 -39 -84 -39
-84 -39 -76 -18 3 8 2 12 -4 9 -6 -3 -10 -2 -10 3 0 5 14 15 31 22 26 11 33
11 41 -1 8 -11 9 -10 4 4 -4 12 3 21 27 31 40 18 39 18 32 6z m-1245 -40 c-8
-5 -19 -10 -25 -10 -5 0 -3 5 5 10 8 5 20 10 25 10 6 0 3 -5 -5 -10z m2743
-317 c-7 -2 -19 -2 -25 0 -7 3 -2 5 12 5 14 0 19 -2 13 -5z m-216 -26 c13 1
21 -2 18 -7 -2 -4 8 -5 23 -3 21 4 16 -3 -28 -31 -55 -35 -95 -41 -95 -15 0 8
-4 17 -9 21 -15 10 36 48 54 41 8 -3 25 -6 37 -6z m-62 -87 c-3 -5 -12 -10
-18 -10 -7 0 -6 4 3 10 19 12 23 12 15 0z m245 -44 c0 -3 -4 -8 -10 -11 -5 -3
-10 -1 -10 4 0 6 5 11 10 11 6 0 10 -2 10 -4z m50 -36 c0 -5 -7 -7 -15 -4 -8
4 -15 8 -15 10 0 2 7 4 15 4 8 0 15 -4 15 -10z m-93 -132 c-2 -24 -4 -5 -4 42
0 47 2 66 4 43 2 -24 2 -62 0 -85z m-28 110 c-2 -2 -20 -16 -39 -33 l-35 -30
29 33 c17 17 34 32 40 32 5 0 7 -1 5 -2z m-1306 -83 c12 3 -11 -12 -52 -34
-41 -22 -79 -37 -84 -34 -6 3 -7 1 -3 -5 5 -9 -32 -29 -43 -23 -2 2 -7 -2 -10
-7 -3 -5 -111 -66 -240 -136 -273 -149 -617 -339 -853 -473 -92 -52 -172 -91
-178 -88 -6 4 -9 2 -8 -4 2 -6 -25 -27 -59 -47 -35 -19 -63 -33 -63 -30 0 9
40 47 40 39 0 -5 7 0 15 11 7 10 18 15 24 11 6 -3 11 1 11 10 0 13 -6 13 -40
-5 -23 -12 -38 -25 -35 -30 3 -6 -1 -7 -9 -4 -10 4 -16 1 -16 -7 0 -7 -3 -9
-7 -6 -3 4 -11 3 -17 -2 -13 -10 -46 -22 -46 -17 0 3 19 15 43 28 479 273 817
460 1127 625 41 22 118 63 172 92 68 37 98 48 101 39 4 -9 6 -9 6 2 1 21 195
120 199 102 2 -8 12 -11 25 -7z m57 21 c0 -2 -7 -7 -16 -10 -8 -3 -12 -2 -9 4
6 10 25 14 25 6z m595 -246 c-3 -5 -12 -10 -18 -10 -7 0 -6 4 3 10 19 12 23
12 15 0z m196 -173 c-10 -9 -11 -8 -5 6 3 10 9 15 12 12 3 -3 0 -11 -7 -18z
m-21 -11 c0 -2 -12 -11 -27 -20 l-28 -17 24 20 c23 21 31 25 31 17z m-320
-170 c0 -2 -8 -10 -17 -17 -16 -13 -17 -12 -4 4 13 16 21 21 21 13z m-80 -29
c0 -2 -15 -16 -32 -33 l-33 -29 29 33 c28 30 36 37 36 29z m20 -41 c0 -2 -8
-10 -17 -17 -16 -13 -17 -12 -4 4 13 16 21 21 21 13z m40 0 c0 -2 -8 -10 -17
-17 -16 -13 -17 -12 -4 4 13 16 21 21 21 13z m-180 -89 c0 -2 -10 -12 -22 -23
l-23 -19 19 23 c18 21 26 27 26 19z m-540 -277 c0 -5 -8 -10 -17 -10 -15 0
-16 2 -3 10 19 12 20 12 20 0z m-1265 -170 c-3 -5 -26 -21 -51 -36 -24 -14
-41 -30 -38 -36 3 -5 -3 -12 -14 -15 -28 -7 -35 -29 -9 -30 11 -1 23 -7 27
-14 5 -8 25 0 64 25 31 20 62 36 69 36 6 -1 -4 -9 -23 -20 -19 -10 -46 -29
-60 -42 l-25 -23 28 -3 c16 -2 34 2 42 8 9 7 15 8 20 0 3 -5 1 -10 -6 -10 -8
0 -8 -4 1 -15 16 -20 30 -19 60 5 14 11 30 20 35 20 6 0 -5 -10 -22 -21 -33
-21 -44 -49 -20 -49 6 0 21 7 31 15 31 23 42 18 12 -6 -30 -24 -33 -39 -8 -40
12 0 11 -3 -7 -10 -15 -6 -21 -14 -17 -25 3 -8 2 -13 -3 -10 -4 3 -46 -19 -91
-49 -46 -30 -90 -55 -99 -55 -18 0 -51 29 -51 44 0 11 55 45 153 96 26 14 47
31 47 38 0 14 -50 -8 -82 -35 -9 -8 -25 -13 -35 -11 -13 2 -3 11 32 29 59 32
66 45 25 54 -16 4 -43 13 -60 21 -24 12 -34 13 -52 3 -20 -11 -21 -10 -11 3 7
8 10 18 6 21 -11 12 -23 8 -23 -8 0 -8 -6 -15 -13 -15 -8 0 -42 -14 -76 -30
-62 -30 -63 -31 -46 -50 11 -12 13 -20 6 -20 -6 0 -14 6 -17 14 -3 8 -14 12
-27 9 -22 -4 -22 -4 -2 12 11 9 40 27 65 40 25 13 54 30 65 38 20 15 19 16 -9
38 -24 19 -26 23 -12 31 11 6 22 3 37 -11 21 -19 21 -19 49 5 23 22 129 93
138 94 2 0 0 -4 -3 -10z m155 -4 c0 -5 -79 -56 -87 -56 -5 0 12 14 37 30 46
31 50 33 50 26z m235 -66 c-10 -11 -23 -20 -29 -20 -6 0 0 9 14 20 32 25 38
25 15 0z m-145 -10 c-24 -19 -40 -25 -40 -15 0 5 51 34 60 34 3 0 -6 -8 -20
-19z m-100 5 c0 -2 -10 -10 -22 -16 -21 -11 -22 -11 -9 4 13 16 31 23 31 12z
m-55 -35 c-3 -5 -12 -10 -18 -10 -7 0 -6 4 3 10 19 12 23 12 15 0z m-216 -120
c4 0 18 12 30 26 12 14 25 24 27 21 10 -10 -21 -48 -43 -53 -18 -5 -23 -14
-24 -38 l-1 -31 -9 30 c-5 17 -6 46 -2 65 7 33 8 34 11 8 2 -16 7 -28 11 -28z
m358 -17 c-20 -2 -52 -2 -70 0 -17 2 0 4 38 4 39 0 53 -2 32 -4z m-52 -50 l0
-38 62 0 c84 0 66 -11 -27 -17 -41 -3 -69 -3 -62 -1 6 3 12 21 12 42 0 30 6
51 14 51 1 0 1 -17 1 -37z m122 -5 c-3 -7 -5 -2 -5 12 0 14 2 19 5 13 2 -7 2
-19 0 -25z m-460 -34 c-16 -14 -31 -23 -35 -19 -7 7 37 44 53 45 5 0 -3 -12
-18 -26z m740 -46 c-3 -8 -6 -5 -6 6 -1 11 2 17 5 13 3 -3 4 -12 1 -19z m-864
-205 c-23 -2 -64 -2 -90 0 -26 2 -7 3 42 3 50 0 71 -1 48 -3z m634 -390 c-3
-10 -5 -2 -5 17 0 19 2 27 5 18 2 -10 2 -26 0 -35z m83 -325 c0 -204 -2 -369
-4 -367 -9 11 -15 739 -6 739 7 0 10 -129 10 -372z m1683 232 c-5 -19 0 -20
78 -22 l84 -2 -82 -3 -83 -4 0 -43 0 -43 167 -6 c91 -4 314 -7 495 -7 l328 0
0 55 c0 48 2 55 20 55 11 0 20 -4 20 -10 0 -5 6 -10 14 -10 13 0 56 -57 70
-95 4 -11 11 -39 15 -61 l8 -42 -36 -6 c-20 -3 -78 -6 -128 -6 l-93 0 -2 -47
-1 -48 -6 50 c-7 56 5 52 -128 47 l-58 -3 24 -20 c22 -18 23 -24 18 -92 -6
-85 -41 -168 -91 -216 l-33 -32 -188 1 c-104 0 -191 2 -193 5 -3 3 53 6 124 6
71 1 143 5 159 9 17 4 24 8 18 9 -7 0 -14 11 -14 24 l-2 22 -4 -22 c-2 -13 -9
-23 -14 -23 -5 0 -9 40 -9 90 l0 89 -32 5 c-18 3 -51 7 -73 9 -22 1 5 6 63 11
l102 9 0 57 c0 44 -4 59 -16 64 -9 3 -135 6 -280 6 l-264 0 0 -25 c0 -14 -4
-25 -10 -25 -6 0 -10 53 -10 140 l0 140 -115 0 -115 0 0 -174 0 -173 133 -9
132 -9 -144 -3 c-79 -1 -145 -1 -146 0 -1 2 -5 92 -9 201 l-6 197 159 0 c154
0 159 -1 154 -20z m-706 -36 c-3 -3 -12 -4 -19 -1 -8 3 -5 6 6 6 11 1 17 -2
13 -5z m368 -244 c20 -5 -6 -8 -77 -9 -66 -1 -108 3 -108 9 0 12 139 12 185 0z
m-3712 -7 c-29 -2 -77 -2 -105 0 -29 2 -6 3 52 3 58 0 81 -1 53 -3z m397 1
c-59 -8 -190 -9 -190 -2 0 5 48 7 108 7 59 -1 96 -3 82 -5z m-1073 -90 c-3 -3
-12 -4 -19 -1 -8 3 -5 6 6 6 11 1 17 -2 13 -5z m110 -1 c-20 -2 -52 -2 -70 0
-17 2 0 4 38 4 39 0 53 -2 32 -4z m5465 -17 c23 4 23 4 0 -6 -28 -12 -42 -6
-42 18 1 16 1 16 10 0 6 -10 19 -14 32 -12z m-1967 -206 c186 0 336 -2 334 -4
-2 -3 -154 -6 -336 -8 l-333 -3 -22 25 c-19 20 -19 21 -2 7 19 -15 54 -17 359
-17z m-2815 -15 c0 -12 -4 -13 -19 -6 -11 6 -102 9 -232 8 -118 -2 -362 0
-544 3 -311 6 -298 6 233 8 499 2 562 0 562 -13z m510 3 c-216 -5 -398 -4
-430 1 -36 6 92 8 375 8 l430 0 -375 -9z m3053 5 c-40 -2 -107 -2 -150 0 -43
1 -10 3 72 3 83 0 118 -2 78 -3z"/>
<path d="M5123 9963 l-433 -3 0 -86 0 -86 96 4 95 3 -1 -212 -1 -213 240 0
241 0 2 213 3 212 98 0 97 0 0 88 c0 48 -1 86 -2 85 -2 -2 -198 -4 -435 -5z"/>
<path d="M7437 9911 c-4 -18 -6 -117 -5 -220 l1 -186 9 200 c9 212 7 263 -5
206z"/>
<path d="M2824 9750 c0 -102 2 -143 3 -92 2 50 2 134 0 185 -1 50 -3 9 -3 -93z"/>
<path d="M2862 9740 l-3 -160 145 0 146 0 0 160 0 160 -142 0 -143 0 -3 -160z"/>
<path d="M7110 9735 l0 -165 103 0 c56 0 119 3 140 7 l39 6 -4 158 -3 159
-137 0 -138 0 0 -165z"/>
<path d="M6986 9878 c-16 -52 -15 -58 16 -58 27 0 29 2 26 32 -3 34 -34 53
-42 26z"/>
<path d="M3277 9853 c-4 -27 -4 -27 -12 -5 -4 13 -16 22 -27 22 -14 0 -19 -6
-16 -22 3 -23 6 -23 156 -26 l152 -3 0 31 0 30 -124 0 -125 0 -4 -27z"/>
<path d="M6720 9733 l0 -36 98 6 c53 4 123 7 155 7 57 0 57 0 57 30 l0 30
-155 0 -155 0 0 -37z"/>
<path d="M5450 9560 l0 -190 55 0 55 0 0 190 0 190 -55 0 -55 0 0 -190z"/>
<path d="M4690 9555 l0 -185 50 0 50 0 0 185 0 185 -50 0 -50 0 0 -185z"/>
<path d="M3308 9653 l-88 -4 0 -35 0 -35 153 3 c150 3 152 3 155 26 6 39 -14
52 -77 50 -31 -1 -95 -4 -143 -5z"/>
<path d="M2822 9540 c0 -14 2 -19 5 -12 2 6 2 18 0 25 -3 6 -5 1 -5 -13z"/>
<path d="M6050 9312 l115 -111 183 -1 c100 0 182 3 182 8 0 4 -82 6 -182 4
l-183 -3 -85 87 c-47 47 -98 95 -115 107 -16 11 22 -29 85 -91z"/>
<path d="M3275 9393 c58 -11 61 -13 63 -41 1 -16 -4 -34 -11 -41 -8 -6 -91
-14 -203 -19 l-189 -9 187 -1 c181 -2 188 -1 208 20 11 12 20 30 20 40 0 16
10 18 88 20 l87 2 -90 6 -90 6 100 3 c132 3 111 8 -55 13 -74 3 -126 3 -115 1z"/>
<path d="M5814 9382 c3 -5 42 -31 88 -59 46 -28 115 -81 155 -117 l71 -66 296
0 c201 0 296 3 296 11 0 7 -94 9 -297 8 l-298 -3 -65 60 c-36 33 -79 70 -97
82 -44 31 -155 93 -149 84z"/>
<path d="M6703 9383 c48 -2 126 -2 175 0 48 1 8 3 -88 3 -96 0 -136 -2 -87 -3z"/>
<path d="M7002 9360 c-12 -10 -28 -20 -35 -23 -6 -2 -9 -7 -5 -11 3 -4 21 6
40 23 36 33 37 42 0 11z"/>
<path d="M3570 9366 c0 -2 13 -6 29 -8 17 -2 28 -1 25 4 -5 8 -54 12 -54 4z"/>
<path d="M4564 9328 l-29 -33 33 29 c17 17 32 31 32 33 0 8 -8 1 -36 -29z"/>
<path d="M6523 9295 c0 -38 2 -53 4 -32 2 20 2 52 0 70 -2 17 -4 1 -4 -38z"/>
<path d="M6628 9353 c7 -3 16 -2 19 1 4 3 -2 6 -13 5 -11 0 -14 -3 -6 -6z"/>
<path d="M6814 9353 c65 -3 82 -7 93 -23 8 -11 19 -20 25 -20 6 0 5 6 -3 16
-10 13 -10 17 2 25 9 5 -25 8 -91 7 -97 -2 -99 -2 -26 -5z"/>
<path d="M4440 9295 c-52 -53 -83 -68 -44 -23 10 13 -29 -23 -87 -79 l-106
-103 -321 0 -321 0 -83 -82 c-46 -44 -74 -75 -63 -68 11 8 50 43 87 79 l67 64
273 -7 c150 -3 294 -3 320 0 42 6 58 16 133 86 47 44 85 76 85 71 -1 -4 -41
-51 -91 -103 l-89 -95 -319 -5 -318 -5 -49 -39 c-63 -51 -69 -56 -63 -56 3 0
30 18 60 40 l54 41 324 -2 324 -1 37 29 c21 15 93 82 161 148 68 66 112 111
99 100 -14 -10 -68 -60 -120 -111 -89 -86 -184 -164 -200 -164 -3 0 68 77 159
170 91 94 161 170 156 170 -6 0 -35 -25 -65 -55z"/>
<path d="M3702 9290 c0 -14 2 -19 5 -12 2 6 2 18 0 25 -3 6 -5 1 -5 -13z"/>
<path d="M5220 9187 c0 -92 3 -124 13 -124 6 0 38 -4 70 -8 l58 -7 -3 128 -3
129 -67 3 -68 3 0 -124z"/>
<path d="M3444 9286 c-3 -7 -4 -35 -2 -62 l3 -49 5 63 c5 63 4 73 -6 48z"/>
<path d="M4690 9225 l0 -75 50 0 50 0 0 75 0 75 -50 0 -50 0 0 -75z"/>
<path d="M5450 9225 l0 -74 35 -7 c57 -10 63 -4 67 80 l3 76 -52 0 -53 0 0
-75z"/>
<path d="M6781 9243 c1 -62 6 -56 11 15 2 23 0 42 -4 42 -5 0 -7 -26 -7 -57z"/>
<path d="M6895 9292 c9 -10 385 -19 385 -9 0 4 -75 7 -167 8 -93 0 -181 2
-197 4 -15 2 -25 1 -21 -3z"/>
<path d="M1737 9220 c-5 -36 -6 -315 -3 -620 3 -305 2 -647 -1 -759 l-6 -204
-31 -35 c-17 -19 -62 -60 -101 -90 -38 -31 -73 -61 -77 -66 -4 -6 -8 -68 -8
-137 l0 -126 -257 1 c-163 1 -257 -3 -260 -9 -2 -7 91 -10 267 -10 l270 0 0
141 0 140 65 48 c35 26 87 73 115 104 79 88 230 312 315 467 132 239 218 378
266 430 26 28 75 84 110 126 35 41 131 153 213 248 l148 172 92 -5 c50 -3 120
-8 154 -12 35 -3 79 -3 98 1 l34 6 0 79 c0 54 4 80 13 83 9 3 9 7 0 19 -7 8
-10 17 -7 20 3 3 42 4 87 1 46 -3 93 0 107 5 18 8 -32 11 -187 11 -205 1 -213
0 -213 -19 0 -18 8 -20 103 -23 l102 -3 -102 -2 -103 -2 0 -72 0 -73 -71 3
c-39 2 -82 1 -95 -2 -13 -4 -55 -44 -96 -94 -118 -142 -308 -362 -373 -430
l-60 -64 -5 169 -6 168 -2 -183 -2 -183 -30 -43 c-16 -24 -82 -137 -146 -252
-109 -195 -218 -367 -282 -443 l-27 -33 3 724 c2 398 2 761 0 808 l-3 85 -8
-65z"/>
<path d="M3393 9273 c9 -2 23 -2 30 0 6 3 -1 5 -18 5 -16 0 -22 -2 -12 -5z"/>
<path d="M8510 8456 c0 -484 -4 -807 -9 -811 -16 -9 -160 219 -310 490 -46 83
-108 192 -139 243 l-55 93 0 162 0 162 -7 -150 c-4 -82 -8 -151 -8 -152 -4 -4
-127 132 -218 241 -54 65 -137 164 -184 220 l-85 101 -108 3 -107 3 0 69 0 70
-92 0 -93 0 1 -87 1 -88 97 -3 c81 -2 96 0 96 13 0 12 16 15 93 15 50 0 97 -4
102 -8 6 -4 94 -106 197 -227 102 -121 214 -252 249 -291 67 -75 89 -111 259
-414 222 -397 325 -538 463 -632 32 -22 62 -51 68 -64 5 -15 6 -74 2 -140 -4
-83 -3 -114 5 -114 14 0 17 258 4 275 -4 6 -34 27 -66 49 -33 21 -79 59 -104
85 l-44 46 1 823 c1 452 -1 822 -4 822 -3 0 -5 -362 -5 -804z"/>
<path d="M4578 9239 c-12 -6 -18 -22 -18 -44 0 -34 1 -35 38 -35 l37 0 -3 45
c-4 47 -17 56 -54 34z"/>
<path d="M5610 9200 l0 -50 35 0 c33 0 35 2 35 34 0 25 -7 39 -22 50 -38 27
-48 20 -48 -34z"/>
<path d="M6011 9212 c19 -22 43 -45 54 -52 11 -7 -2 11 -30 39 -58 60 -72 67
-24 13z"/>
<path d="M7030 9240 l-115 -6 93 -2 c53 -1 92 -6 92 -12 0 -6 37 -10 90 -10
83 0 90 1 90 20 0 22 -9 23 -250 10z"/>
<path d="M3565 9202 c-37 -2 -66 -9 -77 -19 -14 -12 -37 -15 -103 -14 -104 2
-205 -8 -205 -21 0 -6 7 -7 16 -4 9 4 76 9 147 12 101 3 135 8 149 21 15 13
35 15 120 11 57 -3 85 -3 63 -1 -22 3 -42 7 -45 11 -3 4 -32 6 -65 4z"/>
<path d="M6604 9198 c-2 -3 34 -8 81 -10 47 -2 85 0 85 4 0 9 -161 15 -166 6z"/>
<path d="M7295 9190 c-3 -5 -2 -10 4 -10 5 0 18 -3 28 -7 16 -6 16 -5 4 10
-15 19 -27 22 -36 7z"/>
<path d="M8810 8767 l0 -427 144 0 c79 0 152 -3 162 -7 12 -4 15 -3 10 5 -5 8
-53 12 -157 12 l-149 0 0 39 0 39 138 4 c82 2 143 -1 151 -7 11 -8 13 -6 9 5
-4 12 -32 16 -151 18 l-147 3 0 29 0 30 154 0 c139 0 156 -2 179 -20 32 -25
68 -75 71 -98 2 -14 16 -17 92 -18 49 0 69 1 44 3 -104 8 -107 9 -151 78 l-41
65 -164 0 c-151 0 -164 1 -174 19 -6 12 -10 136 -10 332 1 171 -2 314 -5 317
-3 3 -5 -187 -5 -421z"/>
<path d="M2805 9170 c-4 -6 13 -10 44 -10 27 0 53 5 56 10 4 6 -13 10 -44 10
-27 0 -53 -4 -56 -10z"/>
<path d="M3598 9173 c7 -3 16 -2 19 1 4 3 -2 6 -13 5 -11 0 -14 -3 -6 -6z"/>
<path d="M6788 9168 c5 -5 16 -8 23 -6 8 3 3 7 -10 11 -17 4 -21 3 -13 -5z"/>
<path d="M6745 9150 c17 -19 27 -20 134 -15 124 6 186 14 179 21 -3 2 -70 0
-149 -6 -125 -9 -145 -8 -155 5 -6 8 -15 15 -19 15 -5 0 0 -9 10 -20z"/>
<path d="M7350 9158 c0 -5 27 -8 60 -8 33 0 60 4 60 9 0 5 -27 8 -60 7 -33 0
-60 -4 -60 -8z"/>
<path d="M3479 9145 c-11 -11 -47 -17 -127 -22 -62 -3 -112 -9 -112 -12 0 -3
44 -3 98 0 53 4 98 6 100 4 17 -15 -59 -75 -96 -75 -11 0 -23 -4 -26 -9 -9
-13 56 3 85 22 13 9 41 37 62 62 38 45 45 59 16 30z"/>
<path d="M1490 8725 l0 -415 -272 0 c-149 0 -269 -2 -266 -5 7 -7 137 -9 371
-7 l177 2 0 415 0 414 73 4 72 3 -77 2 -78 2 0 -415z"/>
<path d="M8678 9133 l62 -4 0 -414 0 -415 278 2 277 3 -273 2 -274 3 7 159 c4
88 4 275 0 415 l-7 256 -67 -2 -66 -2 63 -3z"/>
<path d="M7720 9119 c0 -6 -21 -9 -57 -8 -32 2 -58 -2 -60 -7 -2 -7 22 -11 62
-12 58 -1 65 1 65 19 0 10 -2 19 -5 19 -3 0 -5 -5 -5 -11z"/>
<path d="M2500 9110 c-12 -7 -12 -12 -2 -22 9 -9 15 -9 24 0 16 16 -2 34 -22
22z"/>
<path d="M2560 9104 c0 -10 14 -14 55 -14 30 0 55 4 55 8 0 9 -1 9 -67 16 -32
3 -43 1 -43 -10z"/>
<path d="M7764 9111 c-14 -15 4 -20 64 -18 l67 2 5 -170 6 -170 2 162 c1 89 5
168 8 176 5 13 -8 16 -71 19 -42 2 -79 1 -81 -1z"/>
<path d="M2340 8953 l5 -158 5 150 5 150 53 -2 c29 -2 52 2 52 7 0 6 -28 10
-62 10 l-63 0 5 -157z"/>
<path d="M4687 9093 c-15 -3 -25 -9 -22 -14 8 -12 112 -12 120 1 3 6 -5 10
-19 10 -13 0 -30 2 -38 3 -7 2 -25 2 -41 0z"/>
<path d="M4385 9040 c-33 -27 -77 -63 -99 -80 l-39 -30 -321 4 -321 5 329 -10
328 -10 42 35 c62 51 152 135 146 136 -4 0 -33 -22 -65 -50z"/>
<path d="M4465 9080 c3 -5 44 -10 90 -10 46 0 87 5 90 10 4 6 -28 10 -90 10
-62 0 -94 -4 -90 -10z"/>
<path d="M5442 9085 c10 -11 308 -16 308 -6 0 7 -53 11 -157 11 -86 0 -154 -2
-151 -5z"/>
<path d="M6975 9081 c3 -5 1 -12 -5 -16 -5 -3 -10 -14 -10 -23 1 -14 2 -14 12
3 6 11 18 26 26 33 14 10 13 12 -7 12 -12 0 -20 -4 -16 -9z"/>
<path d="M3499 9063 c-13 -16 -12 -17 4 -4 9 7 17 15 17 17 0 8 -8 3 -21 -13z"/>
<path d="M5790 9059 c19 -12 68 -47 109 -78 l74 -56 345 -3 346 -3 34 -27 c77
-61 88 -67 52 -29 -71 76 -76 77 -441 77 l-325 0 -101 70 c-56 39 -107 70
-115 70 -7 0 3 -10 22 -21z"/>
<path d="M6820 9073 c30 -3 58 -10 62 -16 5 -8 8 -6 8 6 0 15 -9 17 -62 15
l-63 -2 55 -3z"/>
<path d="M4670 9030 c-11 -7 1 -10 40 -10 30 0 62 5 70 10 11 7 -1 10 -40 10
-30 0 -62 -5 -70 -10z"/>
<path d="M5510 9030 c135 -11 220 -11 220 -1 0 4 -71 8 -157 8 -149 0 -152 0
-63 -7z"/>
<path d="M4490 9020 c0 -6 30 -10 69 -10 39 0 73 5 76 10 4 6 -22 10 -69 10
-44 0 -76 -4 -76 -10z"/>
<path d="M3420 9004 c-14 -10 -44 -35 -67 -58 -47 -44 -58 -36 -17 13 14 17
22 31 17 31 -15 0 -28 -14 -40 -42 -11 -24 -18 -27 -70 -31 l-58 -3 63 -2 c51
-2 62 -5 63 -19 0 -15 2 -15 9 2 7 18 49 57 119 112 23 18 9 16 -19 -3z"/>
<path d="M6807 9000 c5 -18 3 -21 -8 -16 -8 4 -5 0 6 -8 11 -9 27 -22 35 -29
43 -34 51 -36 18 -3 -21 20 -38 38 -38 41 0 3 11 5 24 5 14 0 41 -15 63 -35
21 -19 42 -35 48 -35 5 0 -8 14 -29 32 -35 28 -37 33 -20 39 12 5 1 8 -31 8
-28 1 -56 6 -62 12 -9 9 -10 6 -6 -11z"/>
<path d="M6960 8997 c0 -21 44 -47 77 -46 26 1 25 2 -7 9 -19 5 -43 18 -52 30
-13 16 -18 18 -18 7z"/>
<path d="M3191 8958 l-36 -17 45 6 c48 6 94 34 50 30 -12 -1 -39 -9 -59 -19z"/>
<path d="M3700 8974 c81 -8 360 -8 360 -1 0 4 -89 6 -197 5 -109 -1 -182 -3
-163 -4z"/>
<path d="M6700 8963 c14 -9 35 -25 48 -36 12 -11 22 -16 22 -10 0 11 -70 63
-85 63 -5 0 2 -7 15 -17z"/>
<path d="M3593 8963 c15 -2 37 -2 50 0 12 2 0 4 -28 4 -27 0 -38 -2 -22 -4z"/>
<path d="M4125 8961 c30 -9 142 -14 134 -7 -2 2 -40 6 -84 9 -49 4 -68 3 -50
-2z"/>
<path d="M3091 8927 c-13 -21 -12 -21 5 -5 10 10 16 20 13 22 -3 3 -11 -5 -18
-17z"/>
<path d="M7083 8943 c9 -2 25 -2 35 0 9 3 1 5 -18 5 -19 0 -27 -2 -17 -5z"/>
<path d="M7140 8940 c0 -5 5 -10 11 -10 5 0 7 5 4 10 -3 6 -8 10 -11 10 -2 0
-4 -4 -4 -10z"/>
<path d="M3005 8929 c-11 -17 1 -21 15 -4 8 9 8 15 2 15 -6 0 -14 -5 -17 -11z"/>
<path d="M7200 8932 c0 -5 7 -9 15 -9 8 0 12 4 9 9 -3 4 -9 8 -15 8 -5 0 -9
-4 -9 -8z"/>
<path d="M2940 8915 c-7 -9 -10 -18 -7 -21 3 -3 10 4 17 15 13 25 8 27 -10 6z"/>
<path d="M3385 8885 c-35 -30 -47 -34 -100 -36 -33 -1 -73 -5 -90 -10 -18 -5
7 -6 64 -2 93 5 95 6 135 44 50 48 45 51 -9 4z"/>
<path d="M6983 8913 c9 -2 25 -2 35 0 9 3 1 5 -18 5 -19 0 -27 -2 -17 -5z"/>
<path d="M1925 8900 c3 -5 10 -10 16 -10 5 0 9 5 9 10 0 6 -7 10 -16 10 -8 0
-12 -4 -9 -10z"/>
<path d="M1990 8900 c0 -5 9 -10 20 -10 11 0 20 5 20 10 0 6 -9 10 -20 10 -11
0 -20 -4 -20 -10z"/>
<path d="M2074 8903 c11 -11 46 -14 46 -3 0 6 -12 10 -27 10 -14 0 -23 -3 -19
-7z"/>
<path d="M6906 8898 c5 -8 2 -9 -10 -5 -9 4 -15 3 -11 -2 6 -11 9 -11 125 -15
65 -2 67 -2 8 1 -51 3 -80 9 -88 18 -15 18 -34 20 -24 3z"/>
<path d="M8110 8900 c0 -5 11 -10 25 -10 14 0 25 5 25 10 0 6 -11 10 -25 10
-14 0 -25 -4 -25 -10z"/>
<path d="M8210 8900 c0 -5 9 -10 20 -10 11 0 20 5 20 10 0 6 -9 10 -20 10 -11
0 -20 -4 -20 -10z"/>
<path d="M8290 8906 c0 -2 9 -6 20 -9 11 -3 20 -1 20 4 0 5 -9 9 -20 9 -11 0
-20 -2 -20 -4z"/>
<path d="M3519 8817 c-81 -78 -69 -72 24 11 l58 52 262 3 262 2 -265 2 -265 2
-76 -72z"/>
<path d="M6255 8880 c-38 -3 40 -4 175 -2 135 3 247 6 249 8 7 6 -347 1 -424
-6z"/>
<path d="M2872 8827 c-24 -29 -71 -80 -104 -115 -34 -34 -58 -65 -54 -69 8 -8
5 -10 121 125 48 56 86 104 84 107 -2 2 -24 -20 -47 -48z"/>
<path d="M6815 8860 c10 -11 20 -20 23 -20 3 0 -3 9 -13 20 -10 11 -20 20 -23
20 -3 0 3 -9 13 -20z"/>
<path d="M2985 8860 c-3 -6 1 -7 9 -4 18 7 21 14 7 14 -6 0 -13 -4 -16 -10z"/>
<path d="M6869 8851 c21 -19 36 -21 152 -21 l129 0 53 -54 c28 -29 82 -86 119
-125 37 -39 72 -71 77 -71 6 0 -10 19 -34 41 -25 23 -42 45 -39 50 3 5 2 8 -3
7 -4 -1 -44 34 -88 79 l-80 82 -130 2 c-92 1 -137 6 -155 16 l-25 14 24 -20z"/>
<path d="M7256 8843 c17 -15 55 -48 85 -71 l54 -44 -55 51 c-30 29 -68 61 -85
72 l-30 21 31 -29z"/>
<path d="M2810 8578 c-155 -156 -300 -309 -322 -340 -23 -32 -43 -58 -46 -58
-2 0 -1 12 3 27 4 16 3 25 -1 20 -12 -11 -15 -79 -4 -72 6 4 28 32 49 63 47
70 586 617 621 631 24 9 24 10 3 10 -16 1 -99 -76 -303 -281z"/>
<path d="M2227 8843 c-3 -5 -2 -15 2 -22 7 -10 10 -10 16 -1 4 6 3 16 -3 22
-5 5 -12 6 -15 1z"/>
<path d="M6614 8843 c54 -4 65 -9 128 -59 39 -29 75 -54 82 -54 6 0 2 6 -8 12
-11 6 -47 33 -80 60 -58 46 -62 48 -120 46 l-61 -2 59 -3z"/>
<path d="M7396 8842 c-7 -12 22 -38 31 -28 4 3 0 14 -9 22 -9 10 -18 12 -22 6z"/>
<path d="M1920 8830 c0 -5 9 -10 21 -10 11 0 17 5 14 10 -3 6 -13 10 -21 10
-8 0 -14 -4 -14 -10z"/>
<path d="M1990 8830 c0 -5 12 -10 26 -10 14 0 23 4 19 10 -3 6 -15 10 -26 10
-10 0 -19 -4 -19 -10z"/>
<path d="M2190 8830 c0 -5 5 -10 10 -10 6 0 10 5 10 10 0 6 -4 10 -10 10 -5 0
-10 -4 -10 -10z"/>
<path d="M3535 8784 c-57 -53 -57 -54 -9 -15 47 37 82 71 73 71 -2 0 -31 -25
-64 -56z"/>
<path d="M7200 8833 c8 -3 44 -33 80 -67 l65 -61 -65 68 c-35 37 -71 67 -80
66 -13 0 -13 -1 0 -6z"/>
<path d="M8085 8830 c-3 -5 1 -10 9 -10 9 0 16 5 16 10 0 6 -4 10 -9 10 -6 0
-13 -4 -16 -10z"/>
<path d="M8130 8830 c0 -5 7 -10 15 -10 8 0 15 5 15 10 0 6 -7 10 -15 10 -8 0
-15 -4 -15 -10z"/>
<path d="M8200 8830 c0 -5 12 -10 26 -10 14 0 23 4 19 10 -3 6 -15 10 -26 10
-10 0 -19 -4 -19 -10z"/>
<path d="M8280 8830 c0 -6 11 -9 25 -7 37 5 42 17 7 17 -18 0 -32 -5 -32 -10z"/>
<path d="M2070 8826 c0 -9 40 -13 46 -5 3 5 -6 9 -20 9 -14 0 -26 -2 -26 -4z"/>
<path d="M2690 8733 c-47 -53 -148 -163 -225 -245 -192 -205 -222 -244 -304
-391 -102 -182 -254 -421 -316 -497 -53 -64 -160 -172 -201 -201 -46 -32 -54
-58 -53 -169 0 -68 3 -98 9 -85 5 11 9 62 9 112 l1 92 37 33 c124 111 210 201
264 277 61 86 234 371 282 466 46 91 126 194 255 328 70 72 170 179 221 237
52 58 104 113 115 122 16 13 17 17 6 17 -8 0 -53 -44 -100 -96z"/>
<path d="M2905 8758 c-108 -112 -150 -158 -143 -158 3 0 55 52 115 115 60 63
106 115 103 115 -3 0 -37 -33 -75 -72z"/>
<path d="M6800 8826 c0 -3 9 -10 20 -16 11 -6 20 -8 20 -6 0 3 -9 10 -20 16
-11 6 -20 8 -20 6z"/>
<path d="M6795 8800 c10 -11 20 -20 23 -20 3 0 -3 9 -13 20 -10 11 -20 20 -23
20 -3 0 3 -9 13 -20z"/>
<path d="M2970 8668 c-73 -79 -179 -188 -235 -243 -101 -100 -237 -259 -352
-411 -34 -45 -102 -128 -150 -186 -48 -57 -133 -162 -188 -233 -55 -71 -131
-163 -170 -205 -63 -69 -64 -70 -11 -20 31 30 101 109 154 175 53 66 140 172
192 235 52 64 158 196 235 295 80 103 207 248 296 340 86 88 193 202 239 253
45 50 96 103 113 117 18 14 28 25 22 25 -5 0 -71 -64 -145 -142z"/>
<path d="M6610 8800 c8 -6 24 -15 35 -21 16 -8 15 -6 -4 10 -13 12 -28 21 -35
21 -6 0 -4 -5 4 -10z"/>
<path d="M7541 8780 c25 -37 229 -291 365 -453 45 -53 101 -134 125 -180 23
-45 56 -104 72 -132 16 -27 61 -106 99 -175 124 -222 230 -353 332 -412 115
-67 108 -54 104 -196 -2 -78 -7 -126 -14 -130 -7 -4 7 -20 35 -41 39 -29 42
-30 22 -8 -36 40 -10 33 29 -8 33 -35 36 -61 3 -34 -11 9 -14 10 -9 2 4 -7 16
-18 28 -24 12 -7 18 -7 14 -1 -3 6 0 12 6 15 15 5 -33 60 -74 85 l-28 16 0
133 0 133 -42 26 c-146 90 -186 130 -295 294 -47 70 -167 277 -261 450 -44 81
-93 148 -187 257 -33 38 -115 136 -182 219 -67 82 -131 160 -143 174 -20 23
-20 22 1 -10z m1114 -1690 c3 -5 2 -10 -4 -10 -5 0 -13 5 -16 10 -3 6 -2 10 4
10 5 0 13 -4 16 -10z"/>
<path d="M6865 8794 c43 -7 289 -10 265 -3 -14 4 -83 7 -155 7 -71 -1 -121 -2
-110 -4z"/>
<path d="M1920 8755 c0 -10 7 -15 18 -13 21 4 19 22 -2 26 -10 2 -16 -3 -16
-13z"/>
<path d="M1995 8762 c-11 -11 -4 -22 15 -22 11 0 20 6 20 13 0 13 -25 19 -35
9z"/>
<path d="M2080 8760 c0 -5 6 -10 14 -10 8 0 18 5 21 10 3 6 -3 10 -14 10 -12
0 -21 -4 -21 -10z"/>
<path d="M2341 8754 c0 -11 3 -14 6 -6 3 7 2 16 -1 19 -3 4 -6 -2 -5 -13z"/>
<path d="M3715 8758 c-11 -6 -49 -30 -85 -53 -36 -23 -72 -45 -80 -48 -12 -4
-11 -6 3 -6 15 -1 149 81 182 110 12 12 4 11 -20 -3z"/>
<path d="M6670 8767 c0 -9 102 -87 113 -87 5 0 -1 8 -14 18 -74 56 -99 74 -99
69z"/>
<path d="M8094 8758 c-3 -4 11 -8 30 -8 20 0 36 4 36 8 0 5 -14 9 -30 9 -17 0
-33 -4 -36 -9z"/>
<path d="M8204 8758 c-3 -4 6 -8 20 -8 14 0 26 4 26 9 0 11 -39 10 -46 -1z"/>
<path d="M8300 8753 c0 -7 7 -13 15 -13 8 0 15 6 15 13 0 8 -7 14 -15 14 -8 0
-15 -6 -15 -14z"/>
<path d="M3294 8751 l-130 -6 -122 -115 c-67 -63 -122 -119 -122 -123 0 -5 52
42 116 105 63 62 125 116 137 120 12 3 72 6 134 7 63 1 115 5 118 11 3 6 5 9
3 8 -2 -1 -62 -4 -134 -7z"/>
<path d="M6985 8743 c72 -2 137 -6 145 -10 8 -3 19 -7 23 -7 5 -1 19 -13 30
-27 12 -14 77 -68 145 -119 67 -51 162 -131 209 -178 48 -47 77 -72 65 -56
-30 42 -116 122 -202 189 -41 33 -92 75 -112 94 -21 19 -38 31 -38 26 0 -5
-23 13 -50 40 l-51 50 -147 1 -147 0 130 -3z"/>
<path d="M3418 8713 c7 -3 16 -2 19 1 4 3 -2 6 -13 5 -11 0 -14 -3 -6 -6z"/>
<path d="M7401 8699 c-7 -12 -10 -23 -8 -26 3 -3 11 5 17 17 15 28 8 35 -9 9z"/>
<path d="M6613 8702 c4 -5 28 -24 54 -41 46 -30 49 -31 162 -30 64 1 145 5
181 9 45 6 12 8 -112 5 l-178 -3 -42 27 c-70 44 -72 45 -65 33z"/>
<path d="M7110 8695 c31 -16 286 -292 345 -372 24 -32 57 -74 74 -93 31 -34
-76 114 -127 175 -71 87 -287 305 -301 305 -11 -1 -8 -5 9 -15z"/>
<path d="M3415 8690 c-28 -7 -28 -8 -5 -9 14 0 32 4 40 9 17 11 8 11 -35 0z"/>
<path d="M7487 8681 c-4 -17 -3 -21 5 -13 5 5 8 16 6 23 -3 8 -7 3 -11 -10z"/>
<path d="M6828 8683 c7 -3 16 -2 19 1 4 3 -2 6 -13 5 -11 0 -14 -3 -6 -6z"/>
<path d="M2923 8453 c-126 -126 -244 -248 -263 -273 -19 -24 83 75 226 220
l262 265 103 6 104 5 -102 2 -102 2 -228 -227z"/>
<path d="M7062 8671 c16 -4 68 -50 131 -116 58 -61 131 -133 163 -159 33 -27
-15 26 -106 117 -131 132 -170 167 -190 166 l-25 -1 27 -7z"/>
<path d="M3443 8663 c9 -2 23 -2 30 0 6 3 -1 5 -18 5 -16 0 -22 -2 -12 -5z"/>
<path d="M7353 8653 c4 -6 26 -26 49 -45 23 -18 39 -28 35 -21 -4 6 -26 26
-49 45 -23 18 -39 28 -35 21z"/>
<path d="M7450 8637 c0 -5 155 -155 255 -247 68 -62 67 -61 -15 24 -86 88
-240 232 -240 223z"/>
<path d="M7300 8570 c0 -7 146 -148 181 -175 14 -11 3 3 -25 30 -90 90 -156
151 -156 145z"/>
<path d="M2544 8398 c-114 -116 -181 -193 -203 -233 -64 -113 -95 -160 -226
-335 -132 -176 -222 -305 -171 -245 14 17 84 105 155 198 119 154 173 233 245
361 39 68 119 161 260 304 66 67 118 122 115 122 -3 0 -82 -78 -175 -172z"/>
<path d="M7480 8523 c122 -104 246 -249 299 -348 17 -33 29 -49 25 -35 -12 45
-33 78 -114 179 -80 99 -234 251 -254 251 -6 0 14 -21 44 -47z"/>
<path d="M2504 8418 c-136 -138 -179 -193 -207 -266 -25 -62 -20 -65 8 -5 32
72 96 156 179 238 80 78 161 165 154 165 -2 0 -63 -60 -134 -132z"/>
<path d="M2729 8533 c-13 -16 -12 -17 4 -4 9 7 17 15 17 17 0 8 -8 3 -21 -13z"/>
<path d="M3019 8493 l-24 -28 28 24 c25 23 32 31 24 31 -2 0 -14 -12 -28 -27z"/>
<path d="M2654 8468 l-29 -33 33 29 c30 28 37 36 29 36 -2 0 -16 -15 -33 -32z"/>
<path d="M2829 8393 l-24 -28 28 24 c25 23 32 31 24 31 -2 0 -14 -12 -28 -27z"/>
<path d="M555 8368 c-3 -18 -5 -112 -3 -208 l3 -175 98 -3 97 -3 0 211 0 210
-95 0 -94 0 -6 -32z"/>
<path d="M905 8380 l-40 -7 42 -2 c23 0 45 4 48 9 3 6 3 9 -2 9 -4 -1 -26 -5
-48 -9z"/>
<path d="M7480 8367 c0 -8 190 -248 237 -299 14 -14 25 -30 26 -35 0 -8 173
-228 216 -276 14 -15 26 -33 27 -41 2 -18 75 -116 100 -136 10 -8 2 5 -19 29
-50 60 -47 77 4 21 l41 -45 -33 45 c-18 25 -58 74 -89 110 -31 36 -85 101
-120 145 -35 44 -79 97 -99 118 -20 21 -35 41 -34 45 2 4 -48 69 -110 146 -61
76 -120 148 -129 160 -10 11 -18 17 -18 13z m550 -689 c0 -14 -19 1 -31 25
-12 22 -12 22 10 3 11 -11 21 -23 21 -28z"/>
<path d="M7780 8344 c104 -127 150 -188 150 -198 0 -6 -8 -2 -16 9 -16 19 -16
19 -9 -5 6 -19 -5 -11 -41 30 -27 30 -67 73 -89 95 -32 33 -34 34 -9 5 85 -99
126 -153 173 -230 29 -47 77 -119 107 -160 29 -41 53 -77 51 -80 -1 -3 19 -32
44 -65 25 -33 84 -112 130 -176 81 -111 140 -173 186 -198 22 -11 23 -17 26
-189 l2 -177 3 177 2 177 -59 46 c-33 26 -86 83 -118 127 -32 44 -90 121 -129
171 -39 51 -69 98 -67 105 4 9 9 10 19 1 8 -6 12 -15 9 -19 -3 -4 9 -23 25
-41 17 -19 49 -59 72 -89 79 -103 165 -195 221 -235 31 -22 58 -47 60 -55 4
-13 5 -13 6 0 0 9 -29 38 -65 65 -71 54 -137 125 -224 244 -30 41 -97 131
-149 200 -52 69 -105 144 -118 166 -12 22 -23 33 -23 25 0 -8 -9 0 -20 18 -25
41 -25 54 0 23 15 -17 20 -19 20 -8 0 9 -4 18 -9 21 -5 3 -7 14 -5 24 3 11
-23 51 -75 114 -44 53 -85 99 -93 104 -7 4 -1 -6 12 -22z m184 -300 c3 -8 2
-12 -4 -9 -6 3 -10 10 -10 16 0 14 7 11 14 -7z m79 -116 c73 -98 80 -108 74
-108 -6 0 -109 136 -133 175 -27 45 -14 30 59 -67z"/>
<path d="M2730 8303 l-55 -58 58 55 c31 30 57 56 57 57 0 8 -10 -1 -60 -54z"/>
<path d="M1650 8322 c0 -15 -180 -206 -207 -220 -14 -8 -35 -11 -48 -8 -13 3
-27 0 -33 -7 -9 -10 0 -12 44 -7 60 7 54 2 169 130 82 91 103 120 85 120 -5 0
-10 -4 -10 -8z"/>
<path d="M8591 8319 c-1 -9 42 -63 95 -120 53 -57 100 -108 104 -112 10 -11
100 -16 100 -5 0 4 -15 8 -32 8 -18 1 -43 6 -56 14 -23 12 -177 176 -199 212
-10 16 -12 16 -12 3z"/>
<path d="M9322 8288 c0 -21 4 -38 9 -38 11 0 11 28 0 55 -7 15 -9 11 -9 -17z"/>
<path d="M927 8303 c-4 -3 -7 -11 -7 -17 0 -6 5 -5 12 2 6 6 9 14 7 17 -3 3
-9 2 -12 -2z"/>
<path d="M7665 8270 c47 -55 48 -56 37 -35 -6 11 -23 31 -39 45 l-28 25 30
-35z"/>
<path d="M7830 8240 c23 -27 44 -50 47 -50 3 0 -14 23 -37 50 -23 28 -44 50
-47 50 -3 0 14 -22 37 -50z"/>
<path d="M7465 8250 c10 -11 20 -20 23 -20 3 0 -3 9 -13 20 -10 11 -20 20 -23
20 -3 0 3 -9 13 -20z"/>
<path d="M7640 8245 c13 -14 26 -25 28 -25 3 0 -5 11 -18 25 -13 14 -26 25
-28 25 -3 0 5 -11 18 -25z"/>
<path d="M975 8220 c41 -11 141 -19 124 -10 -8 4 -45 10 -84 13 -44 3 -59 2
-40 -3z"/>
<path d="M9160 8217 c-23 -8 -35 -19 -37 -32 -1 -15 0 -15 3 -3 6 21 30 29
109 38 l60 7 -50 1 c-27 1 -66 -4 -85 -11z"/>
<path d="M7706 8165 c17 -22 56 -75 88 -117 32 -43 60 -78 63 -78 3 0 -6 15
-21 33 -14 17 -46 61 -70 97 -25 36 -55 75 -67 85 -17 15 -15 9 7 -20z"/>
<path d="M810 7960 l0 -180 121 0 c106 0 120 2 115 16 -3 9 -6 90 -6 180 l0
164 -115 0 -115 0 0 -180z"/>
<path d="M9190 8043 c0 -54 -3 -131 -7 -172 -4 -57 -3 -75 8 -82 17 -11 210
-12 224 -1 6 4 11 80 13 180 l4 172 -121 0 -121 0 0 -97z"/>
<path d="M7675 8080 c21 -22 41 -40 44 -40 3 0 -13 18 -34 40 -21 22 -41 40
-44 40 -3 0 13 -18 34 -40z"/>
<path d="M9114 7995 c0 -66 1 -92 3 -57 2 34 2 88 0 120 -2 31 -3 3 -3 -63z"/>
<path d="M1113 8065 c0 -22 2 -30 4 -17 2 12 2 30 0 40 -3 9 -5 -1 -4 -23z"/>
<path d="M1385 8041 c-8 -14 -1 -231 7 -231 5 0 8 54 8 120 0 115 -2 131 -15
111z"/>
<path d="M8850 7950 c-1 -58 -3 -113 -5 -122 -2 -10 2 -18 9 -18 10 0 12 26 9
108 -6 146 -10 158 -13 32z"/>
<path d="M7860 8026 c0 -2 8 -10 18 -17 15 -13 16 -12 3 4 -13 16 -21 21 -21
13z"/>
<path d="M2278 7998 c-22 -34 -42 -74 -31 -63 14 15 55 85 50 85 -3 0 -11 -10
-19 -22z"/>
<path d="M1106 7918 c-4 -53 -6 -102 -3 -110 7 -21 19 92 15 152 -3 48 -4 44
-12 -42z"/>
<path d="M7910 7960 c106 -158 282 -390 329 -434 38 -36 42 -59 4 -25 l-27 24
21 -27 c34 -45 167 -185 155 -163 -6 11 -36 45 -66 75 -54 53 -79 93 -34 54
22 -19 23 -19 8 1 -8 11 -36 45 -61 75 -26 30 -111 141 -189 245 -139 186
-187 245 -140 175z"/>
<path d="M7900 7911 c5 -11 15 -23 21 -27 6 -3 3 5 -6 20 -20 30 -30 35 -15 7z"/>
<path d="M2169 7833 c-23 -32 -66 -85 -94 -118 -28 -33 -70 -86 -94 -117 -23
-32 -90 -102 -147 -157 l-104 -101 0 -150 0 -150 -37 -32 c-90 -80 -111 -105
-38 -45 l80 65 3 158 c3 158 10 194 35 161 11 -16 18 -11 78 45 36 35 71 73
77 85 7 12 -21 -13 -62 -54 -41 -41 -79 -73 -84 -69 -5 3 33 49 84 102 52 53
125 135 162 183 36 47 85 109 107 136 48 57 88 115 82 115 -3 0 -24 -26 -48
-57z"/>
<path d="M9242 7749 c-12 -5 -22 -13 -22 -19 0 -5 -6 -10 -14 -10 -8 0 -17 -4
-20 -9 -3 -5 45 -9 109 -10 63 -1 115 2 115 6 0 5 -7 19 -16 31 -16 24 -43 29
-61 11 -8 -8 -20 -9 -40 -2 -16 6 -38 7 -51 2z"/>
<path d="M836 7734 c-9 -8 -16 -20 -16 -25 0 -5 49 -9 110 -9 61 0 110 3 110
8 0 4 -9 15 -20 25 -26 22 -80 23 -80 2 0 -8 -7 -15 -15 -15 -8 0 -15 7 -15
15 0 20 -54 20 -74 -1z"/>
<path d="M9122 7640 c0 -14 2 -19 5 -12 2 6 2 18 0 25 -3 6 -5 1 -5 -13z"/>
<path d="M818 7588 c0 -29 -2 -72 -2 -95 l-1 -43 107 0 107 0 3 95 3 95 -107
0 -108 0 -2 -52z"/>
<path d="M9210 7545 l0 -95 104 0 105 0 3 95 3 95 -107 0 -108 0 0 -95z"/>
<path d="M1113 7565 c0 -38 2 -53 4 -32 2 20 2 52 0 70 -2 17 -4 1 -4 -38z"/>
<path d="M8100 7556 c0 -2 8 -10 18 -17 15 -13 16 -12 3 4 -13 16 -21 21 -21
13z"/>
<path d="M1800 7481 c-30 -30 -73 -65 -95 -79 -46 -29 -55 -40 -54 -67 1 -16
2 -15 8 5 4 14 30 40 61 62 54 37 148 125 140 130 -3 2 -30 -21 -60 -51z"/>
<path d="M8215 7427 c49 -53 91 -97 93 -97 7 0 -124 147 -153 170 -16 14 10
-19 60 -73z"/>
<path d="M2009 7473 c-13 -16 -12 -17 4 -4 9 7 17 15 17 17 0 8 -8 3 -21 -13z"/>
<path d="M8405 7371 c19 -21 20 -42 25 -300 l6 -276 2 276 2 276 -27 24 c-28
24 -28 24 -8 0z"/>
<path d="M8563 7373 c14 -16 17 -40 17 -146 0 -78 4 -127 10 -127 6 0 10 50
10 129 l0 129 -27 17 c-28 18 -28 18 -10 -2z"/>
<path d="M1994 7348 l-19 -23 23 19 c21 18 27 26 19 26 -2 0 -12 -10 -23 -22z"/>
<path d="M1401 7341 c-8 -5 -9 -11 -3 -15 5 -3 12 1 16 9 6 17 6 18 -13 6z"/>
<path d="M1624 7235 c0 -60 1 -84 3 -52 2 32 2 81 0 110 -2 29 -3 3 -3 -58z"/>
<path d="M1668 7243 c-1 -54 -2 -107 -2 -119 -1 -13 -26 -43 -68 -78 -61 -52
-98 -95 -98 -112 0 -4 12 9 28 28 15 20 55 60 90 89 l62 52 0 119 c0 65 -2
118 -5 118 -3 0 -6 -44 -7 -97z"/>
<path d="M8523 7181 c2 -128 5 -153 21 -170 21 -23 170 -125 161 -110 -4 5
-37 30 -75 55 -37 24 -74 51 -80 59 -9 11 -12 58 -11 165 2 97 -1 150 -8 150
-7 0 -9 -52 -8 -149z"/>
<path d="M1712 7194 l-2 -132 -69 -56 c-38 -31 -75 -64 -83 -73 -7 -9 21 11
63 44 41 34 81 68 87 76 9 10 12 53 9 143 l-3 129 -2 -131z"/>
<path d="M1215 7300 l-40 -7 45 -1 c25 0 70 3 100 8 l55 7 -60 0 c-33 0 -78
-3 -100 -7z"/>
<path d="M1794 7125 c0 -104 2 -146 3 -92 2 54 2 139 0 190 -1 51 -3 7 -3 -98z"/>
<path d="M1166 7265 c-3 -8 -1 -15 4 -15 6 0 10 5 10 10 0 6 9 10 20 10 11 0
20 -5 20 -10 0 -16 122 -8 128 8 6 19 -174 17 -182 -3z"/>
<path d="M8790 7180 c-20 -6 82 -10 295 -10 3 0 6 3 8 8 3 10 -272 12 -303 2z"/>
<path d="M9110 7178 c0 -4 23 -8 50 -8 28 0 50 5 50 10 0 7 -20 10 -50 9 -27
-2 -50 -6 -50 -11z"/>
<path d="M920 7153 c-19 -15 -41 -33 -48 -40 -8 -8 -29 -25 -48 -39 -33 -25
-45 -54 -23 -54 5 0 8 4 4 10 -3 5 29 37 72 71 94 74 100 79 88 79 -6 0 -26
-12 -45 -27z"/>
<path d="M9260 7168 c14 -7 40 -20 58 -31 17 -10 32 -16 32 -13 0 9 -86 56
-101 55 -8 0 -3 -5 11 -11z"/>
<path d="M1593 7097 c-61 -44 -124 -109 -119 -120 3 -9 5 -9 5 -1 1 7 34 38
74 70 96 77 93 74 81 74 -6 0 -24 -10 -41 -23z"/>
<path d="M9377 7099 c12 -12 24 -21 27 -18 2 2 -8 13 -22 23 l-27 19 22 -24z"/>
<path d="M1220 7077 l0 -33 116 2 c105 2 118 4 140 25 13 12 24 26 24 31 0 4
-63 8 -140 8 l-140 0 0 -33z"/>
<path d="M8756 7096 c14 -36 50 -46 169 -46 l116 0 -3 28 -3 27 -142 3 c-122
2 -142 0 -137 -12z"/>
<path d="M9071 7101 c-7 -5 -9 -10 -3 -12 5 -2 13 -23 17 -46 l7 -43 -134 -1
c-106 -2 -122 -3 -78 -9 30 -5 92 -8 138 -9 l82 -1 -1 28 c0 15 -3 44 -7 64
-5 28 -10 35 -21 29z"/>
<path d="M1080 7090 c0 -5 5 -10 10 -10 6 0 10 5 10 10 0 6 -4 10 -10 10 -5 0
-10 -4 -10 -10z"/>
<path d="M1162 7049 l-2 -56 68 -6 c37 -3 101 -2 142 2 70 8 66 8 -62 10
l-137 1 -4 53 -3 52 -2 -56z"/>
<path d="M9150 7090 c0 -5 7 -10 15 -10 8 0 15 5 15 10 0 6 -7 10 -15 10 -8 0
-15 -4 -15 -10z"/>
<path d="M9405 7060 c3 -5 13 -10 21 -10 8 0 12 5 9 10 -3 6 -13 10 -21 10 -8
0 -12 -4 -9 -10z"/>
<path d="M8610 7024 c30 -20 69 -48 85 -63 l30 -26 -30 33 c-29 33 -114 92
-131 92 -5 0 16 -16 46 -36z"/>
<path d="M1735 7000 c-3 -5 -2 -10 4 -10 5 0 13 5 16 10 3 6 2 10 -4 10 -5 0
-13 -4 -16 -10z"/>
<path d="M8760 6950 c6 -11 13 -20 16 -20 2 0 0 9 -6 20 -6 11 -13 20 -16 20
-2 0 0 -9 6 -20z"/>
<path d="M1510 6895 c-23 -24 -28 -25 -156 -25 -73 0 -135 -3 -137 -7 -3 -5
56 -7 131 -6 l136 2 30 30 c17 17 28 31 25 31 -3 0 -16 -11 -29 -25z"/>
<path d="M8752 6891 c12 -19 22 -21 113 -21 131 -1 179 -11 218 -46 l32 -29
-29 33 c-38 42 -78 52 -201 52 -76 0 -106 4 -124 16 -22 16 -22 16 -9 -5z"/>
<path d="M1174 6828 l-19 -23 23 19 c21 18 27 26 19 26 -2 0 -12 -10 -23 -22z"/>
<path d="M9055 6712 l89 -92 116 6 c104 6 191 27 175 42 -3 3 -15 0 -28 -6
-17 -9 -199 -32 -250 -32 -5 0 -51 39 -101 87 l-91 88 90 -93z"/>
<path d="M8464 6590 c0 -96 2 -136 3 -87 2 48 2 126 0 175 -1 48 -3 8 -3 -88z"/>
<path d="M9173 6697 c-3 -5 0 -14 6 -20 8 -8 11 -8 11 2 0 7 6 11 13 8 8 -3
19 -2 26 3 9 5 2 9 -18 12 -18 3 -34 1 -38 -5z"/>
<path d="M563 6625 c0 -27 2 -38 4 -22 2 15 2 37 0 50 -2 12 -4 0 -4 -28z"/>
<path d="M1095 6625 c-16 -14 -25 -25 -19 -25 6 0 21 11 34 25 30 32 24 31
-15 0z"/>
<path d="M8434 6440 c0 -85 2 -120 3 -77 2 42 2 112 0 155 -1 42 -3 7 -3 -78z"/>
<path d="M938 6563 c7 -3 16 -2 19 1 4 3 -2 6 -13 5 -11 0 -14 -3 -6 -6z"/>
<path d="M8473 6340 c0 -36 2 -50 4 -32 2 17 2 47 0 65 -2 17 -4 3 -4 -33z"/>
<path d="M8453 6310 c0 -36 2 -50 4 -32 2 17 2 47 0 65 -2 17 -4 3 -4 -33z"/>
<path d="M8461 6228 c-1 -21 -12 -23 -29 -6 -8 8 -12 8 -12 1 0 -12 60 -36 68
-28 3 3 0 5 -6 5 -6 0 -13 10 -15 23 -3 14 -5 16 -6 5z"/>
<path d="M8650 6120 c14 -4 34 -8 45 -8 16 0 15 2 -5 8 -14 4 -34 8 -45 8 -16
0 -15 -2 5 -8z"/>
<path d="M8630 6062 c0 -4 18 -6 40 -4 22 2 40 6 40 8 0 2 -18 4 -40 4 -22 0
-40 -3 -40 -8z"/>
<path d="M2139 7383 c-13 -16 -12 -17 4 -4 9 7 17 15 17 17 0 8 -8 3 -21 -13z"/>
<path d="M7480 8142 c0 -5 10 -17 22 -28 l21 -19 -18 28 c-18 28 -25 33 -25
19z"/>
<path d="M7546 8038 c10 -14 21 -24 23 -22 3 3 -6 15 -18 27 l-24 22 19 -27z"/>
<path d="M3828 6283 c7 -3 16 -2 19 1 4 3 -2 6 -13 5 -11 0 -14 -3 -6 -6z"/>
<path d="M9622 6328 l3 -53 78 -3 77 -3 0 56 0 55 -81 0 -80 0 3 -52z"/>
<path d="M9620 6196 c0 -52 7 -56 96 -56 l64 0 0 50 0 50 -80 0 -80 0 0 -44z"/>
<path d="M9840 6161 c0 -17 2 -31 4 -31 8 0 13 51 5 56 -5 3 -9 -9 -9 -25z"/>
<path d="M5381 1784 c0 -11 3 -14 6 -6 3 7 2 16 -1 19 -3 4 -6 -2 -5 -13z"/>
<path d="M5290 1738 c-83 -52 -116 -78 -99 -78 16 0 179 102 179 112 0 13 -13
8 -80 -34z"/>
<path d="M480 6325 l0 -55 49 0 c27 0 63 3 80 6 30 6 31 9 31 55 l0 49 -80 0
-80 0 0 -55z"/>
<path d="M481 6195 l3 -45 78 0 78 0 0 45 0 45 -80 0 -81 0 2 -45z"/>
<path d="M390 6154 c0 -14 5 -24 11 -22 6 2 10 7 10 11 -1 4 -1 14 -1 22 0 8
-4 15 -10 15 -5 0 -10 -12 -10 -26z"/>
<path d="M997 5483 c-14 -4 -17 -13 -15 -46 3 -39 5 -42 34 -45 26 -3 33 1 38
20 10 39 7 66 -10 72 -17 6 -19 6 -47 -1z"/>
<path d="M9021 5483 l56 -4 -5 -57 c-3 -39 -1 -54 6 -47 6 6 12 34 14 63 l3
52 -65 -2 -65 -2 56 -3z"/>
<path d="M9194 5476 c-3 -8 -4 -29 -2 -48 3 -30 6 -33 40 -36 42 -4 54 16 43
68 -6 26 -11 30 -41 30 -21 0 -37 -6 -40 -14z"/>
<path d="M8967 5274 c-4 -4 -7 -43 -7 -86 l0 -78 70 0 71 0 -3 83 -3 82 -60 3
c-34 2 -64 0 -68 -4z"/>
<path d="M8634 4843 l-201 -3 -6 -137 c-4 -75 -7 -187 -7 -250 l0 -113 190 0
c188 0 190 0 195 23 3 12 4 94 3 182 l-3 160 -77 3 -78 3 2 57 2 57 3 -52 4
-53 90 0 c53 0 89 -4 89 -10 0 -5 -5 -10 -11 -10 -7 0 -9 -62 -7 -195 l3 -195
-202 0 c-196 0 -203 -1 -203 -20 0 -19 7 -20 205 -20 181 0 205 -2 205 -16 0
-14 -21 -15 -205 -9 l-205 8 4 -167 c2 -92 6 -169 8 -172 3 -2 4 -131 3 -287
-1 -202 -1 -217 2 -54 3 202 5 227 20 227 15 0 15 -24 9 -267 l-6 -268 -87
-80 c-157 -145 -763 -753 -763 -766 0 -6 24 14 53 45 29 31 56 54 59 50 4 -3
-3 -15 -15 -25 -12 -10 -17 -18 -11 -19 5 0 20 9 33 21 34 32 39 13 5 -24 -56
-60 -56 -62 -16 -66 21 -2 131 -3 246 -3 l208 0 52 51 c42 42 58 51 86 51 32
0 50 16 223 191 202 207 189 186 191 309 l1 55 -50 30 -50 30 0 333 0 332 -62
0 -63 0 0 -267 0 -268 -120 -108 c-66 -59 -120 -112 -120 -118 0 -5 11 -14 24
-19 13 -5 28 -19 31 -31 11 -35 -104 -141 -170 -158 -26 -6 -50 -9 -54 -6 -3
4 31 41 77 83 45 42 83 81 82 85 0 4 -24 -15 -52 -44 -62 -60 -112 -100 -130
-103 -7 -1 -29 -19 -50 -39 -21 -23 -39 -34 -43 -28 -3 6 -1 11 4 11 6 0 11 5
11 12 0 16 370 381 439 433 l51 39 0 268 0 268 76 0 75 0 -4 56 c-3 39 0 60
10 70 13 12 12 14 -1 14 -12 0 -16 11 -16 50 l0 50 63 0 c34 0 106 3 160 7
l97 6 -2 76 c-1 65 -2 69 -7 31 -9 -67 -21 198 -21 473 l0 227 -37 -2 c-21 -2
-128 -4 -239 -5z m194 -76 c9 -3 -23 -4 -73 -4 -76 1 -80 1 -22 4 l67 4 2 32
1 32 4 -32 c3 -19 11 -34 21 -36z m-126 -564 c-51 -2 -132 -2 -180 0 -48 1 -6
3 93 3 99 0 138 -2 87 -3z m-19 -90 c-46 -2 -120 -2 -165 0 -46 1 -9 3 82 3
91 0 128 -2 83 -3z m-660 -1390 c-7 -2 -19 -2 -25 0 -7 3 -2 5 12 5 14 0 19
-2 13 -5z"/>
<path d="M970 4665 c0 -34 1 -35 40 -35 39 0 40 1 40 35 0 34 -1 35 -40 35
-39 0 -40 -1 -40 -35z"/>
<path d="M9198 4688 c-2 -6 -2 -24 0 -40 4 -26 8 -29 36 -26 28 3 31 7 34 41
3 36 3 37 -32 37 -19 0 -36 -5 -38 -12z"/>
<path d="M8933 4260 c0 -30 2 -43 4 -27 2 15 2 39 0 55 -2 15 -4 2 -4 -28z"/>
<path d="M8991 4227 c-8 -15 -13 -70 -14 -143 l-2 -119 -105 -6 -105 -5 101
-2 c67 -1 104 2 112 10 8 8 12 51 12 129 0 91 3 119 15 129 16 14 20 30 7 30
-5 0 -14 -11 -21 -23z"/>
<path d="M1000 3945 c0 -43 1 -45 29 -45 33 0 63 -21 151 -106 36 -35 78 -68
93 -73 34 -13 217 -15 217 -2 0 4 -10 8 -22 8 -13 0 -63 0 -111 1 l-88 2 -67
63 c-37 34 -83 74 -101 89 -31 23 -35 31 -33 67 3 41 3 41 -33 41 -35 0 -35 0
-35 -45z"/>
<path d="M9177 3983 c-4 -3 -8 -22 -8 -42 -1 -32 -13 -46 -91 -121 l-89 -85
-112 -6 -112 -5 114 -2 114 -2 76 80 c42 44 82 80 89 80 7 0 12 5 12 10 0 6
14 10 30 10 29 0 30 2 30 45 0 40 -2 45 -23 45 -13 0 -27 -3 -30 -7z"/>
<path d="M1373 3643 l-83 -4 0 -99 0 -100 88 0 c48 0 92 4 99 8 8 5 13 43 16
102 3 86 3 82 5 -35 l2 -130 -190 3 c-144 2 -190 0 -190 -9 0 -9 22 -10 88 -6
48 4 132 4 187 0 l100 -6 -1 -96 c-2 -94 -2 -94 7 29 5 69 8 175 7 235 -3 127
12 114 -135 108z"/>
<path d="M8760 3540 l0 -100 95 0 95 0 2 58 c1 31 2 76 2 99 l1 43 -97 0 -98
0 0 -100z"/>
<path d="M8664 3360 c0 -85 2 -120 3 -77 2 42 2 112 0 155 -1 42 -3 7 -3 -78z"/>
<path d="M8744 3376 c-3 -8 -4 -23 -1 -33 4 -14 5 -13 6 5 1 19 7 22 44 23 23
1 105 5 182 8 l140 8 -183 1 c-151 2 -184 0 -188 -12z"/>
<path d="M1472 3273 l-2 -92 -36 -28 -37 -28 7 -195 c8 -224 2 -210 115 -282
36 -23 112 -84 167 -135 56 -51 104 -93 107 -93 16 0 -189 184 -248 222 -39
25 -82 57 -97 71 l-28 26 -2 163 c-1 90 -3 174 -4 188 -1 17 9 34 33 55 l34
31 -4 94 -3 95 -2 -92z"/>
<path d="M1360 3324 c0 -8 5 -12 10 -9 6 3 10 10 10 16 0 5 -4 9 -10 9 -5 0
-10 -7 -10 -16z"/>
<path d="M8442 3300 c0 -19 2 -27 5 -17 2 9 2 25 0 35 -3 9 -5 1 -5 -18z"/>
<path d="M8810 3310 c0 -11 5 -20 10 -20 6 0 9 6 8 13 -2 8 16 14 52 18 l55 6
-62 1 c-57 2 -63 0 -63 -18z"/>
<path d="M1150 3302 c0 -23 1 -23 135 -21 74 0 137 4 139 8 2 3 -54 7 -126 7
-101 0 -132 3 -139 15 -7 11 -9 9 -9 -9z"/>
<path d="M8753 3255 c0 -38 2 -53 4 -32 2 20 2 52 0 70 -2 17 -4 1 -4 -38z"/>
<path d="M9057 3300 c-4 -15 0 -20 14 -20 21 0 22 1 13 24 -8 22 -21 20 -27
-4z"/>
<path d="M8218 3123 c-94 -93 -185 -183 -202 -201 -16 -19 -73 -64 -125 -102
-101 -72 -201 -153 -320 -257 -39 -35 -78 -63 -87 -63 -21 0 -94 -39 -94 -50
0 -6 14 -10 30 -10 17 0 30 -4 30 -10 0 -5 8 -10 18 -10 15 1 15 2 -3 16 -17
13 -18 16 -5 24 15 10 20 11 40 14 6 0 10 5 10 9 -1 12 197 176 353 294 75 57
163 129 196 161 112 109 345 352 337 352 -3 0 -84 -75 -178 -167z"/>
<path d="M8853 3283 c9 -2 23 -2 30 0 6 3 -1 5 -18 5 -16 0 -22 -2 -12 -5z"/>
<path d="M1385 3263 c-11 -3 -24 -10 -30 -15 -7 -8 -4 -9 10 -4 18 7 18 5 -2
-14 -30 -28 -29 -36 1 -13 19 14 55 57 44 52 -2 -1 -12 -3 -23 -6z"/>
<path d="M8860 3253 c0 -14 -2 -15 -9 -4 -5 7 -11 9 -14 4 -4 -6 5 -15 18 -21
22 -10 25 -9 25 8 0 10 -4 22 -10 25 -5 3 -10 -2 -10 -12z"/>
<path d="M1145 3230 c-3 -5 -1 -10 4 -10 15 0 14 -27 -1 -33 -8 -3 -6 -6 5 -6
12 -1 17 7 17 29 0 29 -13 40 -25 20z"/>
<path d="M9056 3233 c-12 -12 -6 -43 9 -43 8 0 15 9 15 19 0 21 -13 34 -24 24z"/>
<path d="M8215 3148 l-60 -63 63 60 c58 55 67 65 59 65 -1 0 -29 -28 -62 -62z"/>
<path d="M8721 3193 c0 -13 9 -29 27 -41 45 -31 59 -36 27 -8 -16 14 -33 25
-37 26 -4 0 -9 10 -11 23 -4 22 -4 22 -6 0z"/>
<path d="M8790 3195 c7 -8 30 -20 51 -26 l39 -12 3 -201 2 -201 3 208 c2 163
-1 207 -11 207 -7 0 -30 9 -52 20 -47 24 -51 25 -35 5z"/>
<path d="M8670 3166 c0 -19 3 -37 8 -40 4 -2 6 13 4 35 -5 48 -12 51 -12 5z"/>
<path d="M1375 3180 c-3 -6 1 -7 9 -4 18 7 21 14 7 14 -6 0 -13 -4 -16 -10z"/>
<path d="M1400 3165 c-8 -9 -8 -15 -2 -15 12 0 26 19 19 26 -2 2 -10 -2 -17
-11z"/>
<path d="M1484 3148 l-19 -23 23 19 c21 18 27 26 19 26 -2 0 -12 -10 -23 -22z"/>
<path d="M8940 2931 l0 -218 -92 -100 c-219 -235 -355 -375 -384 -393 -29 -18
-53 -19 -434 -20 -222 0 -405 -2 -408 -5 -3 -3 101 -5 231 -5 l236 0 4 -47 3
-48 2 48 2 47 174 0 175 0 43 38 c52 45 385 393 428 447 l30 38 0 218 c0 121
-2 219 -5 219 -3 0 -5 -98 -5 -219z"/>
<path d="M8700 3131 c0 -4 20 -19 45 -32 l44 -24 4 -125 3 -125 2 133 c2 106
-1 132 -12 132 -7 0 -30 11 -50 25 -20 13 -36 21 -36 16z"/>
<path d="M1440 3120 c-9 -6 -10 -10 -3 -10 6 0 15 5 18 10 8 12 4 12 -15 0z"/>
<path d="M1579 3113 c-13 -16 -12 -17 4 -4 16 13 21 21 13 21 -2 0 -10 -8 -17
-17z"/>
<path d="M1345 3070 c3 -30 5 -126 5 -212 l0 -157 30 -16 c42 -22 51 -18 13 5
l-33 20 -1 162 c0 90 -4 183 -9 208 -9 45 -9 45 -5 -10z"/>
<path d="M8837 2939 l5 -186 -189 -190 c-104 -105 -195 -193 -203 -196 -12 -4
-12 -6 1 -6 9 -1 103 85 208 189 l191 191 -1 107 c-1 59 -5 145 -9 192 -6 58
-7 27 -3 -101z"/>
<path d="M9193 3108 c2 -7 10 -13 17 -13 7 0 15 6 18 13 2 7 -5 12 -18 12 -13
0 -20 -5 -17 -12z"/>
<path d="M1007 3103 c-12 -12 -7 -22 8 -17 8 4 15 10 15 15 0 11 -14 12 -23 2z"/>
<path d="M8710 3091 c14 -11 30 -21 35 -21 11 0 -7 14 -40 31 -13 7 -12 3 5
-10z"/>
<path d="M1085 3090 c3 -5 10 -10 16 -10 5 0 9 5 9 10 0 6 -7 10 -16 10 -8 0
-12 -4 -9 -10z"/>
<path d="M1508 3074 c-16 -8 -28 -19 -28 -25 0 -6 5 -6 13 1 6 6 21 17 32 25
26 19 17 18 -17 -1z"/>
<path d="M1451 3064 c0 -11 3 -14 6 -6 3 7 2 16 -1 19 -3 4 -6 -2 -5 -13z"/>
<path d="M8753 3015 c0 -27 2 -38 4 -22 2 15 2 37 0 50 -2 12 -4 0 -4 -28z"/>
<path d="M9095 3030 c3 -5 15 -10 26 -10 10 0 19 5 19 10 0 6 -12 10 -26 10
-14 0 -23 -4 -19 -10z"/>
<path d="M9190 3031 c0 -5 9 -11 20 -14 13 -3 20 0 20 9 0 8 -9 14 -20 14 -11
0 -20 -4 -20 -9z"/>
<path d="M980 3015 c0 -9 6 -12 15 -9 8 4 15 10 15 15 0 5 -7 9 -15 9 -8 0
-15 -7 -15 -15z"/>
<path d="M1073 3023 c9 -2 25 -2 35 0 9 3 1 5 -18 5 -19 0 -27 -2 -17 -5z"/>
<path d="M1481 3004 c0 -11 3 -14 6 -6 3 7 2 16 -1 19 -3 4 -6 -2 -5 -13z"/>
<path d="M1472 2925 c0 -16 2 -22 5 -12 2 9 2 23 0 30 -3 6 -5 -1 -5 -18z"/>
<path d="M992 2880 c0 -19 2 -27 5 -17 2 9 2 25 0 35 -3 9 -5 1 -5 -18z"/>
<path d="M1125 2815 l7 -97 305 -302 c168 -165 310 -303 316 -305 17 -5 -456
469 -540 542 l-72 62 -1 92 c0 57 -4 94 -11 99 -9 5 -10 -19 -4 -91z"/>
<path d="M9100 2803 l0 -78 -332 -332 c-183 -183 -330 -335 -327 -337 3 -3
154 144 337 327 l332 333 0 82 c0 45 -2 82 -5 82 -3 0 -5 -35 -5 -77z"/>
<path d="M1482 2840 c0 -19 2 -27 5 -17 2 9 2 25 0 35 -3 9 -5 1 -5 -18z"/>
<path d="M8605 2727 c-71 -78 -188 -201 -260 -274 -71 -73 -126 -133 -122
-133 19 0 526 535 516 544 -2 2 -62 -60 -134 -137z"/>
<path d="M8650 2709 c-170 -176 -175 -195 -7 -28 75 75 137 142 137 148 0 15
12 25 -130 -120z"/>
<path d="M1510 2818 c0 -10 331 -318 355 -330 11 -6 -2 9 -30 33 -27 24 -90
82 -140 128 -49 47 -111 106 -137 130 -27 25 -48 42 -48 39z"/>
<path d="M7867 2752 c-34 -32 -89 -80 -122 -107 -62 -52 -205 -193 -205 -202
0 -3 7 0 15 7 8 7 15 10 15 7 0 -4 21 17 48 45 39 43 143 138 306 280 17 15
25 27 18 28 -8 0 -41 -26 -75 -58z"/>
<path d="M8791 2782 c-6 -11 -59 -63 -118 -115 -150 -134 -247 -226 -198 -189
22 16 74 61 115 99 41 37 96 85 122 106 50 41 103 105 95 114 -3 2 -10 -4 -16
-15z"/>
<path d="M1450 2780 c0 -12 90 -94 114 -104 38 -17 178 -141 216 -192 19 -24
61 -68 95 -96 59 -50 59 -50 -13 22 -40 40 -80 84 -90 98 -21 32 -192 182
-208 182 -6 0 -35 22 -63 48 -28 26 -51 45 -51 42z"/>
<path d="M8870 2730 c0 -7 -15 -27 -32 -43 l-33 -29 33 22 c34 23 50 46 38 57
-3 4 -6 0 -6 -7z"/>
<path d="M1332 2645 c5 -11 109 -118 230 -237 l221 -218 88 -1 c49 -1 94 -2
101 -3 6 -1 13 4 15 9 2 6 -34 9 -98 7 l-102 -3 -233 233 c-128 128 -228 224
-222 213z"/>
<path d="M1445 2663 c6 -5 51 -44 102 -87 51 -42 102 -90 113 -106 12 -17 25
-28 30 -25 4 3 31 -20 59 -51 28 -31 51 -51 51 -45 0 12 -96 106 -108 106 -4
0 -25 20 -47 44 -38 41 -163 148 -195 166 -10 5 -12 5 -5 -2z"/>
<path d="M7552 2494 c-62 -56 -70 -75 -29 -73 l22 1 -22 6 c-21 6 -18 11 37
56 33 28 60 53 60 58 0 12 0 12 -68 -48z"/>
<path d="M1805 2492 c11 -13 29 -28 40 -34 21 -11 18 -8 -30 32 -29 24 -29 24
-10 2z"/>
<path d="M8471 2450 c-35 -33 -60 -60 -55 -60 5 0 36 27 69 60 76 77 69 76
-14 0z"/>
<path d="M7146 2484 c-22 -21 -20 -27 4 -12 11 7 20 16 20 20 0 12 -7 10 -24
-8z"/>
<path d="M8411 2477 c-13 -21 -12 -21 5 -5 10 10 16 20 13 22 -3 3 -11 -5 -18
-17z"/>
<path d="M8282 2462 c-15 -16 -42 -48 -60 -70 l-33 -42 -207 -1 c-114 0 -215
-4 -225 -8 -15 -5 109 -6 410 -1 27 0 40 11 92 75 61 75 73 100 23 47z"/>
<path d="M1968 2428 c52 -54 72 -88 30 -52 l-23 19 19 -23 c11 -12 21 -20 24
-17 3 2 14 -2 26 -10 16 -12 62 -15 236 -14 118 0 224 4 235 9 12 5 -77 9
-221 9 l-242 1 -43 54 c-24 30 -55 59 -69 66 -17 8 -9 -5 28 -42z"/>
<path d="M1960 2344 l72 -69 64 4 64 3 0 -41 0 -40 -82 -4 -83 -3 82 -2 c80
-2 83 -3 89 -28 4 -14 4 -55 1 -90 l-6 -64 79 0 79 0 3 33 3 32 118 0 c64 0
117 3 117 8 0 4 -51 7 -113 7 -117 0 -137 -6 -137 -42 0 -16 -9 -18 -67 -18
l-68 0 3 80 4 80 206 0 c155 1 202 3 188 12 -12 7 -83 9 -210 7 l-191 -4 -3
38 -3 38 195 -3 c107 -2 192 0 188 4 -5 5 -125 8 -268 8 l-261 1 -49 50 c-27
28 -57 55 -68 61 -10 5 14 -21 54 -58z"/>
<path d="M7050 2400 c13 -8 12 -10 -2 -10 -15 0 -18 -10 -18 -60 0 -53 2 -60
20 -60 18 0 20 7 20 70 0 60 -2 70 -17 70 -15 0 -16 -2 -3 -10z"/>
<path d="M7085 2378 c1 -13 4 -43 5 -68 l3 -45 7 40 c7 37 7 38 9 9 1 -23 7
-33 21 -37 18 -5 20 0 20 59 0 57 -2 64 -19 64 -12 0 -21 -8 -24 -22 l-4 -23
-2 23 c0 12 -5 22 -10 22 -4 0 -7 -10 -6 -22z"/>
<path d="M7170 2337 c0 -56 2 -63 20 -63 18 0 20 7 20 63 0 56 -2 63 -20 63
-18 0 -20 -7 -20 -63z"/>
<path d="M7230 2339 c0 -52 2 -59 20 -59 18 0 20 7 20 58 0 51 -2 58 -20 59
-18 2 -20 -4 -20 -58z"/>
<path d="M7290 2338 c0 -45 3 -58 15 -58 12 0 15 13 15 58 0 46 -3 59 -15 59
-12 0 -15 -13 -15 -59z"/>
<path d="M7415 2390 c3 -5 8 -10 11 -10 2 0 4 5 4 10 0 6 -5 10 -11 10 -5 0
-7 -4 -4 -10z"/>
<path d="M1840 2364 c19 -16 60 -53 90 -84 30 -30 46 -44 35 -30 -43 55 -72
83 -115 112 -43 28 -43 28 -10 2z"/>
<path d="M7003 2325 c0 -38 2 -53 4 -32 2 20 2 52 0 70 -2 17 -4 1 -4 -38z"/>
<path d="M7338 2335 c4 -58 14 -69 33 -34 15 29 3 89 -19 89 -14 0 -16 -8 -14
-55z"/>
<path d="M7449 2347 c4 -41 4 -42 12 -12 6 20 5 34 -4 42 -10 10 -12 4 -8 -30z"/>
<path d="M6970 2325 c0 -35 4 -54 10 -50 6 3 10 26 10 50 0 24 -4 47 -10 50
-6 4 -10 -15 -10 -50z"/>
<path d="M8360 2369 c0 -5 5 -7 10 -4 6 3 10 8 10 11 0 2 -4 4 -10 4 -5 0 -10
-5 -10 -11z"/>
<path d="M6940 2325 c0 -25 5 -45 10 -45 6 0 10 20 10 45 0 25 -4 45 -10 45
-5 0 -10 -20 -10 -45z"/>
<path d="M8313 2350 c-18 -11 -33 -22 -33 -25 0 -2 16 5 35 16 19 12 35 23 35
25 0 6 -3 5 -37 -16z"/>
<path d="M8487 2363 c-4 -3 -7 -11 -7 -17 0 -6 5 -5 12 2 6 6 9 14 7 17 -3 3
-9 2 -12 -2z"/>
<path d="M6920 2340 c0 -11 -3 -19 -7 -17 -5 1 -9 -1 -10 -5 -6 -18 -2 -28 12
-28 10 0 15 11 15 35 0 19 -2 35 -5 35 -3 0 -5 -9 -5 -20z"/>
<path d="M8250 2305 c-11 -13 -55 -15 -288 -15 -151 0 -273 -2 -270 -5 2 -3
125 -5 273 -6 258 0 269 1 289 20 11 12 18 21 14 21 -3 0 -11 -7 -18 -15z"/>
<path d="M8395 2276 c-20 -14 -12 -38 10 -30 16 7 27 31 16 38 -4 3 -16 -1
-26 -8z"/>
<path d="M1840 2256 c0 -28 14 -35 23 -12 3 8 -1 20 -9 26 -12 10 -14 8 -14
-14z"/>
<path d="M6850 1990 c-91 -88 -162 -160 -157 -160 4 0 80 72 170 160 89 88
160 159 157 159 -3 0 -79 -72 -170 -159z"/>
<path d="M3743 2027 c28 -27 102 -94 166 -150 64 -56 179 -160 256 -231 77
-71 149 -134 160 -142 11 -7 65 -16 119 -20 l100 -7 140 -121 c78 -67 162
-142 189 -168 l47 -48 1 -82 2 -83 9 63 c13 84 3 105 -88 191 -41 38 -74 68
-74 65 0 -5 -57 53 -152 154 l-46 50 -109 1 c-74 1 -115 6 -130 16 -12 8 -77
65 -145 128 -109 99 -399 354 -469 411 -14 12 -3 -1 24 -27z m907 -625 c0 -9
-78 64 -85 78 -3 8 14 -5 39 -30 25 -24 46 -46 46 -48z"/>
<path d="M7645 2070 c-13 -6 13 -9 75 -9 52 0 102 4 110 9 19 12 -156 12 -185
0z"/>
<path d="M2810 2060 c-10 -7 17 -10 87 -10 l102 0 113 -108 c120 -115 255
-232 269 -232 4 0 11 10 14 21 6 18 -15 43 -126 153 -74 72 -98 93 -53 46 156
-165 183 -200 154 -200 -13 0 -121 94 -262 228 l-117 112 -83 0 c-46 0 -90 -5
-98 -10z"/>
<path d="M6888 1933 c-77 -76 -144 -147 -150 -158 -6 -11 15 8 46 42 31 34
102 105 158 157 56 53 98 96 94 96 -5 0 -71 -62 -148 -137z"/>
<path d="M2465 2040 c-3 -5 -3 -32 1 -60 l7 -50 53 0 54 0 0 54 c0 40 -4 55
-16 60 -25 9 -92 7 -99 -4z"/>
<path d="M7953 2043 c32 -2 81 -2 110 0 29 2 3 3 -58 3 -60 0 -84 -1 -52 -3z"/>
<path d="M7490 1990 c0 -29 1 -30 50 -30 49 0 50 1 50 30 0 29 -1 30 -50 30
-49 0 -50 -1 -50 -30z"/>
<path d="M7624 2004 c3 -9 6 -20 6 -25 0 -5 43 -9 95 -9 95 0 95 0 95 25 l0
25 -101 0 c-88 0 -100 -2 -95 -16z"/>
<path d="M6419 1984 c-7 -9 -79 -73 -159 -142 -80 -70 -188 -165 -240 -212
-149 -135 -139 -130 -240 -130 l-88 0 -88 -88 c-138 -135 -151 -157 -26 -43
62 57 115 107 117 111 3 4 44 8 92 9 50 1 95 7 104 14 24 18 434 383 499 444
30 29 52 53 49 53 -4 0 -13 -7 -20 -16z"/>
<path d="M6603 1898 c-59 -57 -158 -148 -218 -203 -61 -55 -149 -137 -197
-182 l-87 -83 -188 0 -188 0 -166 -168 -167 -168 6 -242 5 -242 -62 0 c-34 0
-61 -4 -61 -10 0 -6 32 -10 75 -10 43 0 75 4 75 10 0 6 -4 10 -10 10 -6 0 -10
88 -10 243 l0 243 158 157 158 156 185 3 c180 3 185 4 215 28 18 14 139 126
270 250 132 124 259 245 284 268 25 23 42 42 39 42 -4 0 -56 -46 -116 -102z"/>
<path d="M3651 1858 c59 -56 188 -181 288 -275 l182 -173 184 0 184 0 161
-152 160 -153 0 -257 0 -258 87 0 c104 0 103 17 -2 22 l-70 3 -5 251 -5 250
-130 122 c-71 67 -146 138 -165 157 l-35 35 -177 0 -178 0 -42 37 c-24 21
-115 105 -203 188 -88 83 -200 185 -250 228 l-90 79 106 -104z"/>
<path d="M7072 1933 l-93 -4 -85 -81 c-46 -45 -82 -83 -79 -86 3 -3 43 31 89
76 l84 82 113 1 c63 1 148 5 189 9 l75 7 -100 -1 c-55 0 -142 -2 -193 -3z"/>
<path d="M7455 1879 c5 -7 63 -8 187 -3 l179 7 -3 -59 -3 -59 -170 -3 c-93 -1
-174 -7 -179 -12 -7 -7 52 -10 167 -10 203 0 197 -3 197 94 l0 56 -191 0
c-131 0 -188 -3 -184 -11z"/>
<path d="M7263 1658 c-87 -85 -131 -138 -115 -138 5 0 55 50 111 110 56 61 99
110 96 110 -4 0 -46 -37 -92 -82z"/>
<path d="M3513 1672 c46 -61 409 -398 473 -440 l42 -27 6 -80 c3 -44 2 -118
-3 -165 -9 -81 -3 -117 15 -88 5 7 7 86 5 175 l-3 163 146 0 c98 0 146 4 146
11 0 7 -47 8 -158 3 l-158 -7 -75 64 c-161 137 -449 411 -449 427 0 6 12 13
28 15 17 2 11 4 -15 4 l-41 0 41 -55z"/>
<path d="M6019 1693 l-24 -28 28 24 c15 14 27 26 27 28 0 8 -8 1 -31 -24z"/>
<path d="M6721 1673 c-25 -18 -119 -107 -210 -196 -91 -89 -191 -184 -222
-210 l-57 -49 -173 -1 -174 -1 159 -3 158 -4 -4 -169 c-3 -155 -2 -169 14
-173 10 -3 21 0 25 5 3 6 1 8 -4 5 -15 -10 -23 52 -23 186 0 108 2 118 22 135
57 46 138 121 309 289 102 101 193 183 201 183 18 0 43 26 31 33 -4 3 -28 -11
-52 -30z"/>
<path d="M5959 1643 l-24 -28 28 24 c15 14 27 26 27 28 0 8 -8 1 -31 -24z"/>
<path d="M5885 1585 c-39 -34 -42 -35 -132 -35 l-93 0 -87 -87 c-49 -47 -108
-99 -133 -115 -25 -15 -84 -61 -132 -101 l-88 -72 2 -135 2 -135 3 127 4 126
62 58 c34 31 102 88 152 125 49 37 119 97 155 133 l64 66 94 0 93 0 42 40 c52
49 47 52 -8 5z"/>
<path d="M1034 1546 c-3 -8 -4 -31 -2 -52 3 -37 5 -39 39 -42 35 -3 37 -1 40
30 7 64 1 78 -37 78 -20 0 -37 -6 -40 -14z"/>
<path d="M5090 1497 l0 -65 50 24 50 24 -32 28 c-73 61 -68 62 -68 -11z"/>
<path d="M9138 1525 c-3 -14 -3 -36 0 -50 4 -21 10 -25 38 -25 l34 0 0 50 0
50 -34 0 c-28 0 -34 -4 -38 -25z"/>
<path d="M3465 1520 c-3 -5 -3 -19 0 -30 4 -12 2 -20 -5 -20 -6 0 -10 -12 -8
-27 2 -24 8 -28 33 -28 35 0 47 31 20 51 -10 7 -15 20 -12 28 7 18 -18 42 -28
26z"/>
<path d="M6740 1510 c0 -11 7 -20 15 -20 8 0 15 9 15 20 0 11 -7 20 -15 20 -8
0 -15 -9 -15 -20z"/>
<path d="M7200 1496 c0 -27 12 -46 30 -46 22 0 34 28 19 46 -15 18 -49 18 -49
0z"/>
<path d="M6696 1465 c-24 -24 -4 -55 35 -55 28 0 30 2 27 33 -4 37 -35 49 -62
22z"/>
<path d="M4537 1417 c12 -7 85 -72 161 -144 77 -73 143 -133 147 -133 8 0
-224 223 -271 261 -20 16 -42 29 -48 29 -6 -1 -1 -6 11 -13z"/>
<path d="M5213 1340 c0 -47 2 -66 4 -42 2 23 2 61 0 85 -2 23 -4 4 -4 -43z"/>
<path d="M5265 1390 c10 -11 20 -20 23 -20 3 0 -3 9 -13 20 -10 11 -20 20 -23
20 -3 0 3 -9 13 -20z"/>
<path d="M5320 1390 c27 -21 76 -26 100 -10 11 7 6 8 -16 4 -18 -3 -46 1 -70
10 l-39 16 25 -20z"/>
<path d="M5172 1349 c-1 -26 -5 -62 -8 -80 -5 -26 -4 -31 5 -23 8 7 11 36 8
80 -2 48 -4 55 -5 23z"/>
<path d="M5097 1374 c-8 -8 -10 -148 -2 -156 3 -3 6 -78 8 -166 1 -100 6 -162
12 -162 7 0 8 81 3 237 -8 246 -9 259 -21 247z"/>
<path d="M5317 1339 c3 -10 9 -16 14 -13 13 8 11 21 -5 27 -10 4 -12 0 -9 -14z"/>
<path d="M1980 1330 c0 -5 16 -10 35 -10 19 0 35 5 35 10 0 6 -16 10 -35 10
-19 0 -35 -4 -35 -10z"/>
<path d="M2124 1328 c-3 -4 4 -8 15 -8 12 0 21 4 21 8 0 5 -7 9 -15 9 -9 0
-18 -4 -21 -9z"/>
<path d="M3157 1334 c-4 -4 -7 -16 -7 -26 0 -13 7 -18 26 -18 21 0 25 4 22 22
-3 23 -27 35 -41 22z"/>
<path d="M7625 1330 l-450 -5 458 -3 c304 -1 456 1 452 8 -3 6 -7 9 -8 8 -1
-2 -204 -5 -452 -8z"/>
<path d="M8105 1330 c-3 -5 -1 -10 4 -10 6 0 11 5 11 10 0 6 -2 10 -4 10 -3 0
-8 -4 -11 -10z"/>
<path d="M8160 1330 c0 -5 9 -10 20 -10 11 0 20 5 20 10 0 6 -9 10 -20 10 -11
0 -20 -4 -20 -10z"/>
<path d="M2238 1323 c23 -2 61 -2 85 0 23 2 4 4 -43 4 -47 0 -66 -2 -42 -4z"/>
<path d="M2938 1323 c34 -2 88 -2 120 0 31 2 3 3 -63 3 -66 0 -92 -1 -57 -3z"/>
<path d="M5448 1222 l-116 -107 1 -65 1 -65 3 60 4 60 117 112 c64 62 115 112
112 112 -3 0 -57 -48 -122 -107z"/>
<path d="M7060 1310 c0 -15 7 -20 25 -20 18 0 25 5 25 20 0 15 -7 20 -25 20
-18 0 -25 -5 -25 -20z"/>
<path d="M8268 1323 c6 -2 18 -2 25 0 6 3 1 5 -13 5 -14 0 -19 -2 -12 -5z"/>
<path d="M5376 1229 l-86 -81 2 -81 2 -82 3 75 4 75 87 88 c47 48 84 87 81 87
-3 0 -45 -36 -93 -81z"/>
<path d="M4892 1249 c29 -23 66 -54 83 -68 16 -14 23 -17 15 -7 -21 27 -129
116 -141 116 -6 0 13 -19 43 -41z"/>
<path d="M4761 1253 c0 -4 29 -31 63 -60 l63 -52 -5 -73 c-3 -40 -10 -76 -16
-80 -7 -5 -3 -8 9 -8 18 0 20 7 20 78 0 42 -3 82 -8 88 -12 19 -127 117 -126
107z"/>
<path d="M5032 1033 c-1 -72 1 -134 6 -136 4 -3 6 36 4 86 -4 166 -8 184 -10
50z"/>
<path d="M4958 1138 c7 -7 13 -28 13 -47 1 -26 3 -29 6 -12 6 31 -5 71 -19 71
-9 0 -9 -3 0 -12z"/>
<path d="M3210 855 l0 -111 353 -1 c193 -1 360 0 371 4 56 16 -41 23 -356 23
l-348 0 0 83 c0 45 -5 89 -10 97 -7 10 -10 -20 -10 -95z"/>
<path d="M2178 933 l-298 -3 0 -52 0 -51 510 5 509 6 4 -57 c2 -32 4 -9 5 52
l2 107 -217 -2 c-120 -2 -352 -4 -515 -5z"/>
<path d="M1497 883 c-2 -5 -3 -21 -1 -38 1 -16 3 -40 3 -52 1 -21 6 -23 49
-23 l47 0 3 60 2 60 -49 0 c-28 0 -52 -3 -54 -7z"/>
<path d="M4163 763 c-15 -6 -17 -69 -3 -78 6 -4 24 -4 40 0 26 6 30 11 30 40
0 39 -27 55 -67 38z"/>
<path d="M6006 754 c-3 -9 -6 -27 -6 -40 0 -22 4 -24 45 -24 44 0 45 0 45 34
0 36 -12 46 -55 46 -12 0 -26 -7 -29 -16z"/>
<path d="M4632 695 c0 -16 2 -22 5 -12 2 9 2 23 0 30 -3 6 -5 -1 -5 -18z"/>
<path d="M4631 644 c0 -11 3 -14 6 -6 3 7 2 16 -1 19 -3 4 -6 -2 -5 -13z"/>
<path d="M5488 553 c-12 -3 -18 -14 -18 -34 l0 -29 70 0 70 0 0 35 0 35 -52
-1 c-29 -1 -61 -3 -70 -6z"/>
<path d="M4817 520 c-3 -12 0 -20 8 -20 7 0 15 9 18 20 3 12 0 20 -8 20 -7 0
-15 -9 -18 -20z"/>
<path d="M5390 510 c0 -20 5 -30 15 -30 10 0 15 10 15 30 0 20 -5 30 -15 30
-10 0 -15 -10 -15 -30z"/>
<path d="M4638 414 l-3 -56 60 6 c32 3 63 10 68 15 4 4 7 26 5 47 l-3 39 -62
3 -61 3 -4 -57z"/>
<path d="M4812 420 l3 -45 303 -3 302 -2 0 47 0 48 -305 0 -306 0 3 -45z"/>
</g>
</svg>
